G04 (created by PCBNEW (2013-07-07 BZR 4022)-stable) date 4/28/2015 8:48:14 PM*
%MOIN*%
G04 Gerber Fmt 3.4, Leading zero omitted, Abs format*
%FSLAX34Y34*%
G01*
G70*
G90*
G04 APERTURE LIST*
%ADD10C,0.00590551*%
%ADD11R,0.0906X0.0197*%
%ADD12R,0.0984X0.0787*%
%ADD13C,0.0354*%
%ADD14R,0.08X0.144*%
%ADD15R,0.08X0.04*%
%ADD16R,0.06X0.08*%
%ADD17R,0.08X0.06*%
%ADD18R,0.06X0.06*%
%ADD19C,0.06*%
%ADD20R,0.0629X0.0709*%
%ADD21R,0.0709X0.0629*%
%ADD22R,0.0629921X0.0551181*%
%ADD23R,0.025X0.05*%
%ADD24R,0.071X0.063*%
%ADD25R,0.023622X0.0610236*%
%ADD26R,0.0291339X0.0665354*%
G04 APERTURE END LIST*
G54D10*
G54D11*
X93692Y-41930D03*
X93692Y-41615D03*
X93692Y-41300D03*
X93692Y-40985D03*
X93692Y-40670D03*
G54D12*
X93731Y-43052D03*
X95896Y-43052D03*
X93731Y-39548D03*
X95896Y-39548D03*
G54D13*
X94715Y-42166D03*
X94715Y-40434D03*
G54D14*
X89000Y-39200D03*
G54D15*
X91600Y-39200D03*
X91600Y-38300D03*
X91600Y-40100D03*
G54D16*
X84114Y-28464D03*
X82814Y-28464D03*
X71909Y-54330D03*
X70609Y-54330D03*
X75059Y-55118D03*
X73759Y-55118D03*
X78209Y-55905D03*
X76909Y-55905D03*
X81358Y-55905D03*
X80058Y-55905D03*
X84508Y-55118D03*
X83208Y-55118D03*
X87657Y-54330D03*
X86357Y-54330D03*
X69941Y-28464D03*
X68641Y-28464D03*
X72697Y-28464D03*
X71397Y-28464D03*
X75453Y-28464D03*
X74153Y-28464D03*
X78209Y-28464D03*
X76909Y-28464D03*
X81358Y-28464D03*
X80058Y-28464D03*
X90807Y-53149D03*
X89507Y-53149D03*
X86870Y-28464D03*
X85570Y-28464D03*
X89626Y-28464D03*
X88326Y-28464D03*
X86476Y-35787D03*
X85176Y-35787D03*
X79783Y-41653D03*
X78483Y-41653D03*
X73090Y-35787D03*
X71790Y-35787D03*
X68760Y-53543D03*
X67460Y-53543D03*
X68760Y-48425D03*
X67460Y-48425D03*
X71909Y-49212D03*
X70609Y-49212D03*
X75059Y-50000D03*
X73759Y-50000D03*
X78209Y-50787D03*
X76909Y-50787D03*
X81358Y-50787D03*
X80058Y-50787D03*
X84508Y-50000D03*
X83208Y-50000D03*
X87657Y-49212D03*
X86357Y-49212D03*
X90807Y-48031D03*
X89507Y-48031D03*
G54D17*
X64350Y-39450D03*
X64350Y-40750D03*
X91600Y-35650D03*
X91600Y-36950D03*
G54D18*
X78150Y-26050D03*
G54D19*
X78150Y-25050D03*
X79150Y-26050D03*
X79150Y-25050D03*
X80150Y-26050D03*
X80150Y-25050D03*
G54D20*
X70700Y-52755D03*
X71818Y-52755D03*
G54D21*
X64350Y-41991D03*
X64350Y-43109D03*
G54D20*
X89598Y-49606D03*
X90716Y-49606D03*
X88417Y-30039D03*
X89535Y-30039D03*
X85661Y-30039D03*
X86779Y-30039D03*
X82905Y-30039D03*
X84023Y-30039D03*
X80149Y-30039D03*
X81267Y-30039D03*
X77000Y-30039D03*
X78118Y-30039D03*
X74244Y-30039D03*
X75362Y-30039D03*
X71488Y-30039D03*
X72606Y-30039D03*
X68732Y-30039D03*
X69850Y-30039D03*
X86448Y-50787D03*
X87566Y-50787D03*
X83299Y-51574D03*
X84417Y-51574D03*
X80149Y-52362D03*
X81267Y-52362D03*
X67551Y-51968D03*
X68669Y-51968D03*
X67551Y-50000D03*
X68669Y-50000D03*
X70700Y-50787D03*
X71818Y-50787D03*
X73850Y-51574D03*
X74968Y-51574D03*
X77000Y-52362D03*
X78118Y-52362D03*
X89598Y-51574D03*
X90716Y-51574D03*
X86448Y-52755D03*
X87566Y-52755D03*
X83299Y-53543D03*
X84417Y-53543D03*
X80149Y-54330D03*
X81267Y-54330D03*
X77000Y-54330D03*
X78118Y-54330D03*
X73850Y-53543D03*
X74968Y-53543D03*
G54D22*
X87401Y-34586D03*
X87401Y-32814D03*
X84251Y-32814D03*
X84251Y-34586D03*
X74015Y-34586D03*
X74015Y-32814D03*
X70866Y-32814D03*
X70866Y-34586D03*
X80708Y-40177D03*
X80708Y-38405D03*
X77559Y-38405D03*
X77559Y-40177D03*
G54D23*
X70116Y-46336D03*
X70616Y-46336D03*
X71116Y-46336D03*
X71616Y-46336D03*
X71616Y-43449D03*
X71116Y-43449D03*
X70616Y-43427D03*
X70116Y-43427D03*
G54D18*
X91650Y-34450D03*
G54D19*
X92650Y-34450D03*
G54D24*
X93000Y-36850D03*
X93000Y-35750D03*
X90300Y-36950D03*
X90300Y-35850D03*
G54D16*
X90450Y-43000D03*
X91750Y-43000D03*
X90450Y-41600D03*
X91750Y-41600D03*
X90400Y-44500D03*
X91700Y-44500D03*
G54D17*
X78444Y-34212D03*
X78444Y-32912D03*
G54D18*
X69500Y-37900D03*
G54D19*
X69500Y-38900D03*
X69500Y-39900D03*
G54D18*
X71500Y-37800D03*
G54D19*
X72500Y-37800D03*
X73500Y-37800D03*
G54D18*
X73500Y-40150D03*
G54D19*
X72500Y-40150D03*
X71500Y-40150D03*
G54D21*
X80118Y-33003D03*
X80118Y-34121D03*
G54D25*
X73446Y-45944D03*
X73946Y-45944D03*
X74446Y-45944D03*
X74946Y-45944D03*
X75446Y-45944D03*
X75946Y-45944D03*
X76446Y-45944D03*
X76946Y-45944D03*
X76946Y-43818D03*
X76446Y-43818D03*
X75946Y-43818D03*
X75446Y-43818D03*
X74946Y-43818D03*
X74446Y-43818D03*
X73946Y-43818D03*
X73446Y-43818D03*
G54D26*
X84470Y-45944D03*
X84970Y-45944D03*
X85470Y-45944D03*
X85970Y-45944D03*
X86470Y-45944D03*
X86970Y-45944D03*
X87470Y-45944D03*
X87970Y-45944D03*
X87970Y-43818D03*
X87470Y-43818D03*
X86970Y-43818D03*
X86470Y-43818D03*
X85970Y-43818D03*
X85470Y-43818D03*
X84970Y-43818D03*
X84470Y-43818D03*
X78958Y-45944D03*
X79458Y-45944D03*
X79958Y-45944D03*
X80458Y-45944D03*
X80958Y-45944D03*
X81458Y-45944D03*
X81958Y-45944D03*
X82458Y-45944D03*
X82458Y-43818D03*
X81958Y-43818D03*
X81458Y-43818D03*
X80958Y-43818D03*
X80458Y-43818D03*
X79958Y-43818D03*
X79458Y-43818D03*
X78958Y-43818D03*
G54D18*
X62150Y-43700D03*
X62400Y-45250D03*
X63450Y-47900D03*
X64100Y-49450D03*
X63000Y-35800D03*
X62600Y-37250D03*
X62100Y-40500D03*
X62050Y-42100D03*
X62150Y-38800D03*
X62900Y-46500D03*
M02*
