G04 (created by PCBNEW (2013-07-07 BZR 4022)-stable) date 4/28/2015 8:48:13 PM*
%MOIN*%
G04 Gerber Fmt 3.4, Leading zero omitted, Abs format*
%FSLAX34Y34*%
G01*
G70*
G90*
G04 APERTURE LIST*
%ADD10C,0.00590551*%
%ADD11R,0.06X0.06*%
%ADD12C,0.06*%
%ADD13C,0.035*%
%ADD14C,0.01*%
%ADD15C,0.02*%
G04 APERTURE END LIST*
G54D10*
G54D11*
X78150Y-26050D03*
G54D12*
X78150Y-25050D03*
X79150Y-26050D03*
X79150Y-25050D03*
X80150Y-26050D03*
X80150Y-25050D03*
G54D11*
X91650Y-34450D03*
G54D12*
X92650Y-34450D03*
G54D11*
X69500Y-37900D03*
G54D12*
X69500Y-38900D03*
X69500Y-39900D03*
G54D11*
X71500Y-37800D03*
G54D12*
X72500Y-37800D03*
X73500Y-37800D03*
G54D11*
X73500Y-40150D03*
G54D12*
X72500Y-40150D03*
X71500Y-40150D03*
G54D11*
X62150Y-43700D03*
X62400Y-45250D03*
X63450Y-47900D03*
X64100Y-49450D03*
X63000Y-35800D03*
X62600Y-37250D03*
X62100Y-40500D03*
X62050Y-42100D03*
X62150Y-38800D03*
X62900Y-46500D03*
G54D13*
X88950Y-45450D03*
X90150Y-46150D03*
X66250Y-35200D03*
X70650Y-27600D03*
X70150Y-42000D03*
X67750Y-42200D03*
X71600Y-47300D03*
X68000Y-47400D03*
X75200Y-39500D03*
X71750Y-38900D03*
X67350Y-32900D03*
X69200Y-45150D03*
X70300Y-45150D03*
X71250Y-44400D03*
X67200Y-39000D03*
X69600Y-46000D03*
X77000Y-35400D03*
X69450Y-40700D03*
X69550Y-42550D03*
X67400Y-42850D03*
X75950Y-42700D03*
X70700Y-42800D03*
X69950Y-46900D03*
X67700Y-46950D03*
X70850Y-35450D03*
X67700Y-41450D03*
X69900Y-41550D03*
X70950Y-41600D03*
X76950Y-44500D03*
X63400Y-44450D03*
X72300Y-50050D03*
X73250Y-49050D03*
X77450Y-48100D03*
X83250Y-48200D03*
X82050Y-44500D03*
X76673Y-31496D03*
X75688Y-31496D03*
X76050Y-41400D03*
X74250Y-42200D03*
X80050Y-43050D03*
X80450Y-45200D03*
X88550Y-44850D03*
X85700Y-43100D03*
X72700Y-50650D03*
X71950Y-46900D03*
X75700Y-37150D03*
X71600Y-41300D03*
X80950Y-46600D03*
X85450Y-55100D03*
X81450Y-46600D03*
X88550Y-54350D03*
X81950Y-46600D03*
X88500Y-53350D03*
X70000Y-29250D03*
X77100Y-31000D03*
X80200Y-31000D03*
X84950Y-43100D03*
X72750Y-29250D03*
X84500Y-46700D03*
X75450Y-29300D03*
X84950Y-46700D03*
X85500Y-46700D03*
X78200Y-29300D03*
X81350Y-29300D03*
X85950Y-46700D03*
X84150Y-29250D03*
X86450Y-46700D03*
X86850Y-29300D03*
X86950Y-46700D03*
X89600Y-29300D03*
X87450Y-46700D03*
X69450Y-53650D03*
X79450Y-43050D03*
X78950Y-46600D03*
X72650Y-54300D03*
X79450Y-46600D03*
X75950Y-55100D03*
X79950Y-46600D03*
X79200Y-55850D03*
X80450Y-46600D03*
X82300Y-55850D03*
X77750Y-43900D03*
X77800Y-45350D03*
X84150Y-42300D03*
X84300Y-43100D03*
X87400Y-43050D03*
X87550Y-40400D03*
X73550Y-44650D03*
X76450Y-43050D03*
G54D14*
X90150Y-46150D02*
X89650Y-46150D01*
X89650Y-46150D02*
X88950Y-45450D01*
X78150Y-26050D02*
X76112Y-27600D01*
X66250Y-40700D02*
X67750Y-42200D01*
X66250Y-35200D02*
X66250Y-40700D01*
X76112Y-27600D02*
X70650Y-27600D01*
X67950Y-42000D02*
X70150Y-42000D01*
X67750Y-42200D02*
X67950Y-42000D01*
X71500Y-47400D02*
X71600Y-47300D01*
X68000Y-47400D02*
X71500Y-47400D01*
X72350Y-39500D02*
X75200Y-39500D01*
X71750Y-38900D02*
X72350Y-39500D01*
X62150Y-43700D02*
X62500Y-43700D01*
X65600Y-34650D02*
X67350Y-32900D01*
X65600Y-36400D02*
X65600Y-34650D01*
X63400Y-38600D02*
X65600Y-36400D01*
X63400Y-42800D02*
X63400Y-38600D01*
X62500Y-43700D02*
X63400Y-42800D01*
X67750Y-43700D02*
X62150Y-43700D01*
X69200Y-45150D02*
X67750Y-43700D01*
X70500Y-45150D02*
X70300Y-45150D01*
X71250Y-44400D02*
X70500Y-45150D01*
X67850Y-41050D02*
X70550Y-41050D01*
X67200Y-40400D02*
X67850Y-41050D01*
X67200Y-39000D02*
X67200Y-40400D01*
X69600Y-43400D02*
X69600Y-46000D01*
X70550Y-42150D02*
X69600Y-43400D01*
X70550Y-39450D02*
X70550Y-41050D01*
X70550Y-41050D02*
X70550Y-42150D01*
X71300Y-38500D02*
X70550Y-39450D01*
X73700Y-38500D02*
X71300Y-38500D01*
X77000Y-35400D02*
X73700Y-38500D01*
X79150Y-26050D02*
X76662Y-28050D01*
X68700Y-40700D02*
X69450Y-40700D01*
X68000Y-40000D02*
X68700Y-40700D01*
X68000Y-28050D02*
X68000Y-40000D01*
X76662Y-28050D02*
X68000Y-28050D01*
X67700Y-42550D02*
X69550Y-42550D01*
X67400Y-42850D02*
X67700Y-42550D01*
X70800Y-42700D02*
X75950Y-42700D01*
X70700Y-42800D02*
X70800Y-42700D01*
X67750Y-46900D02*
X69950Y-46900D01*
X67700Y-46950D02*
X67750Y-46900D01*
X69500Y-37900D02*
X69500Y-36800D01*
X69500Y-36800D02*
X70850Y-35450D01*
X69800Y-41450D02*
X67700Y-41450D01*
X69900Y-41550D02*
X69800Y-41450D01*
X71869Y-42519D02*
X70950Y-41600D01*
X74730Y-42519D02*
X71869Y-42519D01*
X75050Y-42200D02*
X74730Y-42519D01*
X76400Y-42200D02*
X75050Y-42200D01*
X77000Y-42800D02*
X76400Y-42200D01*
X77000Y-44450D02*
X77000Y-42800D01*
X76950Y-44500D02*
X77000Y-44450D01*
X69000Y-50050D02*
X63400Y-44450D01*
X72300Y-50050D02*
X69000Y-50050D01*
X76500Y-49050D02*
X73250Y-49050D01*
X77450Y-48100D02*
X76500Y-49050D01*
X83250Y-45700D02*
X83250Y-48200D01*
X82050Y-44500D02*
X83250Y-45700D01*
X75688Y-31496D02*
X76673Y-31496D01*
X75050Y-41400D02*
X76050Y-41400D01*
X74250Y-42200D02*
X75050Y-41400D01*
X80050Y-44800D02*
X80050Y-43050D01*
X80450Y-45200D02*
X80050Y-44800D01*
X87450Y-44850D02*
X88550Y-44850D01*
X85700Y-43100D02*
X87450Y-44850D01*
X72700Y-47650D02*
X72700Y-50650D01*
X71950Y-46900D02*
X72700Y-47650D01*
X75700Y-40250D02*
X75700Y-37150D01*
X74650Y-41300D02*
X75700Y-40250D01*
X71600Y-41300D02*
X74650Y-41300D01*
X80950Y-54800D02*
X80950Y-46600D01*
X81250Y-55100D02*
X80950Y-54800D01*
X85450Y-55100D02*
X81250Y-55100D01*
X81450Y-54300D02*
X81450Y-46600D01*
X88500Y-54300D02*
X81450Y-54300D01*
X88550Y-54350D02*
X88500Y-54300D01*
X81950Y-53350D02*
X81950Y-46600D01*
X88500Y-53350D02*
X81950Y-53350D01*
X70750Y-30000D02*
X70000Y-29250D01*
X76100Y-30000D02*
X70750Y-30000D01*
X77100Y-31000D02*
X76100Y-30000D01*
X80200Y-37050D02*
X80200Y-31000D01*
X81450Y-38300D02*
X80200Y-37050D01*
X81450Y-39000D02*
X81450Y-38300D01*
X84950Y-42500D02*
X81450Y-39000D01*
X84950Y-43100D02*
X84950Y-42500D01*
X73150Y-29650D02*
X72750Y-29250D01*
X77550Y-29650D02*
X73150Y-29650D01*
X77550Y-39400D02*
X77550Y-29650D01*
X84500Y-46350D02*
X77550Y-39400D01*
X84500Y-46700D02*
X84500Y-46350D01*
X77700Y-29300D02*
X75450Y-29300D01*
X77850Y-29450D02*
X77700Y-29300D01*
X77850Y-39350D02*
X77850Y-29450D01*
X84950Y-46450D02*
X77850Y-39350D01*
X84950Y-46550D02*
X84950Y-46450D01*
X84950Y-46700D02*
X84950Y-46550D01*
X78200Y-39400D02*
X85500Y-46700D01*
X78200Y-29300D02*
X78200Y-39400D01*
X78550Y-29300D02*
X81350Y-29300D01*
X78550Y-39300D02*
X78550Y-29300D01*
X85950Y-46700D02*
X78550Y-39300D01*
X83750Y-29650D02*
X84150Y-29250D01*
X78950Y-29650D02*
X83750Y-29650D01*
X78950Y-39200D02*
X78950Y-29650D01*
X86450Y-46700D02*
X78950Y-39200D01*
X86100Y-30050D02*
X86850Y-29300D01*
X79300Y-30050D02*
X86100Y-30050D01*
X79300Y-39100D02*
X79300Y-30050D01*
X86900Y-46700D02*
X79300Y-39100D01*
X86950Y-46700D02*
X86900Y-46700D01*
X88400Y-30500D02*
X89600Y-29300D01*
X79800Y-30500D02*
X88400Y-30500D01*
X79750Y-30450D02*
X79800Y-30500D01*
X79750Y-39000D02*
X79750Y-30450D01*
X87450Y-46700D02*
X79750Y-39000D01*
X78350Y-53650D02*
X69450Y-53650D01*
X78450Y-53550D02*
X78350Y-53650D01*
X78450Y-43150D02*
X78450Y-53550D01*
X78550Y-43050D02*
X78450Y-43150D01*
X79450Y-43050D02*
X78550Y-43050D01*
X78950Y-54300D02*
X78950Y-46600D01*
X72650Y-54300D02*
X78950Y-54300D01*
X79450Y-55100D02*
X79450Y-46600D01*
X75950Y-55100D02*
X79450Y-55100D01*
X79950Y-55150D02*
X79950Y-46600D01*
X79250Y-55850D02*
X79950Y-55150D01*
X79200Y-55850D02*
X79250Y-55850D01*
X80450Y-55100D02*
X80450Y-46600D01*
X81200Y-55850D02*
X80450Y-55100D01*
X82300Y-55850D02*
X81200Y-55850D01*
G54D15*
X77750Y-45300D02*
X77750Y-43900D01*
X77800Y-45350D02*
X77750Y-45300D01*
X84150Y-42950D02*
X84150Y-42300D01*
X84300Y-43100D02*
X84150Y-42950D01*
X87400Y-40550D02*
X87400Y-43050D01*
X87550Y-40400D02*
X87400Y-40550D01*
X73700Y-44800D02*
X73550Y-44650D01*
X76450Y-44800D02*
X73700Y-44800D01*
X76450Y-43050D02*
X76450Y-44800D01*
G54D10*
G36*
X96949Y-43152D02*
X96289Y-46577D01*
X95142Y-49404D01*
X95142Y-42124D01*
X95142Y-40392D01*
X95125Y-40309D01*
X95093Y-40232D01*
X95047Y-40162D01*
X94988Y-40103D01*
X94919Y-40056D01*
X94841Y-40024D01*
X94759Y-40007D01*
X94676Y-40006D01*
X94593Y-40022D01*
X94516Y-40053D01*
X94446Y-40099D01*
X94386Y-40158D01*
X94339Y-40227D01*
X94306Y-40304D01*
X94288Y-40386D01*
X94287Y-40469D01*
X94302Y-40552D01*
X94333Y-40630D01*
X94378Y-40700D01*
X94436Y-40760D01*
X94505Y-40808D01*
X94582Y-40842D01*
X94664Y-40860D01*
X94747Y-40861D01*
X94830Y-40847D01*
X94908Y-40816D01*
X94979Y-40772D01*
X95039Y-40714D01*
X95088Y-40645D01*
X95122Y-40569D01*
X95140Y-40487D01*
X95142Y-40392D01*
X95142Y-42124D01*
X95125Y-42041D01*
X95093Y-41964D01*
X95047Y-41894D01*
X94988Y-41835D01*
X94919Y-41788D01*
X94841Y-41756D01*
X94759Y-41739D01*
X94676Y-41738D01*
X94593Y-41754D01*
X94516Y-41785D01*
X94446Y-41831D01*
X94386Y-41890D01*
X94339Y-41959D01*
X94306Y-42036D01*
X94288Y-42118D01*
X94287Y-42201D01*
X94302Y-42284D01*
X94333Y-42362D01*
X94378Y-42432D01*
X94436Y-42492D01*
X94505Y-42540D01*
X94582Y-42574D01*
X94664Y-42592D01*
X94747Y-42593D01*
X94830Y-42579D01*
X94908Y-42548D01*
X94979Y-42504D01*
X95039Y-42446D01*
X95088Y-42377D01*
X95122Y-42301D01*
X95140Y-42219D01*
X95142Y-42124D01*
X95142Y-49404D01*
X94975Y-49813D01*
X93100Y-52668D01*
X93100Y-34492D01*
X93099Y-34404D01*
X93083Y-34320D01*
X93029Y-34282D01*
X92862Y-34450D01*
X93029Y-34617D01*
X93083Y-34579D01*
X93100Y-34492D01*
X93100Y-52668D01*
X93058Y-52731D01*
X92817Y-52977D01*
X92817Y-34829D01*
X92817Y-34070D01*
X92779Y-34016D01*
X92692Y-33999D01*
X92604Y-34000D01*
X92520Y-34016D01*
X92482Y-34070D01*
X92650Y-34237D01*
X92817Y-34070D01*
X92817Y-34829D01*
X92650Y-34662D01*
X92482Y-34829D01*
X92520Y-34883D01*
X92607Y-34900D01*
X92695Y-34899D01*
X92779Y-34883D01*
X92817Y-34829D01*
X92817Y-52977D01*
X92437Y-53363D01*
X92437Y-34450D01*
X92270Y-34282D01*
X92216Y-34320D01*
X92200Y-34406D01*
X92200Y-34125D01*
X92190Y-34077D01*
X92171Y-34032D01*
X92144Y-33991D01*
X92110Y-33956D01*
X92069Y-33929D01*
X92024Y-33910D01*
X91976Y-33900D01*
X91927Y-33899D01*
X91325Y-33899D01*
X91277Y-33909D01*
X91232Y-33928D01*
X91191Y-33955D01*
X91156Y-33989D01*
X91129Y-34030D01*
X91110Y-34075D01*
X91100Y-34123D01*
X91099Y-34172D01*
X91099Y-34774D01*
X91109Y-34822D01*
X91128Y-34867D01*
X91155Y-34908D01*
X91189Y-34943D01*
X91230Y-34970D01*
X91275Y-34989D01*
X91323Y-34999D01*
X91372Y-35000D01*
X91974Y-35000D01*
X92022Y-34990D01*
X92067Y-34971D01*
X92108Y-34944D01*
X92143Y-34910D01*
X92170Y-34869D01*
X92189Y-34824D01*
X92199Y-34776D01*
X92200Y-34727D01*
X92200Y-34493D01*
X92200Y-34495D01*
X92216Y-34579D01*
X92270Y-34617D01*
X92437Y-34450D01*
X92437Y-53363D01*
X90604Y-55228D01*
X90575Y-55253D01*
X90575Y-46108D01*
X90558Y-46026D01*
X90527Y-45949D01*
X90480Y-45880D01*
X90422Y-45820D01*
X90353Y-45774D01*
X90276Y-45742D01*
X90194Y-45725D01*
X90111Y-45724D01*
X90029Y-45740D01*
X90025Y-45742D01*
X90025Y-29258D01*
X90008Y-29176D01*
X89977Y-29099D01*
X89930Y-29030D01*
X89872Y-28970D01*
X89803Y-28924D01*
X89726Y-28892D01*
X89644Y-28875D01*
X89561Y-28874D01*
X89479Y-28890D01*
X89402Y-28921D01*
X89332Y-28967D01*
X89272Y-29025D01*
X89225Y-29094D01*
X89192Y-29170D01*
X89175Y-29252D01*
X89174Y-29300D01*
X88275Y-30200D01*
X86374Y-30200D01*
X86849Y-29725D01*
X86882Y-29725D01*
X86964Y-29711D01*
X87042Y-29681D01*
X87112Y-29636D01*
X87173Y-29579D01*
X87221Y-29510D01*
X87255Y-29434D01*
X87273Y-29353D01*
X87275Y-29258D01*
X87258Y-29176D01*
X87227Y-29099D01*
X87180Y-29030D01*
X87122Y-28970D01*
X87053Y-28924D01*
X86976Y-28892D01*
X86894Y-28875D01*
X86811Y-28874D01*
X86729Y-28890D01*
X86652Y-28921D01*
X86582Y-28967D01*
X86522Y-29025D01*
X86475Y-29094D01*
X86442Y-29170D01*
X86425Y-29252D01*
X86424Y-29300D01*
X85975Y-29750D01*
X84074Y-29750D01*
X84149Y-29675D01*
X84182Y-29675D01*
X84264Y-29661D01*
X84342Y-29631D01*
X84412Y-29586D01*
X84473Y-29529D01*
X84521Y-29460D01*
X84555Y-29384D01*
X84573Y-29303D01*
X84575Y-29208D01*
X84558Y-29126D01*
X84527Y-29049D01*
X84480Y-28980D01*
X84422Y-28920D01*
X84353Y-28874D01*
X84276Y-28842D01*
X84194Y-28825D01*
X84111Y-28824D01*
X84029Y-28840D01*
X83952Y-28871D01*
X83882Y-28917D01*
X83822Y-28975D01*
X83775Y-29044D01*
X83742Y-29120D01*
X83725Y-29202D01*
X83724Y-29250D01*
X83625Y-29350D01*
X81773Y-29350D01*
X81775Y-29258D01*
X81758Y-29176D01*
X81727Y-29099D01*
X81680Y-29030D01*
X81622Y-28970D01*
X81553Y-28924D01*
X81476Y-28892D01*
X81394Y-28875D01*
X81311Y-28874D01*
X81229Y-28890D01*
X81152Y-28921D01*
X81082Y-28967D01*
X81048Y-29000D01*
X78550Y-29000D01*
X78521Y-29002D01*
X78505Y-29004D01*
X78472Y-28970D01*
X78403Y-28924D01*
X78326Y-28892D01*
X78244Y-28875D01*
X78161Y-28874D01*
X78079Y-28890D01*
X78002Y-28921D01*
X77932Y-28967D01*
X77872Y-29025D01*
X77858Y-29046D01*
X77842Y-29037D01*
X77818Y-29024D01*
X77816Y-29023D01*
X77815Y-29023D01*
X77788Y-29014D01*
X77762Y-29006D01*
X77760Y-29006D01*
X77759Y-29005D01*
X77731Y-29003D01*
X77704Y-29000D01*
X77701Y-29000D01*
X77701Y-29000D01*
X77700Y-29000D01*
X77700Y-29000D01*
X75751Y-29000D01*
X75722Y-28970D01*
X75653Y-28924D01*
X75576Y-28892D01*
X75494Y-28875D01*
X75411Y-28874D01*
X75329Y-28890D01*
X75252Y-28921D01*
X75182Y-28967D01*
X75122Y-29025D01*
X75075Y-29094D01*
X75042Y-29170D01*
X75025Y-29252D01*
X75024Y-29335D01*
X75027Y-29350D01*
X73274Y-29350D01*
X73174Y-29250D01*
X73175Y-29208D01*
X73158Y-29126D01*
X73127Y-29049D01*
X73080Y-28980D01*
X73022Y-28920D01*
X72953Y-28874D01*
X72876Y-28842D01*
X72794Y-28825D01*
X72711Y-28824D01*
X72629Y-28840D01*
X72552Y-28871D01*
X72482Y-28917D01*
X72422Y-28975D01*
X72375Y-29044D01*
X72342Y-29120D01*
X72325Y-29202D01*
X72324Y-29285D01*
X72339Y-29367D01*
X72370Y-29445D01*
X72415Y-29515D01*
X72473Y-29575D01*
X72541Y-29622D01*
X72618Y-29656D01*
X72699Y-29674D01*
X72750Y-29675D01*
X72775Y-29700D01*
X70874Y-29700D01*
X70424Y-29250D01*
X70425Y-29208D01*
X70408Y-29126D01*
X70377Y-29049D01*
X70330Y-28980D01*
X70272Y-28920D01*
X70203Y-28874D01*
X70126Y-28842D01*
X70044Y-28825D01*
X69961Y-28824D01*
X69879Y-28840D01*
X69802Y-28871D01*
X69732Y-28917D01*
X69672Y-28975D01*
X69625Y-29044D01*
X69592Y-29120D01*
X69575Y-29202D01*
X69574Y-29285D01*
X69589Y-29367D01*
X69620Y-29445D01*
X69665Y-29515D01*
X69723Y-29575D01*
X69791Y-29622D01*
X69868Y-29656D01*
X69949Y-29674D01*
X70000Y-29675D01*
X70537Y-30212D01*
X70559Y-30229D01*
X70580Y-30247D01*
X70581Y-30248D01*
X70583Y-30249D01*
X70607Y-30262D01*
X70631Y-30275D01*
X70633Y-30276D01*
X70634Y-30276D01*
X70661Y-30285D01*
X70687Y-30293D01*
X70689Y-30293D01*
X70690Y-30294D01*
X70718Y-30296D01*
X70745Y-30299D01*
X70748Y-30299D01*
X70748Y-30299D01*
X70749Y-30299D01*
X70750Y-30300D01*
X75975Y-30300D01*
X76674Y-30999D01*
X76674Y-31035D01*
X76689Y-31117D01*
X76720Y-31195D01*
X76765Y-31265D01*
X76823Y-31325D01*
X76891Y-31372D01*
X76968Y-31406D01*
X77049Y-31424D01*
X77132Y-31425D01*
X77214Y-31411D01*
X77250Y-31397D01*
X77250Y-35055D01*
X77203Y-35024D01*
X77126Y-34992D01*
X77044Y-34975D01*
X76961Y-34974D01*
X76879Y-34990D01*
X76802Y-35021D01*
X76732Y-35067D01*
X76672Y-35125D01*
X76625Y-35194D01*
X76592Y-35270D01*
X76575Y-35352D01*
X76575Y-35388D01*
X74049Y-37759D01*
X74050Y-37746D01*
X74029Y-37640D01*
X73987Y-37540D01*
X73928Y-37450D01*
X73852Y-37374D01*
X73762Y-37313D01*
X73663Y-37272D01*
X73557Y-37250D01*
X73449Y-37249D01*
X73343Y-37269D01*
X73243Y-37310D01*
X73153Y-37369D01*
X73076Y-37444D01*
X73015Y-37533D01*
X73000Y-37570D01*
X72987Y-37540D01*
X72928Y-37450D01*
X72852Y-37374D01*
X72762Y-37313D01*
X72663Y-37272D01*
X72557Y-37250D01*
X72449Y-37249D01*
X72343Y-37269D01*
X72243Y-37310D01*
X72153Y-37369D01*
X72076Y-37444D01*
X72050Y-37483D01*
X72050Y-37475D01*
X72040Y-37427D01*
X72021Y-37382D01*
X71994Y-37341D01*
X71960Y-37306D01*
X71919Y-37279D01*
X71874Y-37260D01*
X71826Y-37250D01*
X71777Y-37249D01*
X71175Y-37249D01*
X71127Y-37259D01*
X71082Y-37278D01*
X71041Y-37305D01*
X71006Y-37339D01*
X70979Y-37380D01*
X70960Y-37425D01*
X70950Y-37473D01*
X70949Y-37522D01*
X70949Y-38124D01*
X70959Y-38172D01*
X70978Y-38217D01*
X71005Y-38258D01*
X71039Y-38293D01*
X71066Y-38311D01*
X71064Y-38314D01*
X70314Y-39264D01*
X70309Y-39272D01*
X70302Y-39280D01*
X70293Y-39297D01*
X70282Y-39313D01*
X70279Y-39322D01*
X70274Y-39331D01*
X70268Y-39350D01*
X70261Y-39367D01*
X70259Y-39377D01*
X70256Y-39387D01*
X70254Y-39406D01*
X70251Y-39425D01*
X70251Y-39435D01*
X70250Y-39445D01*
X70250Y-39450D01*
X70250Y-40750D01*
X69873Y-40750D01*
X69875Y-40658D01*
X69858Y-40576D01*
X69827Y-40499D01*
X69780Y-40430D01*
X69745Y-40394D01*
X69749Y-40393D01*
X69840Y-40335D01*
X69918Y-40261D01*
X69980Y-40172D01*
X70024Y-40074D01*
X70048Y-39969D01*
X70050Y-39846D01*
X70029Y-39740D01*
X69987Y-39640D01*
X69928Y-39550D01*
X69852Y-39474D01*
X69762Y-39413D01*
X69730Y-39400D01*
X69749Y-39393D01*
X69840Y-39335D01*
X69918Y-39261D01*
X69980Y-39172D01*
X70024Y-39074D01*
X70048Y-38969D01*
X70050Y-38846D01*
X70029Y-38740D01*
X69987Y-38640D01*
X69928Y-38550D01*
X69852Y-38474D01*
X69816Y-38450D01*
X69824Y-38450D01*
X69872Y-38440D01*
X69917Y-38421D01*
X69958Y-38394D01*
X69993Y-38360D01*
X70020Y-38319D01*
X70039Y-38274D01*
X70049Y-38226D01*
X70050Y-38177D01*
X70050Y-37575D01*
X70040Y-37527D01*
X70021Y-37482D01*
X69994Y-37441D01*
X69960Y-37406D01*
X69919Y-37379D01*
X69874Y-37360D01*
X69826Y-37350D01*
X69800Y-37349D01*
X69800Y-36924D01*
X70849Y-35875D01*
X70882Y-35875D01*
X70964Y-35861D01*
X71042Y-35831D01*
X71112Y-35786D01*
X71173Y-35729D01*
X71221Y-35660D01*
X71255Y-35584D01*
X71273Y-35503D01*
X71275Y-35408D01*
X71258Y-35326D01*
X71227Y-35249D01*
X71180Y-35180D01*
X71122Y-35120D01*
X71053Y-35074D01*
X70976Y-35042D01*
X70894Y-35025D01*
X70811Y-35024D01*
X70729Y-35040D01*
X70652Y-35071D01*
X70582Y-35117D01*
X70522Y-35175D01*
X70475Y-35244D01*
X70442Y-35320D01*
X70425Y-35402D01*
X70424Y-35450D01*
X69287Y-36587D01*
X69270Y-36609D01*
X69252Y-36630D01*
X69251Y-36631D01*
X69250Y-36633D01*
X69237Y-36657D01*
X69224Y-36681D01*
X69223Y-36683D01*
X69223Y-36684D01*
X69214Y-36711D01*
X69206Y-36737D01*
X69206Y-36739D01*
X69205Y-36740D01*
X69203Y-36768D01*
X69200Y-36795D01*
X69200Y-36798D01*
X69200Y-36798D01*
X69200Y-36799D01*
X69200Y-36800D01*
X69200Y-37349D01*
X69175Y-37349D01*
X69127Y-37359D01*
X69082Y-37378D01*
X69041Y-37405D01*
X69006Y-37439D01*
X68979Y-37480D01*
X68960Y-37525D01*
X68950Y-37573D01*
X68949Y-37622D01*
X68949Y-38224D01*
X68959Y-38272D01*
X68978Y-38317D01*
X69005Y-38358D01*
X69039Y-38393D01*
X69080Y-38420D01*
X69125Y-38439D01*
X69173Y-38449D01*
X69183Y-38449D01*
X69153Y-38469D01*
X69076Y-38544D01*
X69015Y-38633D01*
X68973Y-38732D01*
X68950Y-38838D01*
X68949Y-38946D01*
X68968Y-39052D01*
X69008Y-39152D01*
X69066Y-39243D01*
X69141Y-39320D01*
X69230Y-39382D01*
X69269Y-39399D01*
X69243Y-39410D01*
X69153Y-39469D01*
X69076Y-39544D01*
X69015Y-39633D01*
X68973Y-39732D01*
X68950Y-39838D01*
X68949Y-39946D01*
X68968Y-40052D01*
X69008Y-40152D01*
X69066Y-40243D01*
X69141Y-40320D01*
X69195Y-40358D01*
X69182Y-40367D01*
X69148Y-40400D01*
X68824Y-40400D01*
X68300Y-39875D01*
X68300Y-28350D01*
X76662Y-28350D01*
X76674Y-28348D01*
X76685Y-28349D01*
X76703Y-28346D01*
X76720Y-28344D01*
X76731Y-28340D01*
X76743Y-28338D01*
X76759Y-28332D01*
X76776Y-28327D01*
X76787Y-28321D01*
X76797Y-28317D01*
X76812Y-28308D01*
X76828Y-28299D01*
X76837Y-28292D01*
X76847Y-28286D01*
X76850Y-28283D01*
X78976Y-26574D01*
X78979Y-26575D01*
X79084Y-26598D01*
X79192Y-26601D01*
X79298Y-26582D01*
X79399Y-26543D01*
X79490Y-26485D01*
X79568Y-26411D01*
X79630Y-26322D01*
X79649Y-26280D01*
X79658Y-26302D01*
X79716Y-26393D01*
X79791Y-26470D01*
X79880Y-26532D01*
X79979Y-26575D01*
X80084Y-26598D01*
X80192Y-26601D01*
X80298Y-26582D01*
X80399Y-26543D01*
X80490Y-26485D01*
X80568Y-26411D01*
X80630Y-26322D01*
X80674Y-26224D01*
X80698Y-26119D01*
X80700Y-25996D01*
X80679Y-25890D01*
X80637Y-25790D01*
X80600Y-25733D01*
X80600Y-25092D01*
X80599Y-25004D01*
X80583Y-24920D01*
X80529Y-24882D01*
X80362Y-25050D01*
X80529Y-25217D01*
X80583Y-25179D01*
X80600Y-25092D01*
X80600Y-25733D01*
X80578Y-25700D01*
X80502Y-25624D01*
X80412Y-25563D01*
X80313Y-25522D01*
X80207Y-25500D01*
X80155Y-25500D01*
X80195Y-25499D01*
X80279Y-25483D01*
X80317Y-25429D01*
X80317Y-24670D01*
X80279Y-24616D01*
X80192Y-24599D01*
X80104Y-24600D01*
X80020Y-24616D01*
X79982Y-24670D01*
X80150Y-24837D01*
X80317Y-24670D01*
X80317Y-25429D01*
X80150Y-25262D01*
X79982Y-25429D01*
X80020Y-25483D01*
X80104Y-25499D01*
X80099Y-25499D01*
X79993Y-25519D01*
X79893Y-25560D01*
X79803Y-25619D01*
X79726Y-25694D01*
X79665Y-25783D01*
X79650Y-25820D01*
X79637Y-25790D01*
X79578Y-25700D01*
X79502Y-25624D01*
X79412Y-25563D01*
X79380Y-25550D01*
X79399Y-25543D01*
X79490Y-25485D01*
X79568Y-25411D01*
X79630Y-25322D01*
X79674Y-25224D01*
X79698Y-25119D01*
X79699Y-25008D01*
X79700Y-25095D01*
X79716Y-25179D01*
X79770Y-25217D01*
X79937Y-25050D01*
X79770Y-24882D01*
X79716Y-24920D01*
X79699Y-25007D01*
X79700Y-24996D01*
X79679Y-24890D01*
X79637Y-24790D01*
X79578Y-24700D01*
X79502Y-24624D01*
X79412Y-24563D01*
X79313Y-24522D01*
X79207Y-24500D01*
X79099Y-24499D01*
X78993Y-24519D01*
X78893Y-24560D01*
X78803Y-24619D01*
X78726Y-24694D01*
X78665Y-24783D01*
X78650Y-24820D01*
X78637Y-24790D01*
X78578Y-24700D01*
X78502Y-24624D01*
X78412Y-24563D01*
X78313Y-24522D01*
X78207Y-24500D01*
X78099Y-24499D01*
X77993Y-24519D01*
X77893Y-24560D01*
X77803Y-24619D01*
X77726Y-24694D01*
X77665Y-24783D01*
X77623Y-24882D01*
X77600Y-24988D01*
X77599Y-25096D01*
X77618Y-25202D01*
X77658Y-25302D01*
X77716Y-25393D01*
X77791Y-25470D01*
X77833Y-25499D01*
X77825Y-25499D01*
X77777Y-25509D01*
X77732Y-25528D01*
X77691Y-25555D01*
X77656Y-25589D01*
X77629Y-25630D01*
X77610Y-25675D01*
X77600Y-25723D01*
X77599Y-25772D01*
X77599Y-26089D01*
X76011Y-27300D01*
X70951Y-27300D01*
X70922Y-27270D01*
X70853Y-27224D01*
X70776Y-27192D01*
X70694Y-27175D01*
X70611Y-27174D01*
X70529Y-27190D01*
X70452Y-27221D01*
X70382Y-27267D01*
X70322Y-27325D01*
X70275Y-27394D01*
X70242Y-27470D01*
X70225Y-27552D01*
X70224Y-27635D01*
X70239Y-27717D01*
X70252Y-27750D01*
X68000Y-27750D01*
X67971Y-27752D01*
X67943Y-27755D01*
X67942Y-27755D01*
X67941Y-27755D01*
X67914Y-27763D01*
X67887Y-27771D01*
X67886Y-27772D01*
X67885Y-27772D01*
X67860Y-27785D01*
X67835Y-27798D01*
X67834Y-27799D01*
X67833Y-27800D01*
X67812Y-27817D01*
X67790Y-27835D01*
X67789Y-27836D01*
X67788Y-27837D01*
X67770Y-27858D01*
X67752Y-27880D01*
X67751Y-27881D01*
X67751Y-27882D01*
X67737Y-27907D01*
X67724Y-27931D01*
X67723Y-27932D01*
X67723Y-27933D01*
X67715Y-27960D01*
X67706Y-27987D01*
X67706Y-27988D01*
X67706Y-27989D01*
X67703Y-28017D01*
X67700Y-28045D01*
X67700Y-28047D01*
X67700Y-28047D01*
X67700Y-28047D01*
X67700Y-28050D01*
X67700Y-32658D01*
X67680Y-32630D01*
X67622Y-32570D01*
X67553Y-32524D01*
X67476Y-32492D01*
X67394Y-32475D01*
X67311Y-32474D01*
X67229Y-32490D01*
X67152Y-32521D01*
X67082Y-32567D01*
X67022Y-32625D01*
X66975Y-32694D01*
X66942Y-32770D01*
X66925Y-32852D01*
X66924Y-32900D01*
X65387Y-34437D01*
X65370Y-34459D01*
X65352Y-34480D01*
X65351Y-34481D01*
X65350Y-34483D01*
X65337Y-34507D01*
X65324Y-34531D01*
X65323Y-34533D01*
X65323Y-34534D01*
X65314Y-34561D01*
X65306Y-34587D01*
X65306Y-34589D01*
X65305Y-34590D01*
X65303Y-34618D01*
X65300Y-34645D01*
X65300Y-34648D01*
X65300Y-34648D01*
X65300Y-34649D01*
X65300Y-34650D01*
X65300Y-36275D01*
X63550Y-38025D01*
X63550Y-36077D01*
X63550Y-35475D01*
X63540Y-35427D01*
X63521Y-35382D01*
X63494Y-35341D01*
X63460Y-35306D01*
X63419Y-35279D01*
X63374Y-35260D01*
X63326Y-35250D01*
X63277Y-35249D01*
X62675Y-35249D01*
X62627Y-35259D01*
X62582Y-35278D01*
X62541Y-35305D01*
X62506Y-35339D01*
X62479Y-35380D01*
X62460Y-35425D01*
X62450Y-35473D01*
X62449Y-35522D01*
X62449Y-36124D01*
X62459Y-36172D01*
X62478Y-36217D01*
X62505Y-36258D01*
X62539Y-36293D01*
X62580Y-36320D01*
X62625Y-36339D01*
X62673Y-36349D01*
X62722Y-36350D01*
X63324Y-36350D01*
X63372Y-36340D01*
X63417Y-36321D01*
X63458Y-36294D01*
X63493Y-36260D01*
X63520Y-36219D01*
X63539Y-36174D01*
X63549Y-36126D01*
X63550Y-36077D01*
X63550Y-38025D01*
X63187Y-38387D01*
X63170Y-38409D01*
X63152Y-38430D01*
X63151Y-38431D01*
X63150Y-38433D01*
X63150Y-38434D01*
X63150Y-37527D01*
X63150Y-36925D01*
X63140Y-36877D01*
X63121Y-36832D01*
X63094Y-36791D01*
X63060Y-36756D01*
X63019Y-36729D01*
X62974Y-36710D01*
X62926Y-36700D01*
X62877Y-36699D01*
X62275Y-36699D01*
X62227Y-36709D01*
X62182Y-36728D01*
X62141Y-36755D01*
X62106Y-36789D01*
X62079Y-36830D01*
X62060Y-36875D01*
X62050Y-36923D01*
X62049Y-36972D01*
X62049Y-37574D01*
X62059Y-37622D01*
X62078Y-37667D01*
X62105Y-37708D01*
X62139Y-37743D01*
X62180Y-37770D01*
X62225Y-37789D01*
X62273Y-37799D01*
X62322Y-37800D01*
X62924Y-37800D01*
X62972Y-37790D01*
X63017Y-37771D01*
X63058Y-37744D01*
X63093Y-37710D01*
X63120Y-37669D01*
X63139Y-37624D01*
X63149Y-37576D01*
X63150Y-37527D01*
X63150Y-38434D01*
X63137Y-38457D01*
X63124Y-38481D01*
X63123Y-38483D01*
X63123Y-38484D01*
X63114Y-38511D01*
X63106Y-38537D01*
X63106Y-38539D01*
X63105Y-38540D01*
X63103Y-38568D01*
X63100Y-38595D01*
X63100Y-38598D01*
X63100Y-38598D01*
X63100Y-38599D01*
X63100Y-38600D01*
X63100Y-42675D01*
X62650Y-43125D01*
X62650Y-40777D01*
X62650Y-40175D01*
X62640Y-40127D01*
X62621Y-40082D01*
X62600Y-40049D01*
X62600Y-39086D01*
X62600Y-38513D01*
X62599Y-38484D01*
X62593Y-38455D01*
X62582Y-38428D01*
X62566Y-38403D01*
X62545Y-38383D01*
X62520Y-38366D01*
X62493Y-38355D01*
X62464Y-38349D01*
X62337Y-38350D01*
X62300Y-38387D01*
X62300Y-38650D01*
X62562Y-38650D01*
X62600Y-38612D01*
X62600Y-38513D01*
X62600Y-39086D01*
X62600Y-38987D01*
X62562Y-38950D01*
X62300Y-38950D01*
X62300Y-39212D01*
X62337Y-39250D01*
X62464Y-39250D01*
X62493Y-39244D01*
X62520Y-39233D01*
X62545Y-39216D01*
X62566Y-39196D01*
X62582Y-39171D01*
X62593Y-39144D01*
X62599Y-39115D01*
X62600Y-39086D01*
X62600Y-40049D01*
X62594Y-40041D01*
X62560Y-40006D01*
X62519Y-39979D01*
X62474Y-39960D01*
X62426Y-39950D01*
X62377Y-39949D01*
X62000Y-39949D01*
X62000Y-39212D01*
X62000Y-38950D01*
X62000Y-38650D01*
X62000Y-38387D01*
X61962Y-38350D01*
X61835Y-38349D01*
X61806Y-38355D01*
X61779Y-38366D01*
X61754Y-38383D01*
X61733Y-38403D01*
X61717Y-38428D01*
X61706Y-38455D01*
X61700Y-38484D01*
X61699Y-38513D01*
X61700Y-38612D01*
X61737Y-38650D01*
X62000Y-38650D01*
X62000Y-38950D01*
X61737Y-38950D01*
X61700Y-38987D01*
X61699Y-39086D01*
X61700Y-39115D01*
X61706Y-39144D01*
X61717Y-39171D01*
X61733Y-39196D01*
X61754Y-39216D01*
X61779Y-39233D01*
X61806Y-39244D01*
X61835Y-39250D01*
X61962Y-39250D01*
X62000Y-39212D01*
X62000Y-39949D01*
X61775Y-39949D01*
X61727Y-39959D01*
X61682Y-39978D01*
X61641Y-40005D01*
X61606Y-40039D01*
X61579Y-40080D01*
X61560Y-40125D01*
X61550Y-40173D01*
X61549Y-40222D01*
X61549Y-40824D01*
X61559Y-40872D01*
X61578Y-40917D01*
X61605Y-40958D01*
X61639Y-40993D01*
X61680Y-41020D01*
X61725Y-41039D01*
X61773Y-41049D01*
X61822Y-41050D01*
X62424Y-41050D01*
X62472Y-41040D01*
X62517Y-41021D01*
X62558Y-40994D01*
X62593Y-40960D01*
X62620Y-40919D01*
X62639Y-40874D01*
X62649Y-40826D01*
X62650Y-40777D01*
X62650Y-43125D01*
X62600Y-43175D01*
X62600Y-42377D01*
X62600Y-41775D01*
X62590Y-41727D01*
X62571Y-41682D01*
X62544Y-41641D01*
X62510Y-41606D01*
X62469Y-41579D01*
X62424Y-41560D01*
X62376Y-41550D01*
X62327Y-41549D01*
X61725Y-41549D01*
X61677Y-41559D01*
X61632Y-41578D01*
X61591Y-41605D01*
X61556Y-41639D01*
X61529Y-41680D01*
X61510Y-41725D01*
X61500Y-41773D01*
X61499Y-41822D01*
X61499Y-42424D01*
X61509Y-42472D01*
X61528Y-42517D01*
X61555Y-42558D01*
X61589Y-42593D01*
X61630Y-42620D01*
X61675Y-42639D01*
X61723Y-42649D01*
X61772Y-42650D01*
X62374Y-42650D01*
X62422Y-42640D01*
X62467Y-42621D01*
X62508Y-42594D01*
X62543Y-42560D01*
X62570Y-42519D01*
X62589Y-42474D01*
X62599Y-42426D01*
X62600Y-42377D01*
X62600Y-43175D01*
X62585Y-43189D01*
X62569Y-43179D01*
X62524Y-43160D01*
X62476Y-43150D01*
X62427Y-43149D01*
X61825Y-43149D01*
X61777Y-43159D01*
X61732Y-43178D01*
X61691Y-43205D01*
X61656Y-43239D01*
X61629Y-43280D01*
X61610Y-43325D01*
X61600Y-43373D01*
X61599Y-43422D01*
X61599Y-44024D01*
X61609Y-44072D01*
X61628Y-44117D01*
X61655Y-44158D01*
X61689Y-44193D01*
X61730Y-44220D01*
X61775Y-44239D01*
X61823Y-44249D01*
X61872Y-44250D01*
X62474Y-44250D01*
X62522Y-44240D01*
X62567Y-44221D01*
X62608Y-44194D01*
X62643Y-44160D01*
X62670Y-44119D01*
X62689Y-44074D01*
X62699Y-44026D01*
X62700Y-44000D01*
X67625Y-44000D01*
X68774Y-45149D01*
X68774Y-45185D01*
X68789Y-45267D01*
X68820Y-45345D01*
X68865Y-45415D01*
X68923Y-45475D01*
X68991Y-45522D01*
X69068Y-45556D01*
X69149Y-45574D01*
X69232Y-45575D01*
X69300Y-45563D01*
X69300Y-45698D01*
X69272Y-45725D01*
X69225Y-45794D01*
X69192Y-45870D01*
X69175Y-45952D01*
X69174Y-46035D01*
X69189Y-46117D01*
X69220Y-46195D01*
X69265Y-46265D01*
X69323Y-46325D01*
X69391Y-46372D01*
X69468Y-46406D01*
X69549Y-46424D01*
X69632Y-46425D01*
X69714Y-46411D01*
X69792Y-46381D01*
X69862Y-46336D01*
X69923Y-46279D01*
X69971Y-46210D01*
X70005Y-46134D01*
X70023Y-46053D01*
X70025Y-45958D01*
X70008Y-45876D01*
X69977Y-45799D01*
X69930Y-45730D01*
X69900Y-45698D01*
X69900Y-45294D01*
X69920Y-45345D01*
X69965Y-45415D01*
X70023Y-45475D01*
X70091Y-45522D01*
X70168Y-45556D01*
X70249Y-45574D01*
X70332Y-45575D01*
X70414Y-45561D01*
X70492Y-45531D01*
X70562Y-45486D01*
X70623Y-45429D01*
X70630Y-45418D01*
X70638Y-45414D01*
X70663Y-45401D01*
X70664Y-45400D01*
X70666Y-45399D01*
X70687Y-45382D01*
X70709Y-45365D01*
X70711Y-45362D01*
X70711Y-45362D01*
X70711Y-45362D01*
X70712Y-45362D01*
X71249Y-44825D01*
X71282Y-44825D01*
X71364Y-44811D01*
X71442Y-44781D01*
X71512Y-44736D01*
X71573Y-44679D01*
X71621Y-44610D01*
X71655Y-44534D01*
X71673Y-44453D01*
X71675Y-44358D01*
X71658Y-44276D01*
X71627Y-44199D01*
X71580Y-44130D01*
X71522Y-44070D01*
X71453Y-44024D01*
X71376Y-43992D01*
X71294Y-43975D01*
X71211Y-43974D01*
X71129Y-43990D01*
X71052Y-44021D01*
X70982Y-44067D01*
X70922Y-44125D01*
X70875Y-44194D01*
X70842Y-44270D01*
X70825Y-44352D01*
X70824Y-44400D01*
X70466Y-44759D01*
X70426Y-44742D01*
X70344Y-44725D01*
X70261Y-44724D01*
X70179Y-44740D01*
X70102Y-44771D01*
X70032Y-44817D01*
X69972Y-44875D01*
X69925Y-44944D01*
X69900Y-45004D01*
X69900Y-43500D01*
X70307Y-42963D01*
X70320Y-42995D01*
X70365Y-43065D01*
X70423Y-43125D01*
X70491Y-43172D01*
X70568Y-43206D01*
X70649Y-43224D01*
X70732Y-43225D01*
X70814Y-43211D01*
X70892Y-43181D01*
X70962Y-43136D01*
X71023Y-43079D01*
X71071Y-43010D01*
X71076Y-43000D01*
X75648Y-43000D01*
X75673Y-43025D01*
X75741Y-43072D01*
X75818Y-43106D01*
X75899Y-43124D01*
X75982Y-43125D01*
X76030Y-43117D01*
X76039Y-43167D01*
X76070Y-43245D01*
X76100Y-43291D01*
X76100Y-44450D01*
X73927Y-44450D01*
X73927Y-44449D01*
X73880Y-44380D01*
X73822Y-44320D01*
X73753Y-44274D01*
X73676Y-44242D01*
X73594Y-44225D01*
X73511Y-44224D01*
X73429Y-44240D01*
X73352Y-44271D01*
X73282Y-44317D01*
X73222Y-44375D01*
X73175Y-44444D01*
X73142Y-44520D01*
X73125Y-44602D01*
X73124Y-44685D01*
X73139Y-44767D01*
X73170Y-44845D01*
X73215Y-44915D01*
X73273Y-44975D01*
X73341Y-45022D01*
X73418Y-45056D01*
X73479Y-45069D01*
X73502Y-45088D01*
X73503Y-45089D01*
X73505Y-45090D01*
X73533Y-45106D01*
X73562Y-45121D01*
X73563Y-45122D01*
X73565Y-45123D01*
X73596Y-45132D01*
X73627Y-45142D01*
X73629Y-45142D01*
X73630Y-45143D01*
X73662Y-45146D01*
X73695Y-45149D01*
X73698Y-45149D01*
X73698Y-45149D01*
X73698Y-45149D01*
X73700Y-45150D01*
X76450Y-45150D01*
X76482Y-45146D01*
X76515Y-45143D01*
X76516Y-45143D01*
X76517Y-45143D01*
X76549Y-45133D01*
X76581Y-45124D01*
X76582Y-45123D01*
X76583Y-45123D01*
X76612Y-45108D01*
X76641Y-45092D01*
X76642Y-45092D01*
X76643Y-45091D01*
X76669Y-45070D01*
X76694Y-45050D01*
X76695Y-45049D01*
X76696Y-45048D01*
X76717Y-45022D01*
X76738Y-44997D01*
X76739Y-44996D01*
X76740Y-44995D01*
X76755Y-44966D01*
X76771Y-44937D01*
X76772Y-44936D01*
X76772Y-44935D01*
X76782Y-44904D01*
X76786Y-44892D01*
X76818Y-44906D01*
X76899Y-44924D01*
X76982Y-44925D01*
X77064Y-44911D01*
X77142Y-44881D01*
X77212Y-44836D01*
X77273Y-44779D01*
X77321Y-44710D01*
X77355Y-44634D01*
X77373Y-44553D01*
X77375Y-44458D01*
X77358Y-44376D01*
X77327Y-44299D01*
X77300Y-44258D01*
X77300Y-42800D01*
X77297Y-42772D01*
X77294Y-42744D01*
X77294Y-42743D01*
X77294Y-42741D01*
X77286Y-42715D01*
X77278Y-42688D01*
X77277Y-42687D01*
X77277Y-42685D01*
X77264Y-42661D01*
X77251Y-42636D01*
X77250Y-42635D01*
X77249Y-42633D01*
X77232Y-42612D01*
X77215Y-42590D01*
X77212Y-42588D01*
X77212Y-42588D01*
X77212Y-42588D01*
X77212Y-42587D01*
X76612Y-41987D01*
X76590Y-41970D01*
X76569Y-41952D01*
X76568Y-41951D01*
X76566Y-41950D01*
X76542Y-41937D01*
X76518Y-41924D01*
X76516Y-41923D01*
X76515Y-41923D01*
X76488Y-41914D01*
X76462Y-41906D01*
X76460Y-41906D01*
X76459Y-41905D01*
X76431Y-41903D01*
X76404Y-41900D01*
X76401Y-41900D01*
X76401Y-41900D01*
X76400Y-41900D01*
X76400Y-41900D01*
X75050Y-41900D01*
X75022Y-41902D01*
X74994Y-41905D01*
X74993Y-41905D01*
X74991Y-41905D01*
X74965Y-41913D01*
X74938Y-41921D01*
X74937Y-41922D01*
X74935Y-41922D01*
X74911Y-41935D01*
X74886Y-41948D01*
X74885Y-41949D01*
X74883Y-41950D01*
X74862Y-41967D01*
X74840Y-41984D01*
X74838Y-41987D01*
X74838Y-41987D01*
X74838Y-41987D01*
X74837Y-41987D01*
X74605Y-42219D01*
X71994Y-42219D01*
X71483Y-41709D01*
X71549Y-41724D01*
X71632Y-41725D01*
X71714Y-41711D01*
X71792Y-41681D01*
X71862Y-41636D01*
X71901Y-41600D01*
X74650Y-41600D01*
X74677Y-41597D01*
X74705Y-41594D01*
X74706Y-41594D01*
X74708Y-41594D01*
X74734Y-41586D01*
X74761Y-41578D01*
X74762Y-41577D01*
X74764Y-41577D01*
X74788Y-41564D01*
X74813Y-41551D01*
X74814Y-41550D01*
X74816Y-41549D01*
X74837Y-41532D01*
X74859Y-41515D01*
X74861Y-41512D01*
X74861Y-41512D01*
X74861Y-41512D01*
X74862Y-41512D01*
X75912Y-40462D01*
X75929Y-40440D01*
X75947Y-40419D01*
X75948Y-40418D01*
X75949Y-40416D01*
X75962Y-40392D01*
X75975Y-40368D01*
X75976Y-40366D01*
X75976Y-40365D01*
X75985Y-40338D01*
X75993Y-40312D01*
X75993Y-40310D01*
X75994Y-40309D01*
X75996Y-40281D01*
X75999Y-40254D01*
X75999Y-40251D01*
X75999Y-40251D01*
X75999Y-40250D01*
X76000Y-40250D01*
X76000Y-37451D01*
X76023Y-37429D01*
X76071Y-37360D01*
X76105Y-37284D01*
X76123Y-37203D01*
X76125Y-37108D01*
X76108Y-37026D01*
X76077Y-36949D01*
X76030Y-36880D01*
X75972Y-36820D01*
X75945Y-36802D01*
X76987Y-35824D01*
X77032Y-35825D01*
X77114Y-35811D01*
X77192Y-35781D01*
X77250Y-35744D01*
X77250Y-39400D01*
X77252Y-39427D01*
X77255Y-39455D01*
X77255Y-39456D01*
X77255Y-39458D01*
X77263Y-39484D01*
X77271Y-39511D01*
X77272Y-39512D01*
X77272Y-39514D01*
X77285Y-39538D01*
X77298Y-39563D01*
X77299Y-39564D01*
X77300Y-39566D01*
X77317Y-39587D01*
X77334Y-39609D01*
X77337Y-39611D01*
X77337Y-39611D01*
X77337Y-39611D01*
X77337Y-39612D01*
X81849Y-44123D01*
X81782Y-44167D01*
X81722Y-44225D01*
X81675Y-44294D01*
X81642Y-44370D01*
X81625Y-44452D01*
X81624Y-44535D01*
X81639Y-44617D01*
X81670Y-44695D01*
X81715Y-44765D01*
X81773Y-44825D01*
X81841Y-44872D01*
X81918Y-44906D01*
X81999Y-44924D01*
X82050Y-44925D01*
X82950Y-45824D01*
X82950Y-47898D01*
X82922Y-47925D01*
X82875Y-47994D01*
X82842Y-48070D01*
X82825Y-48152D01*
X82824Y-48235D01*
X82839Y-48317D01*
X82870Y-48395D01*
X82915Y-48465D01*
X82973Y-48525D01*
X83041Y-48572D01*
X83118Y-48606D01*
X83199Y-48624D01*
X83282Y-48625D01*
X83364Y-48611D01*
X83442Y-48581D01*
X83512Y-48536D01*
X83573Y-48479D01*
X83621Y-48410D01*
X83655Y-48334D01*
X83673Y-48253D01*
X83675Y-48158D01*
X83658Y-48076D01*
X83627Y-47999D01*
X83580Y-47930D01*
X83550Y-47898D01*
X83550Y-45824D01*
X84164Y-46438D01*
X84125Y-46494D01*
X84092Y-46570D01*
X84075Y-46652D01*
X84074Y-46735D01*
X84089Y-46817D01*
X84120Y-46895D01*
X84165Y-46965D01*
X84223Y-47025D01*
X84291Y-47072D01*
X84368Y-47106D01*
X84449Y-47124D01*
X84532Y-47125D01*
X84614Y-47111D01*
X84692Y-47081D01*
X84724Y-47060D01*
X84741Y-47072D01*
X84818Y-47106D01*
X84899Y-47124D01*
X84982Y-47125D01*
X85064Y-47111D01*
X85142Y-47081D01*
X85212Y-47036D01*
X85224Y-47025D01*
X85291Y-47072D01*
X85368Y-47106D01*
X85449Y-47124D01*
X85532Y-47125D01*
X85614Y-47111D01*
X85692Y-47081D01*
X85724Y-47060D01*
X85741Y-47072D01*
X85818Y-47106D01*
X85899Y-47124D01*
X85982Y-47125D01*
X86064Y-47111D01*
X86142Y-47081D01*
X86200Y-47044D01*
X86241Y-47072D01*
X86318Y-47106D01*
X86399Y-47124D01*
X86482Y-47125D01*
X86564Y-47111D01*
X86642Y-47081D01*
X86700Y-47044D01*
X86741Y-47072D01*
X86818Y-47106D01*
X86899Y-47124D01*
X86982Y-47125D01*
X87064Y-47111D01*
X87142Y-47081D01*
X87200Y-47044D01*
X87241Y-47072D01*
X87318Y-47106D01*
X87399Y-47124D01*
X87482Y-47125D01*
X87564Y-47111D01*
X87642Y-47081D01*
X87712Y-47036D01*
X87773Y-46979D01*
X87821Y-46910D01*
X87855Y-46834D01*
X87873Y-46753D01*
X87875Y-46658D01*
X87858Y-46576D01*
X87827Y-46499D01*
X87780Y-46430D01*
X87722Y-46370D01*
X87653Y-46324D01*
X87576Y-46292D01*
X87494Y-46275D01*
X87449Y-46274D01*
X84587Y-43413D01*
X84623Y-43379D01*
X84625Y-43375D01*
X84673Y-43425D01*
X84741Y-43472D01*
X84818Y-43506D01*
X84899Y-43524D01*
X84982Y-43525D01*
X85064Y-43511D01*
X85142Y-43481D01*
X85212Y-43436D01*
X85273Y-43379D01*
X85321Y-43310D01*
X85355Y-43234D01*
X85373Y-43153D01*
X85375Y-43058D01*
X85358Y-42976D01*
X85327Y-42899D01*
X85280Y-42830D01*
X85250Y-42798D01*
X85250Y-42500D01*
X85247Y-42472D01*
X85244Y-42444D01*
X85244Y-42443D01*
X85244Y-42441D01*
X85236Y-42415D01*
X85228Y-42388D01*
X85227Y-42387D01*
X85227Y-42385D01*
X85214Y-42361D01*
X85201Y-42336D01*
X85200Y-42335D01*
X85199Y-42333D01*
X85182Y-42312D01*
X85165Y-42290D01*
X85162Y-42288D01*
X85162Y-42288D01*
X85162Y-42288D01*
X85162Y-42287D01*
X81750Y-38875D01*
X81750Y-38300D01*
X81747Y-38272D01*
X81744Y-38244D01*
X81744Y-38243D01*
X81744Y-38241D01*
X81736Y-38215D01*
X81728Y-38188D01*
X81727Y-38187D01*
X81727Y-38185D01*
X81714Y-38161D01*
X81701Y-38136D01*
X81700Y-38135D01*
X81699Y-38133D01*
X81682Y-38112D01*
X81665Y-38090D01*
X81662Y-38088D01*
X81662Y-38088D01*
X81662Y-38088D01*
X81662Y-38087D01*
X80500Y-36925D01*
X80500Y-31301D01*
X80523Y-31279D01*
X80571Y-31210D01*
X80605Y-31134D01*
X80623Y-31053D01*
X80625Y-30958D01*
X80608Y-30876D01*
X80577Y-30800D01*
X88400Y-30800D01*
X88427Y-30797D01*
X88455Y-30794D01*
X88456Y-30794D01*
X88458Y-30794D01*
X88484Y-30786D01*
X88511Y-30778D01*
X88512Y-30777D01*
X88514Y-30777D01*
X88538Y-30764D01*
X88563Y-30751D01*
X88564Y-30750D01*
X88566Y-30749D01*
X88587Y-30732D01*
X88609Y-30715D01*
X88611Y-30712D01*
X88611Y-30712D01*
X88611Y-30712D01*
X88612Y-30712D01*
X89599Y-29725D01*
X89632Y-29725D01*
X89714Y-29711D01*
X89792Y-29681D01*
X89862Y-29636D01*
X89923Y-29579D01*
X89971Y-29510D01*
X90005Y-29434D01*
X90023Y-29353D01*
X90025Y-29258D01*
X90025Y-45742D01*
X89952Y-45771D01*
X89882Y-45817D01*
X89848Y-45850D01*
X89774Y-45850D01*
X89374Y-45450D01*
X89375Y-45408D01*
X89358Y-45326D01*
X89327Y-45249D01*
X89280Y-45180D01*
X89222Y-45120D01*
X89153Y-45074D01*
X89076Y-45042D01*
X88994Y-45025D01*
X88911Y-45024D01*
X88829Y-45040D01*
X88752Y-45071D01*
X88682Y-45117D01*
X88622Y-45175D01*
X88575Y-45244D01*
X88542Y-45320D01*
X88525Y-45402D01*
X88524Y-45485D01*
X88539Y-45567D01*
X88570Y-45645D01*
X88615Y-45715D01*
X88673Y-45775D01*
X88741Y-45822D01*
X88818Y-45856D01*
X88899Y-45874D01*
X88950Y-45875D01*
X89437Y-46362D01*
X89459Y-46379D01*
X89480Y-46397D01*
X89481Y-46398D01*
X89483Y-46399D01*
X89507Y-46412D01*
X89531Y-46425D01*
X89533Y-46426D01*
X89534Y-46426D01*
X89561Y-46435D01*
X89587Y-46443D01*
X89589Y-46443D01*
X89590Y-46444D01*
X89618Y-46446D01*
X89645Y-46449D01*
X89648Y-46449D01*
X89648Y-46449D01*
X89649Y-46449D01*
X89650Y-46450D01*
X89848Y-46450D01*
X89873Y-46475D01*
X89941Y-46522D01*
X90018Y-46556D01*
X90099Y-46574D01*
X90182Y-46575D01*
X90264Y-46561D01*
X90342Y-46531D01*
X90412Y-46486D01*
X90473Y-46429D01*
X90521Y-46360D01*
X90555Y-46284D01*
X90573Y-46203D01*
X90575Y-46108D01*
X90575Y-55253D01*
X90230Y-55532D01*
X88975Y-56339D01*
X88975Y-54308D01*
X88958Y-54226D01*
X88927Y-54149D01*
X88880Y-54080D01*
X88822Y-54020D01*
X88753Y-53974D01*
X88676Y-53942D01*
X88594Y-53925D01*
X88511Y-53924D01*
X88429Y-53940D01*
X88352Y-53971D01*
X88308Y-54000D01*
X81750Y-54000D01*
X81750Y-53572D01*
X81758Y-53579D01*
X81780Y-53597D01*
X81781Y-53598D01*
X81782Y-53598D01*
X81807Y-53612D01*
X81831Y-53625D01*
X81832Y-53626D01*
X81833Y-53626D01*
X81860Y-53634D01*
X81887Y-53643D01*
X81888Y-53643D01*
X81889Y-53643D01*
X81917Y-53646D01*
X81945Y-53649D01*
X81947Y-53649D01*
X81947Y-53649D01*
X81947Y-53649D01*
X81950Y-53650D01*
X88198Y-53650D01*
X88223Y-53675D01*
X88291Y-53722D01*
X88368Y-53756D01*
X88449Y-53774D01*
X88532Y-53775D01*
X88614Y-53761D01*
X88692Y-53731D01*
X88762Y-53686D01*
X88823Y-53629D01*
X88871Y-53560D01*
X88905Y-53484D01*
X88923Y-53403D01*
X88925Y-53308D01*
X88908Y-53226D01*
X88877Y-53149D01*
X88830Y-53080D01*
X88772Y-53020D01*
X88703Y-52974D01*
X88626Y-52942D01*
X88544Y-52925D01*
X88461Y-52924D01*
X88379Y-52940D01*
X88302Y-52971D01*
X88232Y-53017D01*
X88198Y-53050D01*
X87975Y-53050D01*
X87975Y-40358D01*
X87958Y-40276D01*
X87927Y-40199D01*
X87880Y-40130D01*
X87822Y-40070D01*
X87753Y-40024D01*
X87676Y-39992D01*
X87594Y-39975D01*
X87511Y-39974D01*
X87429Y-39990D01*
X87352Y-40021D01*
X87282Y-40067D01*
X87222Y-40125D01*
X87175Y-40194D01*
X87142Y-40270D01*
X87130Y-40329D01*
X87111Y-40352D01*
X87110Y-40353D01*
X87109Y-40355D01*
X87093Y-40383D01*
X87078Y-40412D01*
X87077Y-40413D01*
X87076Y-40415D01*
X87067Y-40446D01*
X87057Y-40477D01*
X87057Y-40479D01*
X87056Y-40480D01*
X87053Y-40512D01*
X87050Y-40545D01*
X87050Y-40548D01*
X87050Y-40548D01*
X87050Y-40548D01*
X87050Y-40550D01*
X87050Y-42808D01*
X87025Y-42844D01*
X86992Y-42920D01*
X86975Y-43002D01*
X86974Y-43085D01*
X86989Y-43167D01*
X87020Y-43245D01*
X87065Y-43315D01*
X87123Y-43375D01*
X87191Y-43422D01*
X87268Y-43456D01*
X87349Y-43474D01*
X87432Y-43475D01*
X87514Y-43461D01*
X87592Y-43431D01*
X87662Y-43386D01*
X87723Y-43329D01*
X87771Y-43260D01*
X87805Y-43184D01*
X87823Y-43103D01*
X87825Y-43008D01*
X87808Y-42926D01*
X87777Y-42849D01*
X87750Y-42808D01*
X87750Y-40776D01*
X87812Y-40736D01*
X87873Y-40679D01*
X87921Y-40610D01*
X87955Y-40534D01*
X87973Y-40453D01*
X87975Y-40358D01*
X87975Y-53050D01*
X82250Y-53050D01*
X82250Y-46901D01*
X82273Y-46879D01*
X82321Y-46810D01*
X82355Y-46734D01*
X82373Y-46653D01*
X82375Y-46558D01*
X82358Y-46476D01*
X82327Y-46399D01*
X82280Y-46330D01*
X82222Y-46270D01*
X82153Y-46224D01*
X82076Y-46192D01*
X81994Y-46175D01*
X81911Y-46174D01*
X81829Y-46190D01*
X81752Y-46221D01*
X81699Y-46255D01*
X81653Y-46224D01*
X81576Y-46192D01*
X81494Y-46175D01*
X81411Y-46174D01*
X81329Y-46190D01*
X81252Y-46221D01*
X81199Y-46255D01*
X81153Y-46224D01*
X81076Y-46192D01*
X80994Y-46175D01*
X80911Y-46174D01*
X80829Y-46190D01*
X80752Y-46221D01*
X80699Y-46255D01*
X80653Y-46224D01*
X80576Y-46192D01*
X80494Y-46175D01*
X80411Y-46174D01*
X80329Y-46190D01*
X80252Y-46221D01*
X80199Y-46255D01*
X80153Y-46224D01*
X80076Y-46192D01*
X79994Y-46175D01*
X79911Y-46174D01*
X79829Y-46190D01*
X79752Y-46221D01*
X79699Y-46255D01*
X79653Y-46224D01*
X79576Y-46192D01*
X79494Y-46175D01*
X79411Y-46174D01*
X79329Y-46190D01*
X79252Y-46221D01*
X79199Y-46255D01*
X79153Y-46224D01*
X79076Y-46192D01*
X78994Y-46175D01*
X78911Y-46174D01*
X78829Y-46190D01*
X78752Y-46221D01*
X78750Y-46222D01*
X78750Y-43350D01*
X79148Y-43350D01*
X79173Y-43375D01*
X79241Y-43422D01*
X79318Y-43456D01*
X79399Y-43474D01*
X79482Y-43475D01*
X79564Y-43461D01*
X79642Y-43431D01*
X79712Y-43386D01*
X79773Y-43329D01*
X79821Y-43260D01*
X79855Y-43184D01*
X79873Y-43103D01*
X79875Y-43008D01*
X79858Y-42926D01*
X79827Y-42849D01*
X79780Y-42780D01*
X79722Y-42720D01*
X79653Y-42674D01*
X79576Y-42642D01*
X79494Y-42625D01*
X79411Y-42624D01*
X79329Y-42640D01*
X79252Y-42671D01*
X79182Y-42717D01*
X79148Y-42750D01*
X78550Y-42750D01*
X78522Y-42752D01*
X78494Y-42755D01*
X78493Y-42755D01*
X78491Y-42755D01*
X78465Y-42763D01*
X78438Y-42771D01*
X78437Y-42772D01*
X78435Y-42772D01*
X78411Y-42785D01*
X78386Y-42798D01*
X78385Y-42799D01*
X78383Y-42800D01*
X78362Y-42817D01*
X78340Y-42834D01*
X78338Y-42837D01*
X78338Y-42837D01*
X78338Y-42837D01*
X78337Y-42837D01*
X78237Y-42937D01*
X78220Y-42959D01*
X78202Y-42980D01*
X78201Y-42981D01*
X78200Y-42983D01*
X78187Y-43007D01*
X78174Y-43031D01*
X78173Y-43033D01*
X78173Y-43034D01*
X78164Y-43061D01*
X78156Y-43087D01*
X78156Y-43089D01*
X78155Y-43090D01*
X78153Y-43118D01*
X78150Y-43145D01*
X78150Y-43148D01*
X78150Y-43148D01*
X78150Y-43149D01*
X78150Y-43150D01*
X78150Y-43755D01*
X78127Y-43699D01*
X78080Y-43630D01*
X78022Y-43570D01*
X77953Y-43524D01*
X77876Y-43492D01*
X77794Y-43475D01*
X77711Y-43474D01*
X77629Y-43490D01*
X77552Y-43521D01*
X77482Y-43567D01*
X77422Y-43625D01*
X77375Y-43694D01*
X77342Y-43770D01*
X77325Y-43852D01*
X77324Y-43935D01*
X77339Y-44017D01*
X77370Y-44095D01*
X77400Y-44141D01*
X77400Y-45204D01*
X77392Y-45220D01*
X77375Y-45302D01*
X77374Y-45385D01*
X77389Y-45467D01*
X77420Y-45545D01*
X77465Y-45615D01*
X77523Y-45675D01*
X77591Y-45722D01*
X77668Y-45756D01*
X77749Y-45774D01*
X77832Y-45775D01*
X77914Y-45761D01*
X77992Y-45731D01*
X78062Y-45686D01*
X78123Y-45629D01*
X78150Y-45591D01*
X78150Y-53350D01*
X77875Y-53350D01*
X77875Y-48058D01*
X77858Y-47976D01*
X77827Y-47899D01*
X77780Y-47830D01*
X77722Y-47770D01*
X77653Y-47724D01*
X77576Y-47692D01*
X77494Y-47675D01*
X77411Y-47674D01*
X77329Y-47690D01*
X77252Y-47721D01*
X77182Y-47767D01*
X77122Y-47825D01*
X77075Y-47894D01*
X77042Y-47970D01*
X77025Y-48052D01*
X77024Y-48100D01*
X76375Y-48750D01*
X73551Y-48750D01*
X73522Y-48720D01*
X73453Y-48674D01*
X73376Y-48642D01*
X73294Y-48625D01*
X73211Y-48624D01*
X73129Y-48640D01*
X73052Y-48671D01*
X72982Y-48717D01*
X72922Y-48775D01*
X72875Y-48844D01*
X72842Y-48920D01*
X72825Y-49002D01*
X72824Y-49085D01*
X72839Y-49167D01*
X72870Y-49245D01*
X72915Y-49315D01*
X72973Y-49375D01*
X73041Y-49422D01*
X73118Y-49456D01*
X73199Y-49474D01*
X73282Y-49475D01*
X73364Y-49461D01*
X73442Y-49431D01*
X73512Y-49386D01*
X73551Y-49350D01*
X76500Y-49350D01*
X76527Y-49347D01*
X76555Y-49344D01*
X76556Y-49344D01*
X76558Y-49344D01*
X76584Y-49336D01*
X76611Y-49328D01*
X76612Y-49327D01*
X76614Y-49327D01*
X76638Y-49314D01*
X76663Y-49301D01*
X76664Y-49300D01*
X76666Y-49299D01*
X76687Y-49282D01*
X76709Y-49265D01*
X76711Y-49262D01*
X76711Y-49262D01*
X76711Y-49262D01*
X76712Y-49262D01*
X77449Y-48525D01*
X77482Y-48525D01*
X77564Y-48511D01*
X77642Y-48481D01*
X77712Y-48436D01*
X77773Y-48379D01*
X77821Y-48310D01*
X77855Y-48234D01*
X77873Y-48153D01*
X77875Y-48058D01*
X77875Y-53350D01*
X72725Y-53350D01*
X72725Y-50008D01*
X72708Y-49926D01*
X72677Y-49849D01*
X72630Y-49780D01*
X72572Y-49720D01*
X72503Y-49674D01*
X72426Y-49642D01*
X72344Y-49625D01*
X72261Y-49624D01*
X72179Y-49640D01*
X72102Y-49671D01*
X72032Y-49717D01*
X72025Y-49724D01*
X72025Y-47258D01*
X72008Y-47176D01*
X71977Y-47099D01*
X71930Y-47030D01*
X71872Y-46970D01*
X71803Y-46924D01*
X71726Y-46892D01*
X71644Y-46875D01*
X71561Y-46874D01*
X71479Y-46890D01*
X71402Y-46921D01*
X71332Y-46967D01*
X71272Y-47025D01*
X71225Y-47094D01*
X71223Y-47100D01*
X70326Y-47100D01*
X70355Y-47034D01*
X70373Y-46953D01*
X70375Y-46858D01*
X70358Y-46776D01*
X70327Y-46699D01*
X70280Y-46630D01*
X70222Y-46570D01*
X70153Y-46524D01*
X70076Y-46492D01*
X69994Y-46475D01*
X69911Y-46474D01*
X69829Y-46490D01*
X69752Y-46521D01*
X69682Y-46567D01*
X69648Y-46600D01*
X67941Y-46600D01*
X67903Y-46574D01*
X67826Y-46542D01*
X67744Y-46525D01*
X67661Y-46524D01*
X67579Y-46540D01*
X67502Y-46571D01*
X67432Y-46617D01*
X67372Y-46675D01*
X67325Y-46744D01*
X67292Y-46820D01*
X67275Y-46902D01*
X67274Y-46985D01*
X67289Y-47067D01*
X67320Y-47145D01*
X67365Y-47215D01*
X67423Y-47275D01*
X67491Y-47322D01*
X67568Y-47356D01*
X67575Y-47357D01*
X67574Y-47435D01*
X67589Y-47517D01*
X67620Y-47595D01*
X67665Y-47665D01*
X67723Y-47725D01*
X67791Y-47772D01*
X67868Y-47806D01*
X67949Y-47824D01*
X68032Y-47825D01*
X68114Y-47811D01*
X68192Y-47781D01*
X68262Y-47736D01*
X68301Y-47700D01*
X71453Y-47700D01*
X71468Y-47706D01*
X71549Y-47724D01*
X71632Y-47725D01*
X71714Y-47711D01*
X71792Y-47681D01*
X71862Y-47636D01*
X71923Y-47579D01*
X71971Y-47510D01*
X72005Y-47434D01*
X72023Y-47353D01*
X72025Y-47258D01*
X72025Y-49724D01*
X71998Y-49750D01*
X69124Y-49750D01*
X63824Y-44450D01*
X63825Y-44408D01*
X63808Y-44326D01*
X63777Y-44249D01*
X63730Y-44180D01*
X63672Y-44120D01*
X63603Y-44074D01*
X63526Y-44042D01*
X63444Y-44025D01*
X63361Y-44024D01*
X63279Y-44040D01*
X63202Y-44071D01*
X63132Y-44117D01*
X63072Y-44175D01*
X63025Y-44244D01*
X62992Y-44320D01*
X62975Y-44402D01*
X62974Y-44485D01*
X62989Y-44567D01*
X63020Y-44645D01*
X63065Y-44715D01*
X63123Y-44775D01*
X63191Y-44822D01*
X63268Y-44856D01*
X63349Y-44874D01*
X63400Y-44875D01*
X68787Y-50262D01*
X68809Y-50279D01*
X68830Y-50297D01*
X68831Y-50298D01*
X68833Y-50299D01*
X68857Y-50312D01*
X68881Y-50325D01*
X68883Y-50326D01*
X68884Y-50326D01*
X68911Y-50335D01*
X68937Y-50343D01*
X68939Y-50343D01*
X68940Y-50344D01*
X68968Y-50346D01*
X68995Y-50349D01*
X68998Y-50349D01*
X68998Y-50349D01*
X68999Y-50349D01*
X69000Y-50350D01*
X71998Y-50350D01*
X72023Y-50375D01*
X72091Y-50422D01*
X72168Y-50456D01*
X72249Y-50474D01*
X72332Y-50475D01*
X72414Y-50461D01*
X72492Y-50431D01*
X72562Y-50386D01*
X72623Y-50329D01*
X72671Y-50260D01*
X72705Y-50184D01*
X72723Y-50103D01*
X72725Y-50008D01*
X72725Y-53350D01*
X69751Y-53350D01*
X69722Y-53320D01*
X69653Y-53274D01*
X69576Y-53242D01*
X69494Y-53225D01*
X69411Y-53224D01*
X69329Y-53240D01*
X69252Y-53271D01*
X69182Y-53317D01*
X69122Y-53375D01*
X69075Y-53444D01*
X69042Y-53520D01*
X69025Y-53602D01*
X69024Y-53685D01*
X69039Y-53767D01*
X69070Y-53845D01*
X69115Y-53915D01*
X69173Y-53975D01*
X69241Y-54022D01*
X69318Y-54056D01*
X69399Y-54074D01*
X69482Y-54075D01*
X69564Y-54061D01*
X69642Y-54031D01*
X69712Y-53986D01*
X69751Y-53950D01*
X72408Y-53950D01*
X72382Y-53967D01*
X72322Y-54025D01*
X72275Y-54094D01*
X72242Y-54170D01*
X72225Y-54252D01*
X72224Y-54335D01*
X72239Y-54417D01*
X72270Y-54495D01*
X72315Y-54565D01*
X72373Y-54625D01*
X72441Y-54672D01*
X72518Y-54706D01*
X72599Y-54724D01*
X72682Y-54725D01*
X72764Y-54711D01*
X72842Y-54681D01*
X72912Y-54636D01*
X72951Y-54600D01*
X78950Y-54600D01*
X78978Y-54597D01*
X79006Y-54594D01*
X79007Y-54594D01*
X79008Y-54594D01*
X79035Y-54586D01*
X79062Y-54578D01*
X79063Y-54577D01*
X79064Y-54577D01*
X79089Y-54564D01*
X79114Y-54551D01*
X79115Y-54550D01*
X79116Y-54549D01*
X79137Y-54532D01*
X79150Y-54522D01*
X79150Y-54800D01*
X76251Y-54800D01*
X76222Y-54770D01*
X76153Y-54724D01*
X76076Y-54692D01*
X75994Y-54675D01*
X75911Y-54674D01*
X75829Y-54690D01*
X75752Y-54721D01*
X75682Y-54767D01*
X75622Y-54825D01*
X75575Y-54894D01*
X75542Y-54970D01*
X75525Y-55052D01*
X75524Y-55135D01*
X75539Y-55217D01*
X75570Y-55295D01*
X75615Y-55365D01*
X75673Y-55425D01*
X75741Y-55472D01*
X75818Y-55506D01*
X75899Y-55524D01*
X75982Y-55525D01*
X76064Y-55511D01*
X76142Y-55481D01*
X76212Y-55436D01*
X76251Y-55400D01*
X79275Y-55400D01*
X79249Y-55426D01*
X79244Y-55425D01*
X79161Y-55424D01*
X79079Y-55440D01*
X79002Y-55471D01*
X78932Y-55517D01*
X78872Y-55575D01*
X78825Y-55644D01*
X78792Y-55720D01*
X78775Y-55802D01*
X78774Y-55885D01*
X78789Y-55967D01*
X78820Y-56045D01*
X78865Y-56115D01*
X78923Y-56175D01*
X78991Y-56222D01*
X79068Y-56256D01*
X79149Y-56274D01*
X79232Y-56275D01*
X79314Y-56261D01*
X79392Y-56231D01*
X79462Y-56186D01*
X79523Y-56129D01*
X79571Y-56060D01*
X79605Y-55984D01*
X79623Y-55903D01*
X79623Y-55900D01*
X80162Y-55362D01*
X80179Y-55340D01*
X80197Y-55319D01*
X80198Y-55318D01*
X80199Y-55316D01*
X80212Y-55292D01*
X80216Y-55285D01*
X80217Y-55287D01*
X80234Y-55309D01*
X80237Y-55311D01*
X80237Y-55311D01*
X80237Y-55311D01*
X80237Y-55312D01*
X80987Y-56062D01*
X81009Y-56079D01*
X81030Y-56097D01*
X81031Y-56098D01*
X81033Y-56099D01*
X81057Y-56112D01*
X81081Y-56125D01*
X81083Y-56126D01*
X81084Y-56126D01*
X81111Y-56135D01*
X81137Y-56143D01*
X81139Y-56143D01*
X81140Y-56144D01*
X81168Y-56146D01*
X81195Y-56149D01*
X81198Y-56149D01*
X81198Y-56149D01*
X81199Y-56149D01*
X81200Y-56150D01*
X81998Y-56150D01*
X82023Y-56175D01*
X82091Y-56222D01*
X82168Y-56256D01*
X82249Y-56274D01*
X82332Y-56275D01*
X82414Y-56261D01*
X82492Y-56231D01*
X82562Y-56186D01*
X82623Y-56129D01*
X82671Y-56060D01*
X82705Y-55984D01*
X82723Y-55903D01*
X82725Y-55808D01*
X82708Y-55726D01*
X82677Y-55649D01*
X82630Y-55580D01*
X82572Y-55520D01*
X82503Y-55474D01*
X82426Y-55442D01*
X82344Y-55425D01*
X82261Y-55424D01*
X82179Y-55440D01*
X82102Y-55471D01*
X82032Y-55517D01*
X81998Y-55550D01*
X81324Y-55550D01*
X81158Y-55384D01*
X81161Y-55385D01*
X81187Y-55393D01*
X81189Y-55393D01*
X81190Y-55394D01*
X81218Y-55396D01*
X81245Y-55399D01*
X81248Y-55399D01*
X81248Y-55399D01*
X81249Y-55399D01*
X81250Y-55400D01*
X85148Y-55400D01*
X85173Y-55425D01*
X85241Y-55472D01*
X85318Y-55506D01*
X85399Y-55524D01*
X85482Y-55525D01*
X85564Y-55511D01*
X85642Y-55481D01*
X85712Y-55436D01*
X85773Y-55379D01*
X85821Y-55310D01*
X85855Y-55234D01*
X85873Y-55153D01*
X85875Y-55058D01*
X85858Y-54976D01*
X85827Y-54899D01*
X85780Y-54830D01*
X85722Y-54770D01*
X85653Y-54724D01*
X85576Y-54692D01*
X85494Y-54675D01*
X85411Y-54674D01*
X85329Y-54690D01*
X85252Y-54721D01*
X85182Y-54767D01*
X85148Y-54800D01*
X81374Y-54800D01*
X81250Y-54675D01*
X81250Y-54522D01*
X81258Y-54529D01*
X81280Y-54547D01*
X81281Y-54548D01*
X81282Y-54548D01*
X81307Y-54562D01*
X81331Y-54575D01*
X81332Y-54576D01*
X81333Y-54576D01*
X81360Y-54584D01*
X81387Y-54593D01*
X81388Y-54593D01*
X81389Y-54593D01*
X81417Y-54596D01*
X81445Y-54599D01*
X81447Y-54599D01*
X81447Y-54599D01*
X81447Y-54599D01*
X81450Y-54600D01*
X88205Y-54600D01*
X88215Y-54615D01*
X88273Y-54675D01*
X88341Y-54722D01*
X88418Y-54756D01*
X88499Y-54774D01*
X88582Y-54775D01*
X88664Y-54761D01*
X88742Y-54731D01*
X88812Y-54686D01*
X88873Y-54629D01*
X88921Y-54560D01*
X88955Y-54484D01*
X88973Y-54403D01*
X88975Y-54308D01*
X88975Y-56339D01*
X87284Y-57424D01*
X84035Y-58704D01*
X80599Y-59328D01*
X77108Y-59273D01*
X73693Y-58541D01*
X70486Y-57160D01*
X67608Y-55182D01*
X65169Y-52683D01*
X64650Y-51885D01*
X64650Y-49727D01*
X64650Y-49125D01*
X64640Y-49077D01*
X64621Y-49032D01*
X64594Y-48991D01*
X64560Y-48956D01*
X64519Y-48929D01*
X64474Y-48910D01*
X64426Y-48900D01*
X64377Y-48899D01*
X64000Y-48899D01*
X64000Y-48177D01*
X64000Y-47575D01*
X63990Y-47527D01*
X63971Y-47482D01*
X63944Y-47441D01*
X63910Y-47406D01*
X63869Y-47379D01*
X63824Y-47360D01*
X63776Y-47350D01*
X63727Y-47349D01*
X63450Y-47349D01*
X63450Y-46777D01*
X63450Y-46175D01*
X63440Y-46127D01*
X63421Y-46082D01*
X63394Y-46041D01*
X63360Y-46006D01*
X63319Y-45979D01*
X63274Y-45960D01*
X63226Y-45950D01*
X63177Y-45949D01*
X62950Y-45949D01*
X62950Y-45527D01*
X62950Y-44925D01*
X62940Y-44877D01*
X62921Y-44832D01*
X62894Y-44791D01*
X62860Y-44756D01*
X62819Y-44729D01*
X62774Y-44710D01*
X62726Y-44700D01*
X62677Y-44699D01*
X62075Y-44699D01*
X62027Y-44709D01*
X61982Y-44728D01*
X61941Y-44755D01*
X61906Y-44789D01*
X61879Y-44830D01*
X61860Y-44875D01*
X61850Y-44923D01*
X61849Y-44972D01*
X61849Y-45574D01*
X61859Y-45622D01*
X61878Y-45667D01*
X61905Y-45708D01*
X61939Y-45743D01*
X61980Y-45770D01*
X62025Y-45789D01*
X62073Y-45799D01*
X62122Y-45800D01*
X62724Y-45800D01*
X62772Y-45790D01*
X62817Y-45771D01*
X62858Y-45744D01*
X62893Y-45710D01*
X62920Y-45669D01*
X62939Y-45624D01*
X62949Y-45576D01*
X62950Y-45527D01*
X62950Y-45949D01*
X62575Y-45949D01*
X62527Y-45959D01*
X62482Y-45978D01*
X62441Y-46005D01*
X62406Y-46039D01*
X62379Y-46080D01*
X62360Y-46125D01*
X62350Y-46173D01*
X62349Y-46222D01*
X62349Y-46824D01*
X62359Y-46872D01*
X62378Y-46917D01*
X62405Y-46958D01*
X62439Y-46993D01*
X62480Y-47020D01*
X62525Y-47039D01*
X62573Y-47049D01*
X62622Y-47050D01*
X63224Y-47050D01*
X63272Y-47040D01*
X63317Y-47021D01*
X63358Y-46994D01*
X63393Y-46960D01*
X63420Y-46919D01*
X63439Y-46874D01*
X63449Y-46826D01*
X63450Y-46777D01*
X63450Y-47349D01*
X63125Y-47349D01*
X63077Y-47359D01*
X63032Y-47378D01*
X62991Y-47405D01*
X62956Y-47439D01*
X62929Y-47480D01*
X62910Y-47525D01*
X62900Y-47573D01*
X62899Y-47622D01*
X62899Y-48224D01*
X62909Y-48272D01*
X62928Y-48317D01*
X62955Y-48358D01*
X62989Y-48393D01*
X63030Y-48420D01*
X63075Y-48439D01*
X63123Y-48449D01*
X63172Y-48450D01*
X63774Y-48450D01*
X63822Y-48440D01*
X63867Y-48421D01*
X63908Y-48394D01*
X63943Y-48360D01*
X63970Y-48319D01*
X63989Y-48274D01*
X63999Y-48226D01*
X64000Y-48177D01*
X64000Y-48899D01*
X63775Y-48899D01*
X63727Y-48909D01*
X63682Y-48928D01*
X63641Y-48955D01*
X63606Y-48989D01*
X63579Y-49030D01*
X63560Y-49075D01*
X63550Y-49123D01*
X63549Y-49172D01*
X63549Y-49774D01*
X63559Y-49822D01*
X63578Y-49867D01*
X63605Y-49908D01*
X63639Y-49943D01*
X63680Y-49970D01*
X63725Y-49989D01*
X63773Y-49999D01*
X63822Y-50000D01*
X64424Y-50000D01*
X64472Y-49990D01*
X64517Y-49971D01*
X64558Y-49944D01*
X64593Y-49910D01*
X64620Y-49869D01*
X64639Y-49824D01*
X64649Y-49776D01*
X64650Y-49727D01*
X64650Y-51885D01*
X63262Y-49757D01*
X61960Y-46517D01*
X61312Y-43089D01*
X61343Y-39594D01*
X62051Y-36175D01*
X63410Y-32958D01*
X65367Y-30067D01*
X67849Y-27611D01*
X70761Y-25683D01*
X73992Y-24358D01*
X77418Y-23686D01*
X80910Y-23692D01*
X84335Y-24376D01*
X87561Y-25713D01*
X90466Y-27650D01*
X92939Y-30115D01*
X94887Y-33013D01*
X96234Y-36235D01*
X96930Y-39656D01*
X96949Y-43152D01*
X96949Y-43152D01*
G37*
G54D14*
X96949Y-43152D02*
X96289Y-46577D01*
X95142Y-49404D01*
X95142Y-42124D01*
X95142Y-40392D01*
X95125Y-40309D01*
X95093Y-40232D01*
X95047Y-40162D01*
X94988Y-40103D01*
X94919Y-40056D01*
X94841Y-40024D01*
X94759Y-40007D01*
X94676Y-40006D01*
X94593Y-40022D01*
X94516Y-40053D01*
X94446Y-40099D01*
X94386Y-40158D01*
X94339Y-40227D01*
X94306Y-40304D01*
X94288Y-40386D01*
X94287Y-40469D01*
X94302Y-40552D01*
X94333Y-40630D01*
X94378Y-40700D01*
X94436Y-40760D01*
X94505Y-40808D01*
X94582Y-40842D01*
X94664Y-40860D01*
X94747Y-40861D01*
X94830Y-40847D01*
X94908Y-40816D01*
X94979Y-40772D01*
X95039Y-40714D01*
X95088Y-40645D01*
X95122Y-40569D01*
X95140Y-40487D01*
X95142Y-40392D01*
X95142Y-42124D01*
X95125Y-42041D01*
X95093Y-41964D01*
X95047Y-41894D01*
X94988Y-41835D01*
X94919Y-41788D01*
X94841Y-41756D01*
X94759Y-41739D01*
X94676Y-41738D01*
X94593Y-41754D01*
X94516Y-41785D01*
X94446Y-41831D01*
X94386Y-41890D01*
X94339Y-41959D01*
X94306Y-42036D01*
X94288Y-42118D01*
X94287Y-42201D01*
X94302Y-42284D01*
X94333Y-42362D01*
X94378Y-42432D01*
X94436Y-42492D01*
X94505Y-42540D01*
X94582Y-42574D01*
X94664Y-42592D01*
X94747Y-42593D01*
X94830Y-42579D01*
X94908Y-42548D01*
X94979Y-42504D01*
X95039Y-42446D01*
X95088Y-42377D01*
X95122Y-42301D01*
X95140Y-42219D01*
X95142Y-42124D01*
X95142Y-49404D01*
X94975Y-49813D01*
X93100Y-52668D01*
X93100Y-34492D01*
X93099Y-34404D01*
X93083Y-34320D01*
X93029Y-34282D01*
X92862Y-34450D01*
X93029Y-34617D01*
X93083Y-34579D01*
X93100Y-34492D01*
X93100Y-52668D01*
X93058Y-52731D01*
X92817Y-52977D01*
X92817Y-34829D01*
X92817Y-34070D01*
X92779Y-34016D01*
X92692Y-33999D01*
X92604Y-34000D01*
X92520Y-34016D01*
X92482Y-34070D01*
X92650Y-34237D01*
X92817Y-34070D01*
X92817Y-34829D01*
X92650Y-34662D01*
X92482Y-34829D01*
X92520Y-34883D01*
X92607Y-34900D01*
X92695Y-34899D01*
X92779Y-34883D01*
X92817Y-34829D01*
X92817Y-52977D01*
X92437Y-53363D01*
X92437Y-34450D01*
X92270Y-34282D01*
X92216Y-34320D01*
X92200Y-34406D01*
X92200Y-34125D01*
X92190Y-34077D01*
X92171Y-34032D01*
X92144Y-33991D01*
X92110Y-33956D01*
X92069Y-33929D01*
X92024Y-33910D01*
X91976Y-33900D01*
X91927Y-33899D01*
X91325Y-33899D01*
X91277Y-33909D01*
X91232Y-33928D01*
X91191Y-33955D01*
X91156Y-33989D01*
X91129Y-34030D01*
X91110Y-34075D01*
X91100Y-34123D01*
X91099Y-34172D01*
X91099Y-34774D01*
X91109Y-34822D01*
X91128Y-34867D01*
X91155Y-34908D01*
X91189Y-34943D01*
X91230Y-34970D01*
X91275Y-34989D01*
X91323Y-34999D01*
X91372Y-35000D01*
X91974Y-35000D01*
X92022Y-34990D01*
X92067Y-34971D01*
X92108Y-34944D01*
X92143Y-34910D01*
X92170Y-34869D01*
X92189Y-34824D01*
X92199Y-34776D01*
X92200Y-34727D01*
X92200Y-34493D01*
X92200Y-34495D01*
X92216Y-34579D01*
X92270Y-34617D01*
X92437Y-34450D01*
X92437Y-53363D01*
X90604Y-55228D01*
X90575Y-55253D01*
X90575Y-46108D01*
X90558Y-46026D01*
X90527Y-45949D01*
X90480Y-45880D01*
X90422Y-45820D01*
X90353Y-45774D01*
X90276Y-45742D01*
X90194Y-45725D01*
X90111Y-45724D01*
X90029Y-45740D01*
X90025Y-45742D01*
X90025Y-29258D01*
X90008Y-29176D01*
X89977Y-29099D01*
X89930Y-29030D01*
X89872Y-28970D01*
X89803Y-28924D01*
X89726Y-28892D01*
X89644Y-28875D01*
X89561Y-28874D01*
X89479Y-28890D01*
X89402Y-28921D01*
X89332Y-28967D01*
X89272Y-29025D01*
X89225Y-29094D01*
X89192Y-29170D01*
X89175Y-29252D01*
X89174Y-29300D01*
X88275Y-30200D01*
X86374Y-30200D01*
X86849Y-29725D01*
X86882Y-29725D01*
X86964Y-29711D01*
X87042Y-29681D01*
X87112Y-29636D01*
X87173Y-29579D01*
X87221Y-29510D01*
X87255Y-29434D01*
X87273Y-29353D01*
X87275Y-29258D01*
X87258Y-29176D01*
X87227Y-29099D01*
X87180Y-29030D01*
X87122Y-28970D01*
X87053Y-28924D01*
X86976Y-28892D01*
X86894Y-28875D01*
X86811Y-28874D01*
X86729Y-28890D01*
X86652Y-28921D01*
X86582Y-28967D01*
X86522Y-29025D01*
X86475Y-29094D01*
X86442Y-29170D01*
X86425Y-29252D01*
X86424Y-29300D01*
X85975Y-29750D01*
X84074Y-29750D01*
X84149Y-29675D01*
X84182Y-29675D01*
X84264Y-29661D01*
X84342Y-29631D01*
X84412Y-29586D01*
X84473Y-29529D01*
X84521Y-29460D01*
X84555Y-29384D01*
X84573Y-29303D01*
X84575Y-29208D01*
X84558Y-29126D01*
X84527Y-29049D01*
X84480Y-28980D01*
X84422Y-28920D01*
X84353Y-28874D01*
X84276Y-28842D01*
X84194Y-28825D01*
X84111Y-28824D01*
X84029Y-28840D01*
X83952Y-28871D01*
X83882Y-28917D01*
X83822Y-28975D01*
X83775Y-29044D01*
X83742Y-29120D01*
X83725Y-29202D01*
X83724Y-29250D01*
X83625Y-29350D01*
X81773Y-29350D01*
X81775Y-29258D01*
X81758Y-29176D01*
X81727Y-29099D01*
X81680Y-29030D01*
X81622Y-28970D01*
X81553Y-28924D01*
X81476Y-28892D01*
X81394Y-28875D01*
X81311Y-28874D01*
X81229Y-28890D01*
X81152Y-28921D01*
X81082Y-28967D01*
X81048Y-29000D01*
X78550Y-29000D01*
X78521Y-29002D01*
X78505Y-29004D01*
X78472Y-28970D01*
X78403Y-28924D01*
X78326Y-28892D01*
X78244Y-28875D01*
X78161Y-28874D01*
X78079Y-28890D01*
X78002Y-28921D01*
X77932Y-28967D01*
X77872Y-29025D01*
X77858Y-29046D01*
X77842Y-29037D01*
X77818Y-29024D01*
X77816Y-29023D01*
X77815Y-29023D01*
X77788Y-29014D01*
X77762Y-29006D01*
X77760Y-29006D01*
X77759Y-29005D01*
X77731Y-29003D01*
X77704Y-29000D01*
X77701Y-29000D01*
X77701Y-29000D01*
X77700Y-29000D01*
X77700Y-29000D01*
X75751Y-29000D01*
X75722Y-28970D01*
X75653Y-28924D01*
X75576Y-28892D01*
X75494Y-28875D01*
X75411Y-28874D01*
X75329Y-28890D01*
X75252Y-28921D01*
X75182Y-28967D01*
X75122Y-29025D01*
X75075Y-29094D01*
X75042Y-29170D01*
X75025Y-29252D01*
X75024Y-29335D01*
X75027Y-29350D01*
X73274Y-29350D01*
X73174Y-29250D01*
X73175Y-29208D01*
X73158Y-29126D01*
X73127Y-29049D01*
X73080Y-28980D01*
X73022Y-28920D01*
X72953Y-28874D01*
X72876Y-28842D01*
X72794Y-28825D01*
X72711Y-28824D01*
X72629Y-28840D01*
X72552Y-28871D01*
X72482Y-28917D01*
X72422Y-28975D01*
X72375Y-29044D01*
X72342Y-29120D01*
X72325Y-29202D01*
X72324Y-29285D01*
X72339Y-29367D01*
X72370Y-29445D01*
X72415Y-29515D01*
X72473Y-29575D01*
X72541Y-29622D01*
X72618Y-29656D01*
X72699Y-29674D01*
X72750Y-29675D01*
X72775Y-29700D01*
X70874Y-29700D01*
X70424Y-29250D01*
X70425Y-29208D01*
X70408Y-29126D01*
X70377Y-29049D01*
X70330Y-28980D01*
X70272Y-28920D01*
X70203Y-28874D01*
X70126Y-28842D01*
X70044Y-28825D01*
X69961Y-28824D01*
X69879Y-28840D01*
X69802Y-28871D01*
X69732Y-28917D01*
X69672Y-28975D01*
X69625Y-29044D01*
X69592Y-29120D01*
X69575Y-29202D01*
X69574Y-29285D01*
X69589Y-29367D01*
X69620Y-29445D01*
X69665Y-29515D01*
X69723Y-29575D01*
X69791Y-29622D01*
X69868Y-29656D01*
X69949Y-29674D01*
X70000Y-29675D01*
X70537Y-30212D01*
X70559Y-30229D01*
X70580Y-30247D01*
X70581Y-30248D01*
X70583Y-30249D01*
X70607Y-30262D01*
X70631Y-30275D01*
X70633Y-30276D01*
X70634Y-30276D01*
X70661Y-30285D01*
X70687Y-30293D01*
X70689Y-30293D01*
X70690Y-30294D01*
X70718Y-30296D01*
X70745Y-30299D01*
X70748Y-30299D01*
X70748Y-30299D01*
X70749Y-30299D01*
X70750Y-30300D01*
X75975Y-30300D01*
X76674Y-30999D01*
X76674Y-31035D01*
X76689Y-31117D01*
X76720Y-31195D01*
X76765Y-31265D01*
X76823Y-31325D01*
X76891Y-31372D01*
X76968Y-31406D01*
X77049Y-31424D01*
X77132Y-31425D01*
X77214Y-31411D01*
X77250Y-31397D01*
X77250Y-35055D01*
X77203Y-35024D01*
X77126Y-34992D01*
X77044Y-34975D01*
X76961Y-34974D01*
X76879Y-34990D01*
X76802Y-35021D01*
X76732Y-35067D01*
X76672Y-35125D01*
X76625Y-35194D01*
X76592Y-35270D01*
X76575Y-35352D01*
X76575Y-35388D01*
X74049Y-37759D01*
X74050Y-37746D01*
X74029Y-37640D01*
X73987Y-37540D01*
X73928Y-37450D01*
X73852Y-37374D01*
X73762Y-37313D01*
X73663Y-37272D01*
X73557Y-37250D01*
X73449Y-37249D01*
X73343Y-37269D01*
X73243Y-37310D01*
X73153Y-37369D01*
X73076Y-37444D01*
X73015Y-37533D01*
X73000Y-37570D01*
X72987Y-37540D01*
X72928Y-37450D01*
X72852Y-37374D01*
X72762Y-37313D01*
X72663Y-37272D01*
X72557Y-37250D01*
X72449Y-37249D01*
X72343Y-37269D01*
X72243Y-37310D01*
X72153Y-37369D01*
X72076Y-37444D01*
X72050Y-37483D01*
X72050Y-37475D01*
X72040Y-37427D01*
X72021Y-37382D01*
X71994Y-37341D01*
X71960Y-37306D01*
X71919Y-37279D01*
X71874Y-37260D01*
X71826Y-37250D01*
X71777Y-37249D01*
X71175Y-37249D01*
X71127Y-37259D01*
X71082Y-37278D01*
X71041Y-37305D01*
X71006Y-37339D01*
X70979Y-37380D01*
X70960Y-37425D01*
X70950Y-37473D01*
X70949Y-37522D01*
X70949Y-38124D01*
X70959Y-38172D01*
X70978Y-38217D01*
X71005Y-38258D01*
X71039Y-38293D01*
X71066Y-38311D01*
X71064Y-38314D01*
X70314Y-39264D01*
X70309Y-39272D01*
X70302Y-39280D01*
X70293Y-39297D01*
X70282Y-39313D01*
X70279Y-39322D01*
X70274Y-39331D01*
X70268Y-39350D01*
X70261Y-39367D01*
X70259Y-39377D01*
X70256Y-39387D01*
X70254Y-39406D01*
X70251Y-39425D01*
X70251Y-39435D01*
X70250Y-39445D01*
X70250Y-39450D01*
X70250Y-40750D01*
X69873Y-40750D01*
X69875Y-40658D01*
X69858Y-40576D01*
X69827Y-40499D01*
X69780Y-40430D01*
X69745Y-40394D01*
X69749Y-40393D01*
X69840Y-40335D01*
X69918Y-40261D01*
X69980Y-40172D01*
X70024Y-40074D01*
X70048Y-39969D01*
X70050Y-39846D01*
X70029Y-39740D01*
X69987Y-39640D01*
X69928Y-39550D01*
X69852Y-39474D01*
X69762Y-39413D01*
X69730Y-39400D01*
X69749Y-39393D01*
X69840Y-39335D01*
X69918Y-39261D01*
X69980Y-39172D01*
X70024Y-39074D01*
X70048Y-38969D01*
X70050Y-38846D01*
X70029Y-38740D01*
X69987Y-38640D01*
X69928Y-38550D01*
X69852Y-38474D01*
X69816Y-38450D01*
X69824Y-38450D01*
X69872Y-38440D01*
X69917Y-38421D01*
X69958Y-38394D01*
X69993Y-38360D01*
X70020Y-38319D01*
X70039Y-38274D01*
X70049Y-38226D01*
X70050Y-38177D01*
X70050Y-37575D01*
X70040Y-37527D01*
X70021Y-37482D01*
X69994Y-37441D01*
X69960Y-37406D01*
X69919Y-37379D01*
X69874Y-37360D01*
X69826Y-37350D01*
X69800Y-37349D01*
X69800Y-36924D01*
X70849Y-35875D01*
X70882Y-35875D01*
X70964Y-35861D01*
X71042Y-35831D01*
X71112Y-35786D01*
X71173Y-35729D01*
X71221Y-35660D01*
X71255Y-35584D01*
X71273Y-35503D01*
X71275Y-35408D01*
X71258Y-35326D01*
X71227Y-35249D01*
X71180Y-35180D01*
X71122Y-35120D01*
X71053Y-35074D01*
X70976Y-35042D01*
X70894Y-35025D01*
X70811Y-35024D01*
X70729Y-35040D01*
X70652Y-35071D01*
X70582Y-35117D01*
X70522Y-35175D01*
X70475Y-35244D01*
X70442Y-35320D01*
X70425Y-35402D01*
X70424Y-35450D01*
X69287Y-36587D01*
X69270Y-36609D01*
X69252Y-36630D01*
X69251Y-36631D01*
X69250Y-36633D01*
X69237Y-36657D01*
X69224Y-36681D01*
X69223Y-36683D01*
X69223Y-36684D01*
X69214Y-36711D01*
X69206Y-36737D01*
X69206Y-36739D01*
X69205Y-36740D01*
X69203Y-36768D01*
X69200Y-36795D01*
X69200Y-36798D01*
X69200Y-36798D01*
X69200Y-36799D01*
X69200Y-36800D01*
X69200Y-37349D01*
X69175Y-37349D01*
X69127Y-37359D01*
X69082Y-37378D01*
X69041Y-37405D01*
X69006Y-37439D01*
X68979Y-37480D01*
X68960Y-37525D01*
X68950Y-37573D01*
X68949Y-37622D01*
X68949Y-38224D01*
X68959Y-38272D01*
X68978Y-38317D01*
X69005Y-38358D01*
X69039Y-38393D01*
X69080Y-38420D01*
X69125Y-38439D01*
X69173Y-38449D01*
X69183Y-38449D01*
X69153Y-38469D01*
X69076Y-38544D01*
X69015Y-38633D01*
X68973Y-38732D01*
X68950Y-38838D01*
X68949Y-38946D01*
X68968Y-39052D01*
X69008Y-39152D01*
X69066Y-39243D01*
X69141Y-39320D01*
X69230Y-39382D01*
X69269Y-39399D01*
X69243Y-39410D01*
X69153Y-39469D01*
X69076Y-39544D01*
X69015Y-39633D01*
X68973Y-39732D01*
X68950Y-39838D01*
X68949Y-39946D01*
X68968Y-40052D01*
X69008Y-40152D01*
X69066Y-40243D01*
X69141Y-40320D01*
X69195Y-40358D01*
X69182Y-40367D01*
X69148Y-40400D01*
X68824Y-40400D01*
X68300Y-39875D01*
X68300Y-28350D01*
X76662Y-28350D01*
X76674Y-28348D01*
X76685Y-28349D01*
X76703Y-28346D01*
X76720Y-28344D01*
X76731Y-28340D01*
X76743Y-28338D01*
X76759Y-28332D01*
X76776Y-28327D01*
X76787Y-28321D01*
X76797Y-28317D01*
X76812Y-28308D01*
X76828Y-28299D01*
X76837Y-28292D01*
X76847Y-28286D01*
X76850Y-28283D01*
X78976Y-26574D01*
X78979Y-26575D01*
X79084Y-26598D01*
X79192Y-26601D01*
X79298Y-26582D01*
X79399Y-26543D01*
X79490Y-26485D01*
X79568Y-26411D01*
X79630Y-26322D01*
X79649Y-26280D01*
X79658Y-26302D01*
X79716Y-26393D01*
X79791Y-26470D01*
X79880Y-26532D01*
X79979Y-26575D01*
X80084Y-26598D01*
X80192Y-26601D01*
X80298Y-26582D01*
X80399Y-26543D01*
X80490Y-26485D01*
X80568Y-26411D01*
X80630Y-26322D01*
X80674Y-26224D01*
X80698Y-26119D01*
X80700Y-25996D01*
X80679Y-25890D01*
X80637Y-25790D01*
X80600Y-25733D01*
X80600Y-25092D01*
X80599Y-25004D01*
X80583Y-24920D01*
X80529Y-24882D01*
X80362Y-25050D01*
X80529Y-25217D01*
X80583Y-25179D01*
X80600Y-25092D01*
X80600Y-25733D01*
X80578Y-25700D01*
X80502Y-25624D01*
X80412Y-25563D01*
X80313Y-25522D01*
X80207Y-25500D01*
X80155Y-25500D01*
X80195Y-25499D01*
X80279Y-25483D01*
X80317Y-25429D01*
X80317Y-24670D01*
X80279Y-24616D01*
X80192Y-24599D01*
X80104Y-24600D01*
X80020Y-24616D01*
X79982Y-24670D01*
X80150Y-24837D01*
X80317Y-24670D01*
X80317Y-25429D01*
X80150Y-25262D01*
X79982Y-25429D01*
X80020Y-25483D01*
X80104Y-25499D01*
X80099Y-25499D01*
X79993Y-25519D01*
X79893Y-25560D01*
X79803Y-25619D01*
X79726Y-25694D01*
X79665Y-25783D01*
X79650Y-25820D01*
X79637Y-25790D01*
X79578Y-25700D01*
X79502Y-25624D01*
X79412Y-25563D01*
X79380Y-25550D01*
X79399Y-25543D01*
X79490Y-25485D01*
X79568Y-25411D01*
X79630Y-25322D01*
X79674Y-25224D01*
X79698Y-25119D01*
X79699Y-25008D01*
X79700Y-25095D01*
X79716Y-25179D01*
X79770Y-25217D01*
X79937Y-25050D01*
X79770Y-24882D01*
X79716Y-24920D01*
X79699Y-25007D01*
X79700Y-24996D01*
X79679Y-24890D01*
X79637Y-24790D01*
X79578Y-24700D01*
X79502Y-24624D01*
X79412Y-24563D01*
X79313Y-24522D01*
X79207Y-24500D01*
X79099Y-24499D01*
X78993Y-24519D01*
X78893Y-24560D01*
X78803Y-24619D01*
X78726Y-24694D01*
X78665Y-24783D01*
X78650Y-24820D01*
X78637Y-24790D01*
X78578Y-24700D01*
X78502Y-24624D01*
X78412Y-24563D01*
X78313Y-24522D01*
X78207Y-24500D01*
X78099Y-24499D01*
X77993Y-24519D01*
X77893Y-24560D01*
X77803Y-24619D01*
X77726Y-24694D01*
X77665Y-24783D01*
X77623Y-24882D01*
X77600Y-24988D01*
X77599Y-25096D01*
X77618Y-25202D01*
X77658Y-25302D01*
X77716Y-25393D01*
X77791Y-25470D01*
X77833Y-25499D01*
X77825Y-25499D01*
X77777Y-25509D01*
X77732Y-25528D01*
X77691Y-25555D01*
X77656Y-25589D01*
X77629Y-25630D01*
X77610Y-25675D01*
X77600Y-25723D01*
X77599Y-25772D01*
X77599Y-26089D01*
X76011Y-27300D01*
X70951Y-27300D01*
X70922Y-27270D01*
X70853Y-27224D01*
X70776Y-27192D01*
X70694Y-27175D01*
X70611Y-27174D01*
X70529Y-27190D01*
X70452Y-27221D01*
X70382Y-27267D01*
X70322Y-27325D01*
X70275Y-27394D01*
X70242Y-27470D01*
X70225Y-27552D01*
X70224Y-27635D01*
X70239Y-27717D01*
X70252Y-27750D01*
X68000Y-27750D01*
X67971Y-27752D01*
X67943Y-27755D01*
X67942Y-27755D01*
X67941Y-27755D01*
X67914Y-27763D01*
X67887Y-27771D01*
X67886Y-27772D01*
X67885Y-27772D01*
X67860Y-27785D01*
X67835Y-27798D01*
X67834Y-27799D01*
X67833Y-27800D01*
X67812Y-27817D01*
X67790Y-27835D01*
X67789Y-27836D01*
X67788Y-27837D01*
X67770Y-27858D01*
X67752Y-27880D01*
X67751Y-27881D01*
X67751Y-27882D01*
X67737Y-27907D01*
X67724Y-27931D01*
X67723Y-27932D01*
X67723Y-27933D01*
X67715Y-27960D01*
X67706Y-27987D01*
X67706Y-27988D01*
X67706Y-27989D01*
X67703Y-28017D01*
X67700Y-28045D01*
X67700Y-28047D01*
X67700Y-28047D01*
X67700Y-28047D01*
X67700Y-28050D01*
X67700Y-32658D01*
X67680Y-32630D01*
X67622Y-32570D01*
X67553Y-32524D01*
X67476Y-32492D01*
X67394Y-32475D01*
X67311Y-32474D01*
X67229Y-32490D01*
X67152Y-32521D01*
X67082Y-32567D01*
X67022Y-32625D01*
X66975Y-32694D01*
X66942Y-32770D01*
X66925Y-32852D01*
X66924Y-32900D01*
X65387Y-34437D01*
X65370Y-34459D01*
X65352Y-34480D01*
X65351Y-34481D01*
X65350Y-34483D01*
X65337Y-34507D01*
X65324Y-34531D01*
X65323Y-34533D01*
X65323Y-34534D01*
X65314Y-34561D01*
X65306Y-34587D01*
X65306Y-34589D01*
X65305Y-34590D01*
X65303Y-34618D01*
X65300Y-34645D01*
X65300Y-34648D01*
X65300Y-34648D01*
X65300Y-34649D01*
X65300Y-34650D01*
X65300Y-36275D01*
X63550Y-38025D01*
X63550Y-36077D01*
X63550Y-35475D01*
X63540Y-35427D01*
X63521Y-35382D01*
X63494Y-35341D01*
X63460Y-35306D01*
X63419Y-35279D01*
X63374Y-35260D01*
X63326Y-35250D01*
X63277Y-35249D01*
X62675Y-35249D01*
X62627Y-35259D01*
X62582Y-35278D01*
X62541Y-35305D01*
X62506Y-35339D01*
X62479Y-35380D01*
X62460Y-35425D01*
X62450Y-35473D01*
X62449Y-35522D01*
X62449Y-36124D01*
X62459Y-36172D01*
X62478Y-36217D01*
X62505Y-36258D01*
X62539Y-36293D01*
X62580Y-36320D01*
X62625Y-36339D01*
X62673Y-36349D01*
X62722Y-36350D01*
X63324Y-36350D01*
X63372Y-36340D01*
X63417Y-36321D01*
X63458Y-36294D01*
X63493Y-36260D01*
X63520Y-36219D01*
X63539Y-36174D01*
X63549Y-36126D01*
X63550Y-36077D01*
X63550Y-38025D01*
X63187Y-38387D01*
X63170Y-38409D01*
X63152Y-38430D01*
X63151Y-38431D01*
X63150Y-38433D01*
X63150Y-38434D01*
X63150Y-37527D01*
X63150Y-36925D01*
X63140Y-36877D01*
X63121Y-36832D01*
X63094Y-36791D01*
X63060Y-36756D01*
X63019Y-36729D01*
X62974Y-36710D01*
X62926Y-36700D01*
X62877Y-36699D01*
X62275Y-36699D01*
X62227Y-36709D01*
X62182Y-36728D01*
X62141Y-36755D01*
X62106Y-36789D01*
X62079Y-36830D01*
X62060Y-36875D01*
X62050Y-36923D01*
X62049Y-36972D01*
X62049Y-37574D01*
X62059Y-37622D01*
X62078Y-37667D01*
X62105Y-37708D01*
X62139Y-37743D01*
X62180Y-37770D01*
X62225Y-37789D01*
X62273Y-37799D01*
X62322Y-37800D01*
X62924Y-37800D01*
X62972Y-37790D01*
X63017Y-37771D01*
X63058Y-37744D01*
X63093Y-37710D01*
X63120Y-37669D01*
X63139Y-37624D01*
X63149Y-37576D01*
X63150Y-37527D01*
X63150Y-38434D01*
X63137Y-38457D01*
X63124Y-38481D01*
X63123Y-38483D01*
X63123Y-38484D01*
X63114Y-38511D01*
X63106Y-38537D01*
X63106Y-38539D01*
X63105Y-38540D01*
X63103Y-38568D01*
X63100Y-38595D01*
X63100Y-38598D01*
X63100Y-38598D01*
X63100Y-38599D01*
X63100Y-38600D01*
X63100Y-42675D01*
X62650Y-43125D01*
X62650Y-40777D01*
X62650Y-40175D01*
X62640Y-40127D01*
X62621Y-40082D01*
X62600Y-40049D01*
X62600Y-39086D01*
X62600Y-38513D01*
X62599Y-38484D01*
X62593Y-38455D01*
X62582Y-38428D01*
X62566Y-38403D01*
X62545Y-38383D01*
X62520Y-38366D01*
X62493Y-38355D01*
X62464Y-38349D01*
X62337Y-38350D01*
X62300Y-38387D01*
X62300Y-38650D01*
X62562Y-38650D01*
X62600Y-38612D01*
X62600Y-38513D01*
X62600Y-39086D01*
X62600Y-38987D01*
X62562Y-38950D01*
X62300Y-38950D01*
X62300Y-39212D01*
X62337Y-39250D01*
X62464Y-39250D01*
X62493Y-39244D01*
X62520Y-39233D01*
X62545Y-39216D01*
X62566Y-39196D01*
X62582Y-39171D01*
X62593Y-39144D01*
X62599Y-39115D01*
X62600Y-39086D01*
X62600Y-40049D01*
X62594Y-40041D01*
X62560Y-40006D01*
X62519Y-39979D01*
X62474Y-39960D01*
X62426Y-39950D01*
X62377Y-39949D01*
X62000Y-39949D01*
X62000Y-39212D01*
X62000Y-38950D01*
X62000Y-38650D01*
X62000Y-38387D01*
X61962Y-38350D01*
X61835Y-38349D01*
X61806Y-38355D01*
X61779Y-38366D01*
X61754Y-38383D01*
X61733Y-38403D01*
X61717Y-38428D01*
X61706Y-38455D01*
X61700Y-38484D01*
X61699Y-38513D01*
X61700Y-38612D01*
X61737Y-38650D01*
X62000Y-38650D01*
X62000Y-38950D01*
X61737Y-38950D01*
X61700Y-38987D01*
X61699Y-39086D01*
X61700Y-39115D01*
X61706Y-39144D01*
X61717Y-39171D01*
X61733Y-39196D01*
X61754Y-39216D01*
X61779Y-39233D01*
X61806Y-39244D01*
X61835Y-39250D01*
X61962Y-39250D01*
X62000Y-39212D01*
X62000Y-39949D01*
X61775Y-39949D01*
X61727Y-39959D01*
X61682Y-39978D01*
X61641Y-40005D01*
X61606Y-40039D01*
X61579Y-40080D01*
X61560Y-40125D01*
X61550Y-40173D01*
X61549Y-40222D01*
X61549Y-40824D01*
X61559Y-40872D01*
X61578Y-40917D01*
X61605Y-40958D01*
X61639Y-40993D01*
X61680Y-41020D01*
X61725Y-41039D01*
X61773Y-41049D01*
X61822Y-41050D01*
X62424Y-41050D01*
X62472Y-41040D01*
X62517Y-41021D01*
X62558Y-40994D01*
X62593Y-40960D01*
X62620Y-40919D01*
X62639Y-40874D01*
X62649Y-40826D01*
X62650Y-40777D01*
X62650Y-43125D01*
X62600Y-43175D01*
X62600Y-42377D01*
X62600Y-41775D01*
X62590Y-41727D01*
X62571Y-41682D01*
X62544Y-41641D01*
X62510Y-41606D01*
X62469Y-41579D01*
X62424Y-41560D01*
X62376Y-41550D01*
X62327Y-41549D01*
X61725Y-41549D01*
X61677Y-41559D01*
X61632Y-41578D01*
X61591Y-41605D01*
X61556Y-41639D01*
X61529Y-41680D01*
X61510Y-41725D01*
X61500Y-41773D01*
X61499Y-41822D01*
X61499Y-42424D01*
X61509Y-42472D01*
X61528Y-42517D01*
X61555Y-42558D01*
X61589Y-42593D01*
X61630Y-42620D01*
X61675Y-42639D01*
X61723Y-42649D01*
X61772Y-42650D01*
X62374Y-42650D01*
X62422Y-42640D01*
X62467Y-42621D01*
X62508Y-42594D01*
X62543Y-42560D01*
X62570Y-42519D01*
X62589Y-42474D01*
X62599Y-42426D01*
X62600Y-42377D01*
X62600Y-43175D01*
X62585Y-43189D01*
X62569Y-43179D01*
X62524Y-43160D01*
X62476Y-43150D01*
X62427Y-43149D01*
X61825Y-43149D01*
X61777Y-43159D01*
X61732Y-43178D01*
X61691Y-43205D01*
X61656Y-43239D01*
X61629Y-43280D01*
X61610Y-43325D01*
X61600Y-43373D01*
X61599Y-43422D01*
X61599Y-44024D01*
X61609Y-44072D01*
X61628Y-44117D01*
X61655Y-44158D01*
X61689Y-44193D01*
X61730Y-44220D01*
X61775Y-44239D01*
X61823Y-44249D01*
X61872Y-44250D01*
X62474Y-44250D01*
X62522Y-44240D01*
X62567Y-44221D01*
X62608Y-44194D01*
X62643Y-44160D01*
X62670Y-44119D01*
X62689Y-44074D01*
X62699Y-44026D01*
X62700Y-44000D01*
X67625Y-44000D01*
X68774Y-45149D01*
X68774Y-45185D01*
X68789Y-45267D01*
X68820Y-45345D01*
X68865Y-45415D01*
X68923Y-45475D01*
X68991Y-45522D01*
X69068Y-45556D01*
X69149Y-45574D01*
X69232Y-45575D01*
X69300Y-45563D01*
X69300Y-45698D01*
X69272Y-45725D01*
X69225Y-45794D01*
X69192Y-45870D01*
X69175Y-45952D01*
X69174Y-46035D01*
X69189Y-46117D01*
X69220Y-46195D01*
X69265Y-46265D01*
X69323Y-46325D01*
X69391Y-46372D01*
X69468Y-46406D01*
X69549Y-46424D01*
X69632Y-46425D01*
X69714Y-46411D01*
X69792Y-46381D01*
X69862Y-46336D01*
X69923Y-46279D01*
X69971Y-46210D01*
X70005Y-46134D01*
X70023Y-46053D01*
X70025Y-45958D01*
X70008Y-45876D01*
X69977Y-45799D01*
X69930Y-45730D01*
X69900Y-45698D01*
X69900Y-45294D01*
X69920Y-45345D01*
X69965Y-45415D01*
X70023Y-45475D01*
X70091Y-45522D01*
X70168Y-45556D01*
X70249Y-45574D01*
X70332Y-45575D01*
X70414Y-45561D01*
X70492Y-45531D01*
X70562Y-45486D01*
X70623Y-45429D01*
X70630Y-45418D01*
X70638Y-45414D01*
X70663Y-45401D01*
X70664Y-45400D01*
X70666Y-45399D01*
X70687Y-45382D01*
X70709Y-45365D01*
X70711Y-45362D01*
X70711Y-45362D01*
X70711Y-45362D01*
X70712Y-45362D01*
X71249Y-44825D01*
X71282Y-44825D01*
X71364Y-44811D01*
X71442Y-44781D01*
X71512Y-44736D01*
X71573Y-44679D01*
X71621Y-44610D01*
X71655Y-44534D01*
X71673Y-44453D01*
X71675Y-44358D01*
X71658Y-44276D01*
X71627Y-44199D01*
X71580Y-44130D01*
X71522Y-44070D01*
X71453Y-44024D01*
X71376Y-43992D01*
X71294Y-43975D01*
X71211Y-43974D01*
X71129Y-43990D01*
X71052Y-44021D01*
X70982Y-44067D01*
X70922Y-44125D01*
X70875Y-44194D01*
X70842Y-44270D01*
X70825Y-44352D01*
X70824Y-44400D01*
X70466Y-44759D01*
X70426Y-44742D01*
X70344Y-44725D01*
X70261Y-44724D01*
X70179Y-44740D01*
X70102Y-44771D01*
X70032Y-44817D01*
X69972Y-44875D01*
X69925Y-44944D01*
X69900Y-45004D01*
X69900Y-43500D01*
X70307Y-42963D01*
X70320Y-42995D01*
X70365Y-43065D01*
X70423Y-43125D01*
X70491Y-43172D01*
X70568Y-43206D01*
X70649Y-43224D01*
X70732Y-43225D01*
X70814Y-43211D01*
X70892Y-43181D01*
X70962Y-43136D01*
X71023Y-43079D01*
X71071Y-43010D01*
X71076Y-43000D01*
X75648Y-43000D01*
X75673Y-43025D01*
X75741Y-43072D01*
X75818Y-43106D01*
X75899Y-43124D01*
X75982Y-43125D01*
X76030Y-43117D01*
X76039Y-43167D01*
X76070Y-43245D01*
X76100Y-43291D01*
X76100Y-44450D01*
X73927Y-44450D01*
X73927Y-44449D01*
X73880Y-44380D01*
X73822Y-44320D01*
X73753Y-44274D01*
X73676Y-44242D01*
X73594Y-44225D01*
X73511Y-44224D01*
X73429Y-44240D01*
X73352Y-44271D01*
X73282Y-44317D01*
X73222Y-44375D01*
X73175Y-44444D01*
X73142Y-44520D01*
X73125Y-44602D01*
X73124Y-44685D01*
X73139Y-44767D01*
X73170Y-44845D01*
X73215Y-44915D01*
X73273Y-44975D01*
X73341Y-45022D01*
X73418Y-45056D01*
X73479Y-45069D01*
X73502Y-45088D01*
X73503Y-45089D01*
X73505Y-45090D01*
X73533Y-45106D01*
X73562Y-45121D01*
X73563Y-45122D01*
X73565Y-45123D01*
X73596Y-45132D01*
X73627Y-45142D01*
X73629Y-45142D01*
X73630Y-45143D01*
X73662Y-45146D01*
X73695Y-45149D01*
X73698Y-45149D01*
X73698Y-45149D01*
X73698Y-45149D01*
X73700Y-45150D01*
X76450Y-45150D01*
X76482Y-45146D01*
X76515Y-45143D01*
X76516Y-45143D01*
X76517Y-45143D01*
X76549Y-45133D01*
X76581Y-45124D01*
X76582Y-45123D01*
X76583Y-45123D01*
X76612Y-45108D01*
X76641Y-45092D01*
X76642Y-45092D01*
X76643Y-45091D01*
X76669Y-45070D01*
X76694Y-45050D01*
X76695Y-45049D01*
X76696Y-45048D01*
X76717Y-45022D01*
X76738Y-44997D01*
X76739Y-44996D01*
X76740Y-44995D01*
X76755Y-44966D01*
X76771Y-44937D01*
X76772Y-44936D01*
X76772Y-44935D01*
X76782Y-44904D01*
X76786Y-44892D01*
X76818Y-44906D01*
X76899Y-44924D01*
X76982Y-44925D01*
X77064Y-44911D01*
X77142Y-44881D01*
X77212Y-44836D01*
X77273Y-44779D01*
X77321Y-44710D01*
X77355Y-44634D01*
X77373Y-44553D01*
X77375Y-44458D01*
X77358Y-44376D01*
X77327Y-44299D01*
X77300Y-44258D01*
X77300Y-42800D01*
X77297Y-42772D01*
X77294Y-42744D01*
X77294Y-42743D01*
X77294Y-42741D01*
X77286Y-42715D01*
X77278Y-42688D01*
X77277Y-42687D01*
X77277Y-42685D01*
X77264Y-42661D01*
X77251Y-42636D01*
X77250Y-42635D01*
X77249Y-42633D01*
X77232Y-42612D01*
X77215Y-42590D01*
X77212Y-42588D01*
X77212Y-42588D01*
X77212Y-42588D01*
X77212Y-42587D01*
X76612Y-41987D01*
X76590Y-41970D01*
X76569Y-41952D01*
X76568Y-41951D01*
X76566Y-41950D01*
X76542Y-41937D01*
X76518Y-41924D01*
X76516Y-41923D01*
X76515Y-41923D01*
X76488Y-41914D01*
X76462Y-41906D01*
X76460Y-41906D01*
X76459Y-41905D01*
X76431Y-41903D01*
X76404Y-41900D01*
X76401Y-41900D01*
X76401Y-41900D01*
X76400Y-41900D01*
X76400Y-41900D01*
X75050Y-41900D01*
X75022Y-41902D01*
X74994Y-41905D01*
X74993Y-41905D01*
X74991Y-41905D01*
X74965Y-41913D01*
X74938Y-41921D01*
X74937Y-41922D01*
X74935Y-41922D01*
X74911Y-41935D01*
X74886Y-41948D01*
X74885Y-41949D01*
X74883Y-41950D01*
X74862Y-41967D01*
X74840Y-41984D01*
X74838Y-41987D01*
X74838Y-41987D01*
X74838Y-41987D01*
X74837Y-41987D01*
X74605Y-42219D01*
X71994Y-42219D01*
X71483Y-41709D01*
X71549Y-41724D01*
X71632Y-41725D01*
X71714Y-41711D01*
X71792Y-41681D01*
X71862Y-41636D01*
X71901Y-41600D01*
X74650Y-41600D01*
X74677Y-41597D01*
X74705Y-41594D01*
X74706Y-41594D01*
X74708Y-41594D01*
X74734Y-41586D01*
X74761Y-41578D01*
X74762Y-41577D01*
X74764Y-41577D01*
X74788Y-41564D01*
X74813Y-41551D01*
X74814Y-41550D01*
X74816Y-41549D01*
X74837Y-41532D01*
X74859Y-41515D01*
X74861Y-41512D01*
X74861Y-41512D01*
X74861Y-41512D01*
X74862Y-41512D01*
X75912Y-40462D01*
X75929Y-40440D01*
X75947Y-40419D01*
X75948Y-40418D01*
X75949Y-40416D01*
X75962Y-40392D01*
X75975Y-40368D01*
X75976Y-40366D01*
X75976Y-40365D01*
X75985Y-40338D01*
X75993Y-40312D01*
X75993Y-40310D01*
X75994Y-40309D01*
X75996Y-40281D01*
X75999Y-40254D01*
X75999Y-40251D01*
X75999Y-40251D01*
X75999Y-40250D01*
X76000Y-40250D01*
X76000Y-37451D01*
X76023Y-37429D01*
X76071Y-37360D01*
X76105Y-37284D01*
X76123Y-37203D01*
X76125Y-37108D01*
X76108Y-37026D01*
X76077Y-36949D01*
X76030Y-36880D01*
X75972Y-36820D01*
X75945Y-36802D01*
X76987Y-35824D01*
X77032Y-35825D01*
X77114Y-35811D01*
X77192Y-35781D01*
X77250Y-35744D01*
X77250Y-39400D01*
X77252Y-39427D01*
X77255Y-39455D01*
X77255Y-39456D01*
X77255Y-39458D01*
X77263Y-39484D01*
X77271Y-39511D01*
X77272Y-39512D01*
X77272Y-39514D01*
X77285Y-39538D01*
X77298Y-39563D01*
X77299Y-39564D01*
X77300Y-39566D01*
X77317Y-39587D01*
X77334Y-39609D01*
X77337Y-39611D01*
X77337Y-39611D01*
X77337Y-39611D01*
X77337Y-39612D01*
X81849Y-44123D01*
X81782Y-44167D01*
X81722Y-44225D01*
X81675Y-44294D01*
X81642Y-44370D01*
X81625Y-44452D01*
X81624Y-44535D01*
X81639Y-44617D01*
X81670Y-44695D01*
X81715Y-44765D01*
X81773Y-44825D01*
X81841Y-44872D01*
X81918Y-44906D01*
X81999Y-44924D01*
X82050Y-44925D01*
X82950Y-45824D01*
X82950Y-47898D01*
X82922Y-47925D01*
X82875Y-47994D01*
X82842Y-48070D01*
X82825Y-48152D01*
X82824Y-48235D01*
X82839Y-48317D01*
X82870Y-48395D01*
X82915Y-48465D01*
X82973Y-48525D01*
X83041Y-48572D01*
X83118Y-48606D01*
X83199Y-48624D01*
X83282Y-48625D01*
X83364Y-48611D01*
X83442Y-48581D01*
X83512Y-48536D01*
X83573Y-48479D01*
X83621Y-48410D01*
X83655Y-48334D01*
X83673Y-48253D01*
X83675Y-48158D01*
X83658Y-48076D01*
X83627Y-47999D01*
X83580Y-47930D01*
X83550Y-47898D01*
X83550Y-45824D01*
X84164Y-46438D01*
X84125Y-46494D01*
X84092Y-46570D01*
X84075Y-46652D01*
X84074Y-46735D01*
X84089Y-46817D01*
X84120Y-46895D01*
X84165Y-46965D01*
X84223Y-47025D01*
X84291Y-47072D01*
X84368Y-47106D01*
X84449Y-47124D01*
X84532Y-47125D01*
X84614Y-47111D01*
X84692Y-47081D01*
X84724Y-47060D01*
X84741Y-47072D01*
X84818Y-47106D01*
X84899Y-47124D01*
X84982Y-47125D01*
X85064Y-47111D01*
X85142Y-47081D01*
X85212Y-47036D01*
X85224Y-47025D01*
X85291Y-47072D01*
X85368Y-47106D01*
X85449Y-47124D01*
X85532Y-47125D01*
X85614Y-47111D01*
X85692Y-47081D01*
X85724Y-47060D01*
X85741Y-47072D01*
X85818Y-47106D01*
X85899Y-47124D01*
X85982Y-47125D01*
X86064Y-47111D01*
X86142Y-47081D01*
X86200Y-47044D01*
X86241Y-47072D01*
X86318Y-47106D01*
X86399Y-47124D01*
X86482Y-47125D01*
X86564Y-47111D01*
X86642Y-47081D01*
X86700Y-47044D01*
X86741Y-47072D01*
X86818Y-47106D01*
X86899Y-47124D01*
X86982Y-47125D01*
X87064Y-47111D01*
X87142Y-47081D01*
X87200Y-47044D01*
X87241Y-47072D01*
X87318Y-47106D01*
X87399Y-47124D01*
X87482Y-47125D01*
X87564Y-47111D01*
X87642Y-47081D01*
X87712Y-47036D01*
X87773Y-46979D01*
X87821Y-46910D01*
X87855Y-46834D01*
X87873Y-46753D01*
X87875Y-46658D01*
X87858Y-46576D01*
X87827Y-46499D01*
X87780Y-46430D01*
X87722Y-46370D01*
X87653Y-46324D01*
X87576Y-46292D01*
X87494Y-46275D01*
X87449Y-46274D01*
X84587Y-43413D01*
X84623Y-43379D01*
X84625Y-43375D01*
X84673Y-43425D01*
X84741Y-43472D01*
X84818Y-43506D01*
X84899Y-43524D01*
X84982Y-43525D01*
X85064Y-43511D01*
X85142Y-43481D01*
X85212Y-43436D01*
X85273Y-43379D01*
X85321Y-43310D01*
X85355Y-43234D01*
X85373Y-43153D01*
X85375Y-43058D01*
X85358Y-42976D01*
X85327Y-42899D01*
X85280Y-42830D01*
X85250Y-42798D01*
X85250Y-42500D01*
X85247Y-42472D01*
X85244Y-42444D01*
X85244Y-42443D01*
X85244Y-42441D01*
X85236Y-42415D01*
X85228Y-42388D01*
X85227Y-42387D01*
X85227Y-42385D01*
X85214Y-42361D01*
X85201Y-42336D01*
X85200Y-42335D01*
X85199Y-42333D01*
X85182Y-42312D01*
X85165Y-42290D01*
X85162Y-42288D01*
X85162Y-42288D01*
X85162Y-42288D01*
X85162Y-42287D01*
X81750Y-38875D01*
X81750Y-38300D01*
X81747Y-38272D01*
X81744Y-38244D01*
X81744Y-38243D01*
X81744Y-38241D01*
X81736Y-38215D01*
X81728Y-38188D01*
X81727Y-38187D01*
X81727Y-38185D01*
X81714Y-38161D01*
X81701Y-38136D01*
X81700Y-38135D01*
X81699Y-38133D01*
X81682Y-38112D01*
X81665Y-38090D01*
X81662Y-38088D01*
X81662Y-38088D01*
X81662Y-38088D01*
X81662Y-38087D01*
X80500Y-36925D01*
X80500Y-31301D01*
X80523Y-31279D01*
X80571Y-31210D01*
X80605Y-31134D01*
X80623Y-31053D01*
X80625Y-30958D01*
X80608Y-30876D01*
X80577Y-30800D01*
X88400Y-30800D01*
X88427Y-30797D01*
X88455Y-30794D01*
X88456Y-30794D01*
X88458Y-30794D01*
X88484Y-30786D01*
X88511Y-30778D01*
X88512Y-30777D01*
X88514Y-30777D01*
X88538Y-30764D01*
X88563Y-30751D01*
X88564Y-30750D01*
X88566Y-30749D01*
X88587Y-30732D01*
X88609Y-30715D01*
X88611Y-30712D01*
X88611Y-30712D01*
X88611Y-30712D01*
X88612Y-30712D01*
X89599Y-29725D01*
X89632Y-29725D01*
X89714Y-29711D01*
X89792Y-29681D01*
X89862Y-29636D01*
X89923Y-29579D01*
X89971Y-29510D01*
X90005Y-29434D01*
X90023Y-29353D01*
X90025Y-29258D01*
X90025Y-45742D01*
X89952Y-45771D01*
X89882Y-45817D01*
X89848Y-45850D01*
X89774Y-45850D01*
X89374Y-45450D01*
X89375Y-45408D01*
X89358Y-45326D01*
X89327Y-45249D01*
X89280Y-45180D01*
X89222Y-45120D01*
X89153Y-45074D01*
X89076Y-45042D01*
X88994Y-45025D01*
X88911Y-45024D01*
X88829Y-45040D01*
X88752Y-45071D01*
X88682Y-45117D01*
X88622Y-45175D01*
X88575Y-45244D01*
X88542Y-45320D01*
X88525Y-45402D01*
X88524Y-45485D01*
X88539Y-45567D01*
X88570Y-45645D01*
X88615Y-45715D01*
X88673Y-45775D01*
X88741Y-45822D01*
X88818Y-45856D01*
X88899Y-45874D01*
X88950Y-45875D01*
X89437Y-46362D01*
X89459Y-46379D01*
X89480Y-46397D01*
X89481Y-46398D01*
X89483Y-46399D01*
X89507Y-46412D01*
X89531Y-46425D01*
X89533Y-46426D01*
X89534Y-46426D01*
X89561Y-46435D01*
X89587Y-46443D01*
X89589Y-46443D01*
X89590Y-46444D01*
X89618Y-46446D01*
X89645Y-46449D01*
X89648Y-46449D01*
X89648Y-46449D01*
X89649Y-46449D01*
X89650Y-46450D01*
X89848Y-46450D01*
X89873Y-46475D01*
X89941Y-46522D01*
X90018Y-46556D01*
X90099Y-46574D01*
X90182Y-46575D01*
X90264Y-46561D01*
X90342Y-46531D01*
X90412Y-46486D01*
X90473Y-46429D01*
X90521Y-46360D01*
X90555Y-46284D01*
X90573Y-46203D01*
X90575Y-46108D01*
X90575Y-55253D01*
X90230Y-55532D01*
X88975Y-56339D01*
X88975Y-54308D01*
X88958Y-54226D01*
X88927Y-54149D01*
X88880Y-54080D01*
X88822Y-54020D01*
X88753Y-53974D01*
X88676Y-53942D01*
X88594Y-53925D01*
X88511Y-53924D01*
X88429Y-53940D01*
X88352Y-53971D01*
X88308Y-54000D01*
X81750Y-54000D01*
X81750Y-53572D01*
X81758Y-53579D01*
X81780Y-53597D01*
X81781Y-53598D01*
X81782Y-53598D01*
X81807Y-53612D01*
X81831Y-53625D01*
X81832Y-53626D01*
X81833Y-53626D01*
X81860Y-53634D01*
X81887Y-53643D01*
X81888Y-53643D01*
X81889Y-53643D01*
X81917Y-53646D01*
X81945Y-53649D01*
X81947Y-53649D01*
X81947Y-53649D01*
X81947Y-53649D01*
X81950Y-53650D01*
X88198Y-53650D01*
X88223Y-53675D01*
X88291Y-53722D01*
X88368Y-53756D01*
X88449Y-53774D01*
X88532Y-53775D01*
X88614Y-53761D01*
X88692Y-53731D01*
X88762Y-53686D01*
X88823Y-53629D01*
X88871Y-53560D01*
X88905Y-53484D01*
X88923Y-53403D01*
X88925Y-53308D01*
X88908Y-53226D01*
X88877Y-53149D01*
X88830Y-53080D01*
X88772Y-53020D01*
X88703Y-52974D01*
X88626Y-52942D01*
X88544Y-52925D01*
X88461Y-52924D01*
X88379Y-52940D01*
X88302Y-52971D01*
X88232Y-53017D01*
X88198Y-53050D01*
X87975Y-53050D01*
X87975Y-40358D01*
X87958Y-40276D01*
X87927Y-40199D01*
X87880Y-40130D01*
X87822Y-40070D01*
X87753Y-40024D01*
X87676Y-39992D01*
X87594Y-39975D01*
X87511Y-39974D01*
X87429Y-39990D01*
X87352Y-40021D01*
X87282Y-40067D01*
X87222Y-40125D01*
X87175Y-40194D01*
X87142Y-40270D01*
X87130Y-40329D01*
X87111Y-40352D01*
X87110Y-40353D01*
X87109Y-40355D01*
X87093Y-40383D01*
X87078Y-40412D01*
X87077Y-40413D01*
X87076Y-40415D01*
X87067Y-40446D01*
X87057Y-40477D01*
X87057Y-40479D01*
X87056Y-40480D01*
X87053Y-40512D01*
X87050Y-40545D01*
X87050Y-40548D01*
X87050Y-40548D01*
X87050Y-40548D01*
X87050Y-40550D01*
X87050Y-42808D01*
X87025Y-42844D01*
X86992Y-42920D01*
X86975Y-43002D01*
X86974Y-43085D01*
X86989Y-43167D01*
X87020Y-43245D01*
X87065Y-43315D01*
X87123Y-43375D01*
X87191Y-43422D01*
X87268Y-43456D01*
X87349Y-43474D01*
X87432Y-43475D01*
X87514Y-43461D01*
X87592Y-43431D01*
X87662Y-43386D01*
X87723Y-43329D01*
X87771Y-43260D01*
X87805Y-43184D01*
X87823Y-43103D01*
X87825Y-43008D01*
X87808Y-42926D01*
X87777Y-42849D01*
X87750Y-42808D01*
X87750Y-40776D01*
X87812Y-40736D01*
X87873Y-40679D01*
X87921Y-40610D01*
X87955Y-40534D01*
X87973Y-40453D01*
X87975Y-40358D01*
X87975Y-53050D01*
X82250Y-53050D01*
X82250Y-46901D01*
X82273Y-46879D01*
X82321Y-46810D01*
X82355Y-46734D01*
X82373Y-46653D01*
X82375Y-46558D01*
X82358Y-46476D01*
X82327Y-46399D01*
X82280Y-46330D01*
X82222Y-46270D01*
X82153Y-46224D01*
X82076Y-46192D01*
X81994Y-46175D01*
X81911Y-46174D01*
X81829Y-46190D01*
X81752Y-46221D01*
X81699Y-46255D01*
X81653Y-46224D01*
X81576Y-46192D01*
X81494Y-46175D01*
X81411Y-46174D01*
X81329Y-46190D01*
X81252Y-46221D01*
X81199Y-46255D01*
X81153Y-46224D01*
X81076Y-46192D01*
X80994Y-46175D01*
X80911Y-46174D01*
X80829Y-46190D01*
X80752Y-46221D01*
X80699Y-46255D01*
X80653Y-46224D01*
X80576Y-46192D01*
X80494Y-46175D01*
X80411Y-46174D01*
X80329Y-46190D01*
X80252Y-46221D01*
X80199Y-46255D01*
X80153Y-46224D01*
X80076Y-46192D01*
X79994Y-46175D01*
X79911Y-46174D01*
X79829Y-46190D01*
X79752Y-46221D01*
X79699Y-46255D01*
X79653Y-46224D01*
X79576Y-46192D01*
X79494Y-46175D01*
X79411Y-46174D01*
X79329Y-46190D01*
X79252Y-46221D01*
X79199Y-46255D01*
X79153Y-46224D01*
X79076Y-46192D01*
X78994Y-46175D01*
X78911Y-46174D01*
X78829Y-46190D01*
X78752Y-46221D01*
X78750Y-46222D01*
X78750Y-43350D01*
X79148Y-43350D01*
X79173Y-43375D01*
X79241Y-43422D01*
X79318Y-43456D01*
X79399Y-43474D01*
X79482Y-43475D01*
X79564Y-43461D01*
X79642Y-43431D01*
X79712Y-43386D01*
X79773Y-43329D01*
X79821Y-43260D01*
X79855Y-43184D01*
X79873Y-43103D01*
X79875Y-43008D01*
X79858Y-42926D01*
X79827Y-42849D01*
X79780Y-42780D01*
X79722Y-42720D01*
X79653Y-42674D01*
X79576Y-42642D01*
X79494Y-42625D01*
X79411Y-42624D01*
X79329Y-42640D01*
X79252Y-42671D01*
X79182Y-42717D01*
X79148Y-42750D01*
X78550Y-42750D01*
X78522Y-42752D01*
X78494Y-42755D01*
X78493Y-42755D01*
X78491Y-42755D01*
X78465Y-42763D01*
X78438Y-42771D01*
X78437Y-42772D01*
X78435Y-42772D01*
X78411Y-42785D01*
X78386Y-42798D01*
X78385Y-42799D01*
X78383Y-42800D01*
X78362Y-42817D01*
X78340Y-42834D01*
X78338Y-42837D01*
X78338Y-42837D01*
X78338Y-42837D01*
X78337Y-42837D01*
X78237Y-42937D01*
X78220Y-42959D01*
X78202Y-42980D01*
X78201Y-42981D01*
X78200Y-42983D01*
X78187Y-43007D01*
X78174Y-43031D01*
X78173Y-43033D01*
X78173Y-43034D01*
X78164Y-43061D01*
X78156Y-43087D01*
X78156Y-43089D01*
X78155Y-43090D01*
X78153Y-43118D01*
X78150Y-43145D01*
X78150Y-43148D01*
X78150Y-43148D01*
X78150Y-43149D01*
X78150Y-43150D01*
X78150Y-43755D01*
X78127Y-43699D01*
X78080Y-43630D01*
X78022Y-43570D01*
X77953Y-43524D01*
X77876Y-43492D01*
X77794Y-43475D01*
X77711Y-43474D01*
X77629Y-43490D01*
X77552Y-43521D01*
X77482Y-43567D01*
X77422Y-43625D01*
X77375Y-43694D01*
X77342Y-43770D01*
X77325Y-43852D01*
X77324Y-43935D01*
X77339Y-44017D01*
X77370Y-44095D01*
X77400Y-44141D01*
X77400Y-45204D01*
X77392Y-45220D01*
X77375Y-45302D01*
X77374Y-45385D01*
X77389Y-45467D01*
X77420Y-45545D01*
X77465Y-45615D01*
X77523Y-45675D01*
X77591Y-45722D01*
X77668Y-45756D01*
X77749Y-45774D01*
X77832Y-45775D01*
X77914Y-45761D01*
X77992Y-45731D01*
X78062Y-45686D01*
X78123Y-45629D01*
X78150Y-45591D01*
X78150Y-53350D01*
X77875Y-53350D01*
X77875Y-48058D01*
X77858Y-47976D01*
X77827Y-47899D01*
X77780Y-47830D01*
X77722Y-47770D01*
X77653Y-47724D01*
X77576Y-47692D01*
X77494Y-47675D01*
X77411Y-47674D01*
X77329Y-47690D01*
X77252Y-47721D01*
X77182Y-47767D01*
X77122Y-47825D01*
X77075Y-47894D01*
X77042Y-47970D01*
X77025Y-48052D01*
X77024Y-48100D01*
X76375Y-48750D01*
X73551Y-48750D01*
X73522Y-48720D01*
X73453Y-48674D01*
X73376Y-48642D01*
X73294Y-48625D01*
X73211Y-48624D01*
X73129Y-48640D01*
X73052Y-48671D01*
X72982Y-48717D01*
X72922Y-48775D01*
X72875Y-48844D01*
X72842Y-48920D01*
X72825Y-49002D01*
X72824Y-49085D01*
X72839Y-49167D01*
X72870Y-49245D01*
X72915Y-49315D01*
X72973Y-49375D01*
X73041Y-49422D01*
X73118Y-49456D01*
X73199Y-49474D01*
X73282Y-49475D01*
X73364Y-49461D01*
X73442Y-49431D01*
X73512Y-49386D01*
X73551Y-49350D01*
X76500Y-49350D01*
X76527Y-49347D01*
X76555Y-49344D01*
X76556Y-49344D01*
X76558Y-49344D01*
X76584Y-49336D01*
X76611Y-49328D01*
X76612Y-49327D01*
X76614Y-49327D01*
X76638Y-49314D01*
X76663Y-49301D01*
X76664Y-49300D01*
X76666Y-49299D01*
X76687Y-49282D01*
X76709Y-49265D01*
X76711Y-49262D01*
X76711Y-49262D01*
X76711Y-49262D01*
X76712Y-49262D01*
X77449Y-48525D01*
X77482Y-48525D01*
X77564Y-48511D01*
X77642Y-48481D01*
X77712Y-48436D01*
X77773Y-48379D01*
X77821Y-48310D01*
X77855Y-48234D01*
X77873Y-48153D01*
X77875Y-48058D01*
X77875Y-53350D01*
X72725Y-53350D01*
X72725Y-50008D01*
X72708Y-49926D01*
X72677Y-49849D01*
X72630Y-49780D01*
X72572Y-49720D01*
X72503Y-49674D01*
X72426Y-49642D01*
X72344Y-49625D01*
X72261Y-49624D01*
X72179Y-49640D01*
X72102Y-49671D01*
X72032Y-49717D01*
X72025Y-49724D01*
X72025Y-47258D01*
X72008Y-47176D01*
X71977Y-47099D01*
X71930Y-47030D01*
X71872Y-46970D01*
X71803Y-46924D01*
X71726Y-46892D01*
X71644Y-46875D01*
X71561Y-46874D01*
X71479Y-46890D01*
X71402Y-46921D01*
X71332Y-46967D01*
X71272Y-47025D01*
X71225Y-47094D01*
X71223Y-47100D01*
X70326Y-47100D01*
X70355Y-47034D01*
X70373Y-46953D01*
X70375Y-46858D01*
X70358Y-46776D01*
X70327Y-46699D01*
X70280Y-46630D01*
X70222Y-46570D01*
X70153Y-46524D01*
X70076Y-46492D01*
X69994Y-46475D01*
X69911Y-46474D01*
X69829Y-46490D01*
X69752Y-46521D01*
X69682Y-46567D01*
X69648Y-46600D01*
X67941Y-46600D01*
X67903Y-46574D01*
X67826Y-46542D01*
X67744Y-46525D01*
X67661Y-46524D01*
X67579Y-46540D01*
X67502Y-46571D01*
X67432Y-46617D01*
X67372Y-46675D01*
X67325Y-46744D01*
X67292Y-46820D01*
X67275Y-46902D01*
X67274Y-46985D01*
X67289Y-47067D01*
X67320Y-47145D01*
X67365Y-47215D01*
X67423Y-47275D01*
X67491Y-47322D01*
X67568Y-47356D01*
X67575Y-47357D01*
X67574Y-47435D01*
X67589Y-47517D01*
X67620Y-47595D01*
X67665Y-47665D01*
X67723Y-47725D01*
X67791Y-47772D01*
X67868Y-47806D01*
X67949Y-47824D01*
X68032Y-47825D01*
X68114Y-47811D01*
X68192Y-47781D01*
X68262Y-47736D01*
X68301Y-47700D01*
X71453Y-47700D01*
X71468Y-47706D01*
X71549Y-47724D01*
X71632Y-47725D01*
X71714Y-47711D01*
X71792Y-47681D01*
X71862Y-47636D01*
X71923Y-47579D01*
X71971Y-47510D01*
X72005Y-47434D01*
X72023Y-47353D01*
X72025Y-47258D01*
X72025Y-49724D01*
X71998Y-49750D01*
X69124Y-49750D01*
X63824Y-44450D01*
X63825Y-44408D01*
X63808Y-44326D01*
X63777Y-44249D01*
X63730Y-44180D01*
X63672Y-44120D01*
X63603Y-44074D01*
X63526Y-44042D01*
X63444Y-44025D01*
X63361Y-44024D01*
X63279Y-44040D01*
X63202Y-44071D01*
X63132Y-44117D01*
X63072Y-44175D01*
X63025Y-44244D01*
X62992Y-44320D01*
X62975Y-44402D01*
X62974Y-44485D01*
X62989Y-44567D01*
X63020Y-44645D01*
X63065Y-44715D01*
X63123Y-44775D01*
X63191Y-44822D01*
X63268Y-44856D01*
X63349Y-44874D01*
X63400Y-44875D01*
X68787Y-50262D01*
X68809Y-50279D01*
X68830Y-50297D01*
X68831Y-50298D01*
X68833Y-50299D01*
X68857Y-50312D01*
X68881Y-50325D01*
X68883Y-50326D01*
X68884Y-50326D01*
X68911Y-50335D01*
X68937Y-50343D01*
X68939Y-50343D01*
X68940Y-50344D01*
X68968Y-50346D01*
X68995Y-50349D01*
X68998Y-50349D01*
X68998Y-50349D01*
X68999Y-50349D01*
X69000Y-50350D01*
X71998Y-50350D01*
X72023Y-50375D01*
X72091Y-50422D01*
X72168Y-50456D01*
X72249Y-50474D01*
X72332Y-50475D01*
X72414Y-50461D01*
X72492Y-50431D01*
X72562Y-50386D01*
X72623Y-50329D01*
X72671Y-50260D01*
X72705Y-50184D01*
X72723Y-50103D01*
X72725Y-50008D01*
X72725Y-53350D01*
X69751Y-53350D01*
X69722Y-53320D01*
X69653Y-53274D01*
X69576Y-53242D01*
X69494Y-53225D01*
X69411Y-53224D01*
X69329Y-53240D01*
X69252Y-53271D01*
X69182Y-53317D01*
X69122Y-53375D01*
X69075Y-53444D01*
X69042Y-53520D01*
X69025Y-53602D01*
X69024Y-53685D01*
X69039Y-53767D01*
X69070Y-53845D01*
X69115Y-53915D01*
X69173Y-53975D01*
X69241Y-54022D01*
X69318Y-54056D01*
X69399Y-54074D01*
X69482Y-54075D01*
X69564Y-54061D01*
X69642Y-54031D01*
X69712Y-53986D01*
X69751Y-53950D01*
X72408Y-53950D01*
X72382Y-53967D01*
X72322Y-54025D01*
X72275Y-54094D01*
X72242Y-54170D01*
X72225Y-54252D01*
X72224Y-54335D01*
X72239Y-54417D01*
X72270Y-54495D01*
X72315Y-54565D01*
X72373Y-54625D01*
X72441Y-54672D01*
X72518Y-54706D01*
X72599Y-54724D01*
X72682Y-54725D01*
X72764Y-54711D01*
X72842Y-54681D01*
X72912Y-54636D01*
X72951Y-54600D01*
X78950Y-54600D01*
X78978Y-54597D01*
X79006Y-54594D01*
X79007Y-54594D01*
X79008Y-54594D01*
X79035Y-54586D01*
X79062Y-54578D01*
X79063Y-54577D01*
X79064Y-54577D01*
X79089Y-54564D01*
X79114Y-54551D01*
X79115Y-54550D01*
X79116Y-54549D01*
X79137Y-54532D01*
X79150Y-54522D01*
X79150Y-54800D01*
X76251Y-54800D01*
X76222Y-54770D01*
X76153Y-54724D01*
X76076Y-54692D01*
X75994Y-54675D01*
X75911Y-54674D01*
X75829Y-54690D01*
X75752Y-54721D01*
X75682Y-54767D01*
X75622Y-54825D01*
X75575Y-54894D01*
X75542Y-54970D01*
X75525Y-55052D01*
X75524Y-55135D01*
X75539Y-55217D01*
X75570Y-55295D01*
X75615Y-55365D01*
X75673Y-55425D01*
X75741Y-55472D01*
X75818Y-55506D01*
X75899Y-55524D01*
X75982Y-55525D01*
X76064Y-55511D01*
X76142Y-55481D01*
X76212Y-55436D01*
X76251Y-55400D01*
X79275Y-55400D01*
X79249Y-55426D01*
X79244Y-55425D01*
X79161Y-55424D01*
X79079Y-55440D01*
X79002Y-55471D01*
X78932Y-55517D01*
X78872Y-55575D01*
X78825Y-55644D01*
X78792Y-55720D01*
X78775Y-55802D01*
X78774Y-55885D01*
X78789Y-55967D01*
X78820Y-56045D01*
X78865Y-56115D01*
X78923Y-56175D01*
X78991Y-56222D01*
X79068Y-56256D01*
X79149Y-56274D01*
X79232Y-56275D01*
X79314Y-56261D01*
X79392Y-56231D01*
X79462Y-56186D01*
X79523Y-56129D01*
X79571Y-56060D01*
X79605Y-55984D01*
X79623Y-55903D01*
X79623Y-55900D01*
X80162Y-55362D01*
X80179Y-55340D01*
X80197Y-55319D01*
X80198Y-55318D01*
X80199Y-55316D01*
X80212Y-55292D01*
X80216Y-55285D01*
X80217Y-55287D01*
X80234Y-55309D01*
X80237Y-55311D01*
X80237Y-55311D01*
X80237Y-55311D01*
X80237Y-55312D01*
X80987Y-56062D01*
X81009Y-56079D01*
X81030Y-56097D01*
X81031Y-56098D01*
X81033Y-56099D01*
X81057Y-56112D01*
X81081Y-56125D01*
X81083Y-56126D01*
X81084Y-56126D01*
X81111Y-56135D01*
X81137Y-56143D01*
X81139Y-56143D01*
X81140Y-56144D01*
X81168Y-56146D01*
X81195Y-56149D01*
X81198Y-56149D01*
X81198Y-56149D01*
X81199Y-56149D01*
X81200Y-56150D01*
X81998Y-56150D01*
X82023Y-56175D01*
X82091Y-56222D01*
X82168Y-56256D01*
X82249Y-56274D01*
X82332Y-56275D01*
X82414Y-56261D01*
X82492Y-56231D01*
X82562Y-56186D01*
X82623Y-56129D01*
X82671Y-56060D01*
X82705Y-55984D01*
X82723Y-55903D01*
X82725Y-55808D01*
X82708Y-55726D01*
X82677Y-55649D01*
X82630Y-55580D01*
X82572Y-55520D01*
X82503Y-55474D01*
X82426Y-55442D01*
X82344Y-55425D01*
X82261Y-55424D01*
X82179Y-55440D01*
X82102Y-55471D01*
X82032Y-55517D01*
X81998Y-55550D01*
X81324Y-55550D01*
X81158Y-55384D01*
X81161Y-55385D01*
X81187Y-55393D01*
X81189Y-55393D01*
X81190Y-55394D01*
X81218Y-55396D01*
X81245Y-55399D01*
X81248Y-55399D01*
X81248Y-55399D01*
X81249Y-55399D01*
X81250Y-55400D01*
X85148Y-55400D01*
X85173Y-55425D01*
X85241Y-55472D01*
X85318Y-55506D01*
X85399Y-55524D01*
X85482Y-55525D01*
X85564Y-55511D01*
X85642Y-55481D01*
X85712Y-55436D01*
X85773Y-55379D01*
X85821Y-55310D01*
X85855Y-55234D01*
X85873Y-55153D01*
X85875Y-55058D01*
X85858Y-54976D01*
X85827Y-54899D01*
X85780Y-54830D01*
X85722Y-54770D01*
X85653Y-54724D01*
X85576Y-54692D01*
X85494Y-54675D01*
X85411Y-54674D01*
X85329Y-54690D01*
X85252Y-54721D01*
X85182Y-54767D01*
X85148Y-54800D01*
X81374Y-54800D01*
X81250Y-54675D01*
X81250Y-54522D01*
X81258Y-54529D01*
X81280Y-54547D01*
X81281Y-54548D01*
X81282Y-54548D01*
X81307Y-54562D01*
X81331Y-54575D01*
X81332Y-54576D01*
X81333Y-54576D01*
X81360Y-54584D01*
X81387Y-54593D01*
X81388Y-54593D01*
X81389Y-54593D01*
X81417Y-54596D01*
X81445Y-54599D01*
X81447Y-54599D01*
X81447Y-54599D01*
X81447Y-54599D01*
X81450Y-54600D01*
X88205Y-54600D01*
X88215Y-54615D01*
X88273Y-54675D01*
X88341Y-54722D01*
X88418Y-54756D01*
X88499Y-54774D01*
X88582Y-54775D01*
X88664Y-54761D01*
X88742Y-54731D01*
X88812Y-54686D01*
X88873Y-54629D01*
X88921Y-54560D01*
X88955Y-54484D01*
X88973Y-54403D01*
X88975Y-54308D01*
X88975Y-56339D01*
X87284Y-57424D01*
X84035Y-58704D01*
X80599Y-59328D01*
X77108Y-59273D01*
X73693Y-58541D01*
X70486Y-57160D01*
X67608Y-55182D01*
X65169Y-52683D01*
X64650Y-51885D01*
X64650Y-49727D01*
X64650Y-49125D01*
X64640Y-49077D01*
X64621Y-49032D01*
X64594Y-48991D01*
X64560Y-48956D01*
X64519Y-48929D01*
X64474Y-48910D01*
X64426Y-48900D01*
X64377Y-48899D01*
X64000Y-48899D01*
X64000Y-48177D01*
X64000Y-47575D01*
X63990Y-47527D01*
X63971Y-47482D01*
X63944Y-47441D01*
X63910Y-47406D01*
X63869Y-47379D01*
X63824Y-47360D01*
X63776Y-47350D01*
X63727Y-47349D01*
X63450Y-47349D01*
X63450Y-46777D01*
X63450Y-46175D01*
X63440Y-46127D01*
X63421Y-46082D01*
X63394Y-46041D01*
X63360Y-46006D01*
X63319Y-45979D01*
X63274Y-45960D01*
X63226Y-45950D01*
X63177Y-45949D01*
X62950Y-45949D01*
X62950Y-45527D01*
X62950Y-44925D01*
X62940Y-44877D01*
X62921Y-44832D01*
X62894Y-44791D01*
X62860Y-44756D01*
X62819Y-44729D01*
X62774Y-44710D01*
X62726Y-44700D01*
X62677Y-44699D01*
X62075Y-44699D01*
X62027Y-44709D01*
X61982Y-44728D01*
X61941Y-44755D01*
X61906Y-44789D01*
X61879Y-44830D01*
X61860Y-44875D01*
X61850Y-44923D01*
X61849Y-44972D01*
X61849Y-45574D01*
X61859Y-45622D01*
X61878Y-45667D01*
X61905Y-45708D01*
X61939Y-45743D01*
X61980Y-45770D01*
X62025Y-45789D01*
X62073Y-45799D01*
X62122Y-45800D01*
X62724Y-45800D01*
X62772Y-45790D01*
X62817Y-45771D01*
X62858Y-45744D01*
X62893Y-45710D01*
X62920Y-45669D01*
X62939Y-45624D01*
X62949Y-45576D01*
X62950Y-45527D01*
X62950Y-45949D01*
X62575Y-45949D01*
X62527Y-45959D01*
X62482Y-45978D01*
X62441Y-46005D01*
X62406Y-46039D01*
X62379Y-46080D01*
X62360Y-46125D01*
X62350Y-46173D01*
X62349Y-46222D01*
X62349Y-46824D01*
X62359Y-46872D01*
X62378Y-46917D01*
X62405Y-46958D01*
X62439Y-46993D01*
X62480Y-47020D01*
X62525Y-47039D01*
X62573Y-47049D01*
X62622Y-47050D01*
X63224Y-47050D01*
X63272Y-47040D01*
X63317Y-47021D01*
X63358Y-46994D01*
X63393Y-46960D01*
X63420Y-46919D01*
X63439Y-46874D01*
X63449Y-46826D01*
X63450Y-46777D01*
X63450Y-47349D01*
X63125Y-47349D01*
X63077Y-47359D01*
X63032Y-47378D01*
X62991Y-47405D01*
X62956Y-47439D01*
X62929Y-47480D01*
X62910Y-47525D01*
X62900Y-47573D01*
X62899Y-47622D01*
X62899Y-48224D01*
X62909Y-48272D01*
X62928Y-48317D01*
X62955Y-48358D01*
X62989Y-48393D01*
X63030Y-48420D01*
X63075Y-48439D01*
X63123Y-48449D01*
X63172Y-48450D01*
X63774Y-48450D01*
X63822Y-48440D01*
X63867Y-48421D01*
X63908Y-48394D01*
X63943Y-48360D01*
X63970Y-48319D01*
X63989Y-48274D01*
X63999Y-48226D01*
X64000Y-48177D01*
X64000Y-48899D01*
X63775Y-48899D01*
X63727Y-48909D01*
X63682Y-48928D01*
X63641Y-48955D01*
X63606Y-48989D01*
X63579Y-49030D01*
X63560Y-49075D01*
X63550Y-49123D01*
X63549Y-49172D01*
X63549Y-49774D01*
X63559Y-49822D01*
X63578Y-49867D01*
X63605Y-49908D01*
X63639Y-49943D01*
X63680Y-49970D01*
X63725Y-49989D01*
X63773Y-49999D01*
X63822Y-50000D01*
X64424Y-50000D01*
X64472Y-49990D01*
X64517Y-49971D01*
X64558Y-49944D01*
X64593Y-49910D01*
X64620Y-49869D01*
X64639Y-49824D01*
X64649Y-49776D01*
X64650Y-49727D01*
X64650Y-51885D01*
X63262Y-49757D01*
X61960Y-46517D01*
X61312Y-43089D01*
X61343Y-39594D01*
X62051Y-36175D01*
X63410Y-32958D01*
X65367Y-30067D01*
X67849Y-27611D01*
X70761Y-25683D01*
X73992Y-24358D01*
X77418Y-23686D01*
X80910Y-23692D01*
X84335Y-24376D01*
X87561Y-25713D01*
X90466Y-27650D01*
X92939Y-30115D01*
X94887Y-33013D01*
X96234Y-36235D01*
X96930Y-39656D01*
X96949Y-43152D01*
M02*
