M48
;DRILL file {Pcbnew (2013-07-07 BZR 4022)-stable} date 4/28/2015 8:47:58 PM
;FORMAT={2:4/ absolute / inch / keep zeros}
FMAT,2
INCH,TZ
T1C0.025
T2C0.040
%
G90
G05
M72
T1
X063400Y-044450
X066250Y-035200
X067200Y-039000
X067350Y-032900
X067400Y-042850
X067700Y-041450
X067700Y-046950
X067750Y-042200
X068000Y-047400
X069200Y-045150
X069450Y-040700
X069450Y-053650
X069550Y-042550
X069600Y-046000
X069900Y-041550
X069950Y-046900
X070000Y-029250
X070150Y-042000
X070300Y-045150
X070650Y-027600
X070700Y-042800
X070850Y-035450
X070950Y-041600
X071250Y-044400
X071600Y-041300
X071600Y-047300
X071750Y-038900
X071950Y-046900
X072300Y-050050
X072650Y-054300
X072700Y-050650
X072750Y-029250
X073250Y-049050
X073550Y-044650
X074250Y-042200
X075200Y-039500
X075450Y-029300
X075689Y-031496
X075700Y-037150
X075950Y-042700
X075950Y-055100
X076050Y-041400
X076450Y-043050
X076673Y-031496
X076950Y-044500
X077000Y-035400
X077100Y-031000
X077450Y-048100
X077750Y-043900
X077800Y-045350
X078200Y-029300
X078950Y-046600
X079200Y-055850
X079450Y-043050
X079450Y-046600
X079950Y-046600
X080050Y-043050
X080200Y-031000
X080450Y-045200
X080450Y-046600
X080950Y-046600
X081350Y-029300
X081450Y-046600
X081950Y-046600
X082050Y-044500
X082300Y-055850
X083250Y-048200
X084150Y-029250
X084150Y-042300
X084300Y-043100
X084500Y-046700
X084950Y-043100
X084950Y-046700
X085450Y-055100
X085500Y-046700
X085700Y-043100
X085950Y-046700
X086450Y-046700
X086850Y-029300
X086950Y-046700
X087400Y-043050
X087450Y-046700
X087550Y-040400
X088500Y-053350
X088550Y-044850
X088550Y-054350
X088950Y-045450
X089600Y-029300
X090150Y-046150
T2
X062050Y-042100
X062100Y-040500
X062150Y-038800
X062150Y-043700
X062400Y-045250
X062600Y-037250
X062900Y-046500
X063000Y-035800
X063450Y-047900
X064100Y-049450
X069500Y-037900
X069500Y-038900
X069500Y-039900
X071500Y-037800
X071500Y-040150
X072500Y-037800
X072500Y-040150
X073500Y-037800
X073500Y-040150
X078150Y-025050
X078150Y-026050
X079150Y-025050
X079150Y-026050
X080150Y-025050
X080150Y-026050
X091650Y-034450
X092650Y-034450
T0
M30
