G04 (created by PCBNEW (2013-07-07 BZR 4022)-stable) date 4/28/2015 8:48:13 PM*
%MOIN*%
G04 Gerber Fmt 3.4, Leading zero omitted, Abs format*
%FSLAX34Y34*%
G01*
G70*
G90*
G04 APERTURE LIST*
%ADD10C,0.00590551*%
%ADD11C,0.00787402*%
%ADD12C,0.011811*%
G04 APERTURE END LIST*
G54D10*
X80061Y-24353D02*
X80061Y-23762D01*
X79865Y-24184D01*
X79668Y-23762D01*
X79668Y-24353D01*
X79274Y-23762D02*
X79161Y-23762D01*
X79105Y-23790D01*
X79049Y-23847D01*
X79021Y-23959D01*
X79021Y-24156D01*
X79049Y-24268D01*
X79105Y-24325D01*
X79161Y-24353D01*
X79274Y-24353D01*
X79330Y-24325D01*
X79386Y-24268D01*
X79415Y-24156D01*
X79415Y-23959D01*
X79386Y-23847D01*
X79330Y-23790D01*
X79274Y-23762D01*
X78796Y-24325D02*
X78712Y-24353D01*
X78571Y-24353D01*
X78515Y-24325D01*
X78487Y-24296D01*
X78458Y-24240D01*
X78458Y-24184D01*
X78487Y-24128D01*
X78515Y-24100D01*
X78571Y-24071D01*
X78683Y-24043D01*
X78740Y-24015D01*
X78768Y-23987D01*
X78796Y-23931D01*
X78796Y-23875D01*
X78768Y-23818D01*
X78740Y-23790D01*
X78683Y-23762D01*
X78543Y-23762D01*
X78458Y-23790D01*
X78205Y-24353D02*
X78205Y-23762D01*
X79583Y-27348D02*
X79611Y-27376D01*
X79696Y-27404D01*
X79752Y-27404D01*
X79836Y-27376D01*
X79893Y-27320D01*
X79921Y-27263D01*
X79949Y-27151D01*
X79949Y-27066D01*
X79921Y-26954D01*
X79893Y-26898D01*
X79836Y-26841D01*
X79752Y-26813D01*
X79696Y-26813D01*
X79611Y-26841D01*
X79583Y-26870D01*
X79049Y-27404D02*
X79330Y-27404D01*
X79330Y-26813D01*
X78852Y-27404D02*
X78852Y-26813D01*
X78515Y-27404D02*
X78768Y-27066D01*
X78515Y-26813D02*
X78852Y-27151D01*
X77404Y-26420D02*
X77404Y-25829D01*
X77207Y-26251D01*
X77010Y-25829D01*
X77010Y-26420D01*
X76729Y-26420D02*
X76729Y-25829D01*
X76476Y-26392D02*
X76392Y-26420D01*
X76251Y-26420D01*
X76195Y-26392D01*
X76167Y-26363D01*
X76138Y-26307D01*
X76138Y-26251D01*
X76167Y-26195D01*
X76195Y-26167D01*
X76251Y-26138D01*
X76363Y-26110D01*
X76420Y-26082D01*
X76448Y-26054D01*
X76476Y-25998D01*
X76476Y-25942D01*
X76448Y-25885D01*
X76420Y-25857D01*
X76363Y-25829D01*
X76223Y-25829D01*
X76138Y-25857D01*
X75773Y-25829D02*
X75660Y-25829D01*
X75604Y-25857D01*
X75548Y-25913D01*
X75520Y-26026D01*
X75520Y-26223D01*
X75548Y-26335D01*
X75604Y-26392D01*
X75660Y-26420D01*
X75773Y-26420D01*
X75829Y-26392D01*
X75885Y-26335D01*
X75913Y-26223D01*
X75913Y-26026D01*
X75885Y-25913D01*
X75829Y-25857D01*
X75773Y-25829D01*
X77376Y-24746D02*
X77179Y-25337D01*
X76982Y-24746D01*
X76532Y-25309D02*
X76588Y-25337D01*
X76701Y-25337D01*
X76757Y-25309D01*
X76785Y-25281D01*
X76813Y-25224D01*
X76813Y-25056D01*
X76785Y-25000D01*
X76757Y-24971D01*
X76701Y-24943D01*
X76588Y-24943D01*
X76532Y-24971D01*
X76026Y-25309D02*
X76082Y-25337D01*
X76195Y-25337D01*
X76251Y-25309D01*
X76279Y-25281D01*
X76307Y-25224D01*
X76307Y-25056D01*
X76279Y-25000D01*
X76251Y-24971D01*
X76195Y-24943D01*
X76082Y-24943D01*
X76026Y-24971D01*
X82114Y-26321D02*
X82311Y-26040D01*
X82452Y-26321D02*
X82452Y-25731D01*
X82227Y-25731D01*
X82170Y-25759D01*
X82142Y-25787D01*
X82114Y-25843D01*
X82114Y-25928D01*
X82142Y-25984D01*
X82170Y-26012D01*
X82227Y-26040D01*
X82452Y-26040D01*
X81889Y-26293D02*
X81805Y-26321D01*
X81664Y-26321D01*
X81608Y-26293D01*
X81580Y-26265D01*
X81552Y-26209D01*
X81552Y-26152D01*
X81580Y-26096D01*
X81608Y-26068D01*
X81664Y-26040D01*
X81777Y-26012D01*
X81833Y-25984D01*
X81861Y-25956D01*
X81889Y-25899D01*
X81889Y-25843D01*
X81861Y-25787D01*
X81833Y-25759D01*
X81777Y-25731D01*
X81636Y-25731D01*
X81552Y-25759D01*
X81383Y-25731D02*
X81046Y-25731D01*
X81214Y-26321D02*
X81214Y-25731D01*
X82241Y-24676D02*
X82297Y-24648D01*
X82381Y-24648D01*
X82466Y-24676D01*
X82522Y-24732D01*
X82550Y-24789D01*
X82578Y-24901D01*
X82578Y-24985D01*
X82550Y-25098D01*
X82522Y-25154D01*
X82466Y-25210D01*
X82381Y-25239D01*
X82325Y-25239D01*
X82241Y-25210D01*
X82213Y-25182D01*
X82213Y-24985D01*
X82325Y-24985D01*
X81960Y-25239D02*
X81960Y-24648D01*
X81622Y-25239D01*
X81622Y-24648D01*
X81341Y-25239D02*
X81341Y-24648D01*
X81200Y-24648D01*
X81116Y-24676D01*
X81060Y-24732D01*
X81032Y-24789D01*
X81003Y-24901D01*
X81003Y-24985D01*
X81032Y-25098D01*
X81060Y-25154D01*
X81116Y-25210D01*
X81200Y-25239D01*
X81341Y-25239D01*
X67941Y-33900D02*
X67604Y-33900D01*
X67772Y-34491D02*
X67772Y-33900D01*
X67407Y-34181D02*
X67210Y-34181D01*
X67125Y-34491D02*
X67407Y-34491D01*
X67407Y-33900D01*
X67125Y-33900D01*
X66901Y-34462D02*
X66816Y-34491D01*
X66676Y-34491D01*
X66619Y-34462D01*
X66591Y-34434D01*
X66563Y-34378D01*
X66563Y-34322D01*
X66591Y-34266D01*
X66619Y-34237D01*
X66676Y-34209D01*
X66788Y-34181D01*
X66844Y-34153D01*
X66872Y-34125D01*
X66901Y-34069D01*
X66901Y-34012D01*
X66872Y-33956D01*
X66844Y-33928D01*
X66788Y-33900D01*
X66647Y-33900D01*
X66563Y-33928D01*
X66394Y-33900D02*
X66057Y-33900D01*
X66226Y-34491D02*
X66226Y-33900D01*
X65410Y-34491D02*
X65410Y-33900D01*
X65185Y-33900D01*
X65129Y-33928D01*
X65101Y-33956D01*
X65073Y-34012D01*
X65073Y-34097D01*
X65101Y-34153D01*
X65129Y-34181D01*
X65185Y-34209D01*
X65410Y-34209D01*
X64820Y-34491D02*
X64820Y-33900D01*
X64538Y-34491D02*
X64538Y-33900D01*
X64201Y-34491D01*
X64201Y-33900D01*
X63948Y-34462D02*
X63863Y-34491D01*
X63723Y-34491D01*
X63667Y-34462D01*
X63638Y-34434D01*
X63610Y-34378D01*
X63610Y-34322D01*
X63638Y-34266D01*
X63667Y-34237D01*
X63723Y-34209D01*
X63835Y-34181D01*
X63892Y-34153D01*
X63920Y-34125D01*
X63948Y-34069D01*
X63948Y-34012D01*
X63920Y-33956D01*
X63892Y-33928D01*
X63835Y-33900D01*
X63695Y-33900D01*
X63610Y-33928D01*
X66915Y-49746D02*
X66915Y-49156D01*
X66718Y-49578D01*
X66521Y-49156D01*
X66521Y-49746D01*
X66127Y-49156D02*
X66015Y-49156D01*
X65958Y-49184D01*
X65902Y-49240D01*
X65874Y-49353D01*
X65874Y-49550D01*
X65902Y-49662D01*
X65958Y-49718D01*
X66015Y-49746D01*
X66127Y-49746D01*
X66183Y-49718D01*
X66240Y-49662D01*
X66268Y-49550D01*
X66268Y-49353D01*
X66240Y-49240D01*
X66183Y-49184D01*
X66127Y-49156D01*
X65621Y-49746D02*
X65621Y-49156D01*
X65480Y-49156D01*
X65396Y-49184D01*
X65340Y-49240D01*
X65312Y-49296D01*
X65284Y-49409D01*
X65284Y-49493D01*
X65312Y-49606D01*
X65340Y-49662D01*
X65396Y-49718D01*
X65480Y-49746D01*
X65621Y-49746D01*
X65030Y-49437D02*
X64834Y-49437D01*
X64749Y-49746D02*
X65030Y-49746D01*
X65030Y-49156D01*
X64749Y-49156D01*
X66718Y-48143D02*
X66633Y-48172D01*
X66493Y-48172D01*
X66437Y-48143D01*
X66408Y-48115D01*
X66380Y-48059D01*
X66380Y-48003D01*
X66408Y-47947D01*
X66437Y-47919D01*
X66493Y-47890D01*
X66605Y-47862D01*
X66661Y-47834D01*
X66690Y-47806D01*
X66718Y-47750D01*
X66718Y-47694D01*
X66690Y-47637D01*
X66661Y-47609D01*
X66605Y-47581D01*
X66465Y-47581D01*
X66380Y-47609D01*
X66212Y-47581D02*
X65874Y-47581D01*
X66043Y-48172D02*
X66043Y-47581D01*
X65705Y-48003D02*
X65424Y-48003D01*
X65762Y-48172D02*
X65565Y-47581D01*
X65368Y-48172D01*
X64834Y-48172D02*
X65030Y-47890D01*
X65171Y-48172D02*
X65171Y-47581D01*
X64946Y-47581D01*
X64890Y-47609D01*
X64862Y-47637D01*
X64834Y-47694D01*
X64834Y-47778D01*
X64862Y-47834D01*
X64890Y-47862D01*
X64946Y-47890D01*
X65171Y-47890D01*
X64665Y-47581D02*
X64327Y-47581D01*
X64496Y-48172D02*
X64496Y-47581D01*
X68700Y-46695D02*
X68700Y-46105D01*
X68503Y-46526D01*
X68307Y-46105D01*
X68307Y-46695D01*
X68025Y-46695D02*
X68025Y-46105D01*
X67772Y-46667D02*
X67688Y-46695D01*
X67547Y-46695D01*
X67491Y-46667D01*
X67463Y-46639D01*
X67435Y-46583D01*
X67435Y-46526D01*
X67463Y-46470D01*
X67491Y-46442D01*
X67547Y-46414D01*
X67660Y-46386D01*
X67716Y-46358D01*
X67744Y-46330D01*
X67772Y-46273D01*
X67772Y-46217D01*
X67744Y-46161D01*
X67716Y-46133D01*
X67660Y-46105D01*
X67519Y-46105D01*
X67435Y-46133D01*
X67069Y-46105D02*
X66957Y-46105D01*
X66901Y-46133D01*
X66844Y-46189D01*
X66816Y-46302D01*
X66816Y-46498D01*
X66844Y-46611D01*
X66901Y-46667D01*
X66957Y-46695D01*
X67069Y-46695D01*
X67125Y-46667D01*
X67182Y-46611D01*
X67210Y-46498D01*
X67210Y-46302D01*
X67182Y-46189D01*
X67125Y-46133D01*
X67069Y-46105D01*
X66141Y-46077D02*
X66647Y-46836D01*
X65663Y-46695D02*
X65944Y-46695D01*
X65944Y-46105D01*
X65494Y-46526D02*
X65213Y-46526D01*
X65551Y-46695D02*
X65354Y-46105D01*
X65157Y-46695D01*
X65044Y-46105D02*
X64707Y-46105D01*
X64876Y-46695D02*
X64876Y-46105D01*
X64173Y-46639D02*
X64201Y-46667D01*
X64285Y-46695D01*
X64341Y-46695D01*
X64426Y-46667D01*
X64482Y-46611D01*
X64510Y-46555D01*
X64538Y-46442D01*
X64538Y-46358D01*
X64510Y-46245D01*
X64482Y-46189D01*
X64426Y-46133D01*
X64341Y-46105D01*
X64285Y-46105D01*
X64201Y-46133D01*
X64173Y-46161D01*
X63920Y-46695D02*
X63920Y-46105D01*
X63920Y-46386D02*
X63582Y-46386D01*
X63582Y-46695D02*
X63582Y-46105D01*
X64834Y-45486D02*
X64749Y-45514D01*
X64609Y-45514D01*
X64552Y-45486D01*
X64524Y-45458D01*
X64496Y-45402D01*
X64496Y-45345D01*
X64524Y-45289D01*
X64552Y-45261D01*
X64609Y-45233D01*
X64721Y-45205D01*
X64777Y-45177D01*
X64805Y-45149D01*
X64834Y-45092D01*
X64834Y-45036D01*
X64805Y-44980D01*
X64777Y-44952D01*
X64721Y-44924D01*
X64580Y-44924D01*
X64496Y-44952D01*
X63906Y-45458D02*
X63934Y-45486D01*
X64018Y-45514D01*
X64074Y-45514D01*
X64159Y-45486D01*
X64215Y-45430D01*
X64243Y-45374D01*
X64271Y-45261D01*
X64271Y-45177D01*
X64243Y-45064D01*
X64215Y-45008D01*
X64159Y-44952D01*
X64074Y-44924D01*
X64018Y-44924D01*
X63934Y-44952D01*
X63906Y-44980D01*
X63652Y-45514D02*
X63652Y-44924D01*
X63315Y-45514D02*
X63568Y-45177D01*
X63315Y-44924D02*
X63652Y-45261D01*
X67519Y-43939D02*
X67519Y-43349D01*
X67322Y-43771D01*
X67125Y-43349D01*
X67125Y-43939D01*
X66732Y-43349D02*
X66619Y-43349D01*
X66563Y-43377D01*
X66507Y-43433D01*
X66479Y-43546D01*
X66479Y-43742D01*
X66507Y-43855D01*
X66563Y-43911D01*
X66619Y-43939D01*
X66732Y-43939D01*
X66788Y-43911D01*
X66844Y-43855D01*
X66872Y-43742D01*
X66872Y-43546D01*
X66844Y-43433D01*
X66788Y-43377D01*
X66732Y-43349D01*
X66254Y-43911D02*
X66169Y-43939D01*
X66029Y-43939D01*
X65973Y-43911D01*
X65944Y-43883D01*
X65916Y-43827D01*
X65916Y-43771D01*
X65944Y-43714D01*
X65973Y-43686D01*
X66029Y-43658D01*
X66141Y-43630D01*
X66197Y-43602D01*
X66226Y-43574D01*
X66254Y-43517D01*
X66254Y-43461D01*
X66226Y-43405D01*
X66197Y-43377D01*
X66141Y-43349D01*
X66001Y-43349D01*
X65916Y-43377D01*
X65663Y-43939D02*
X65663Y-43349D01*
X64960Y-43321D02*
X65466Y-44080D01*
X64763Y-43939D02*
X64763Y-43349D01*
X64623Y-43349D01*
X64538Y-43377D01*
X64482Y-43433D01*
X64454Y-43489D01*
X64426Y-43602D01*
X64426Y-43686D01*
X64454Y-43799D01*
X64482Y-43855D01*
X64538Y-43911D01*
X64623Y-43939D01*
X64763Y-43939D01*
X64201Y-43771D02*
X63920Y-43771D01*
X64257Y-43939D02*
X64060Y-43349D01*
X63863Y-43939D01*
X63751Y-43349D02*
X63413Y-43349D01*
X63582Y-43939D02*
X63582Y-43349D01*
X63245Y-43771D02*
X62964Y-43771D01*
X63301Y-43939D02*
X63104Y-43349D01*
X62907Y-43939D01*
X68321Y-41774D02*
X68321Y-42252D01*
X68293Y-42308D01*
X68264Y-42336D01*
X68208Y-42365D01*
X68096Y-42365D01*
X68039Y-42336D01*
X68011Y-42308D01*
X67983Y-42252D01*
X67983Y-41774D01*
X67730Y-41830D02*
X67702Y-41802D01*
X67646Y-41774D01*
X67505Y-41774D01*
X67449Y-41802D01*
X67421Y-41830D01*
X67393Y-41886D01*
X67393Y-41943D01*
X67421Y-42027D01*
X67758Y-42365D01*
X67393Y-42365D01*
X66690Y-42365D02*
X66690Y-41774D01*
X66549Y-41774D01*
X66465Y-41802D01*
X66408Y-41858D01*
X66380Y-41915D01*
X66352Y-42027D01*
X66352Y-42111D01*
X66380Y-42224D01*
X66408Y-42280D01*
X66465Y-42336D01*
X66549Y-42365D01*
X66690Y-42365D01*
X66127Y-42196D02*
X65846Y-42196D01*
X66183Y-42365D02*
X65987Y-41774D01*
X65790Y-42365D01*
X65677Y-41774D02*
X65340Y-41774D01*
X65508Y-42365D02*
X65508Y-41774D01*
X65171Y-42196D02*
X64890Y-42196D01*
X65227Y-42365D02*
X65030Y-41774D01*
X64834Y-42365D01*
X64074Y-41774D02*
X63962Y-41774D01*
X63906Y-41802D01*
X63849Y-41858D01*
X63821Y-41971D01*
X63821Y-42168D01*
X63849Y-42280D01*
X63906Y-42336D01*
X63962Y-42365D01*
X64074Y-42365D01*
X64131Y-42336D01*
X64187Y-42280D01*
X64215Y-42168D01*
X64215Y-41971D01*
X64187Y-41858D01*
X64131Y-41802D01*
X64074Y-41774D01*
X63568Y-41774D02*
X63568Y-42252D01*
X63540Y-42308D01*
X63512Y-42336D01*
X63456Y-42365D01*
X63343Y-42365D01*
X63287Y-42336D01*
X63259Y-42308D01*
X63231Y-42252D01*
X63231Y-41774D01*
X63034Y-41774D02*
X62696Y-41774D01*
X62865Y-42365D02*
X62865Y-41774D01*
X68419Y-40199D02*
X68419Y-40677D01*
X68391Y-40733D01*
X68363Y-40762D01*
X68307Y-40790D01*
X68194Y-40790D01*
X68138Y-40762D01*
X68110Y-40733D01*
X68082Y-40677D01*
X68082Y-40199D01*
X67491Y-40790D02*
X67829Y-40790D01*
X67660Y-40790D02*
X67660Y-40199D01*
X67716Y-40284D01*
X67772Y-40340D01*
X67829Y-40368D01*
X66788Y-40790D02*
X66788Y-40199D01*
X66647Y-40199D01*
X66563Y-40227D01*
X66507Y-40284D01*
X66479Y-40340D01*
X66451Y-40452D01*
X66451Y-40537D01*
X66479Y-40649D01*
X66507Y-40705D01*
X66563Y-40762D01*
X66647Y-40790D01*
X66788Y-40790D01*
X66226Y-40621D02*
X65944Y-40621D01*
X66282Y-40790D02*
X66085Y-40199D01*
X65888Y-40790D01*
X65776Y-40199D02*
X65438Y-40199D01*
X65607Y-40790D02*
X65607Y-40199D01*
X65269Y-40621D02*
X64988Y-40621D01*
X65326Y-40790D02*
X65129Y-40199D01*
X64932Y-40790D01*
X64173Y-40199D02*
X64060Y-40199D01*
X64004Y-40227D01*
X63948Y-40284D01*
X63920Y-40396D01*
X63920Y-40593D01*
X63948Y-40705D01*
X64004Y-40762D01*
X64060Y-40790D01*
X64173Y-40790D01*
X64229Y-40762D01*
X64285Y-40705D01*
X64313Y-40593D01*
X64313Y-40396D01*
X64285Y-40284D01*
X64229Y-40227D01*
X64173Y-40199D01*
X63667Y-40199D02*
X63667Y-40677D01*
X63638Y-40733D01*
X63610Y-40762D01*
X63554Y-40790D01*
X63442Y-40790D01*
X63385Y-40762D01*
X63357Y-40733D01*
X63329Y-40677D01*
X63329Y-40199D01*
X63132Y-40199D02*
X62795Y-40199D01*
X62964Y-40790D02*
X62964Y-40199D01*
X64131Y-38456D02*
X64187Y-38428D01*
X64271Y-38428D01*
X64356Y-38456D01*
X64412Y-38512D01*
X64440Y-38568D01*
X64468Y-38681D01*
X64468Y-38765D01*
X64440Y-38877D01*
X64412Y-38934D01*
X64356Y-38990D01*
X64271Y-39018D01*
X64215Y-39018D01*
X64131Y-38990D01*
X64102Y-38962D01*
X64102Y-38765D01*
X64215Y-38765D01*
X63849Y-39018D02*
X63849Y-38428D01*
X63512Y-39018D01*
X63512Y-38428D01*
X63231Y-39018D02*
X63231Y-38428D01*
X63090Y-38428D01*
X63006Y-38456D01*
X62949Y-38512D01*
X62921Y-38568D01*
X62893Y-38681D01*
X62893Y-38765D01*
X62921Y-38877D01*
X62949Y-38934D01*
X63006Y-38990D01*
X63090Y-39018D01*
X63231Y-39018D01*
X64398Y-37542D02*
X64595Y-37260D01*
X64735Y-37542D02*
X64735Y-36951D01*
X64510Y-36951D01*
X64454Y-36979D01*
X64426Y-37007D01*
X64398Y-37064D01*
X64398Y-37148D01*
X64426Y-37204D01*
X64454Y-37232D01*
X64510Y-37260D01*
X64735Y-37260D01*
X64173Y-37514D02*
X64088Y-37542D01*
X63948Y-37542D01*
X63892Y-37514D01*
X63863Y-37485D01*
X63835Y-37429D01*
X63835Y-37373D01*
X63863Y-37317D01*
X63892Y-37289D01*
X63948Y-37260D01*
X64060Y-37232D01*
X64116Y-37204D01*
X64145Y-37176D01*
X64173Y-37120D01*
X64173Y-37064D01*
X64145Y-37007D01*
X64116Y-36979D01*
X64060Y-36951D01*
X63920Y-36951D01*
X63835Y-36979D01*
X63667Y-36951D02*
X63329Y-36951D01*
X63498Y-37542D02*
X63498Y-36951D01*
X65073Y-35376D02*
X64876Y-35967D01*
X64679Y-35376D01*
X64229Y-35939D02*
X64285Y-35967D01*
X64398Y-35967D01*
X64454Y-35939D01*
X64482Y-35911D01*
X64510Y-35854D01*
X64510Y-35686D01*
X64482Y-35629D01*
X64454Y-35601D01*
X64398Y-35573D01*
X64285Y-35573D01*
X64229Y-35601D01*
X63723Y-35939D02*
X63779Y-35967D01*
X63892Y-35967D01*
X63948Y-35939D01*
X63976Y-35911D01*
X64004Y-35854D01*
X64004Y-35686D01*
X63976Y-35629D01*
X63948Y-35601D01*
X63892Y-35573D01*
X63779Y-35573D01*
X63723Y-35601D01*
G54D11*
X73523Y-36515D02*
X73523Y-37204D01*
X73326Y-36712D02*
X73326Y-36515D01*
X72933Y-37106D02*
X73326Y-36712D01*
X72244Y-37007D02*
X72244Y-36515D01*
X72440Y-37204D02*
X72244Y-37007D01*
X71850Y-36712D02*
X71850Y-36515D01*
X71358Y-37204D02*
X71850Y-36712D01*
X71259Y-41535D02*
X71259Y-40748D01*
X71948Y-41141D02*
X71948Y-41338D01*
X72342Y-40748D02*
X71948Y-41141D01*
X72539Y-40944D02*
X72539Y-40748D01*
X72933Y-41338D02*
X72539Y-40944D01*
X73425Y-41043D02*
X73425Y-40748D01*
X73129Y-41338D02*
X73425Y-41043D01*
X68307Y-39862D02*
X68897Y-39862D01*
X68700Y-39173D02*
X68897Y-39173D01*
X68307Y-39566D02*
X68700Y-39173D01*
X68799Y-38779D02*
X68307Y-38287D01*
X68897Y-37893D02*
X68307Y-37893D01*
G54D10*
X94333Y-35278D02*
X93996Y-35278D01*
X94164Y-35868D02*
X94164Y-35278D01*
X93714Y-35868D02*
X93771Y-35840D01*
X93799Y-35812D01*
X93827Y-35756D01*
X93827Y-35587D01*
X93799Y-35531D01*
X93771Y-35503D01*
X93714Y-35475D01*
X93630Y-35475D01*
X93574Y-35503D01*
X93546Y-35531D01*
X93517Y-35587D01*
X93517Y-35756D01*
X93546Y-35812D01*
X93574Y-35840D01*
X93630Y-35868D01*
X93714Y-35868D01*
X92730Y-35868D02*
X92786Y-35840D01*
X92814Y-35812D01*
X92843Y-35756D01*
X92843Y-35587D01*
X92814Y-35531D01*
X92786Y-35503D01*
X92730Y-35475D01*
X92646Y-35475D01*
X92589Y-35503D01*
X92561Y-35531D01*
X92533Y-35587D01*
X92533Y-35756D01*
X92561Y-35812D01*
X92589Y-35840D01*
X92646Y-35868D01*
X92730Y-35868D01*
X92280Y-35475D02*
X92280Y-36065D01*
X92280Y-35503D02*
X92224Y-35475D01*
X92111Y-35475D01*
X92055Y-35503D01*
X92027Y-35531D01*
X91999Y-35587D01*
X91999Y-35756D01*
X92027Y-35812D01*
X92055Y-35840D01*
X92111Y-35868D01*
X92224Y-35868D01*
X92280Y-35840D01*
X91521Y-35840D02*
X91577Y-35868D01*
X91690Y-35868D01*
X91746Y-35840D01*
X91774Y-35784D01*
X91774Y-35559D01*
X91746Y-35503D01*
X91690Y-35475D01*
X91577Y-35475D01*
X91521Y-35503D01*
X91493Y-35559D01*
X91493Y-35615D01*
X91774Y-35672D01*
X91240Y-35868D02*
X91240Y-35475D01*
X91240Y-35587D02*
X91212Y-35531D01*
X91183Y-35503D01*
X91127Y-35475D01*
X91071Y-35475D01*
X90621Y-35868D02*
X90621Y-35559D01*
X90649Y-35503D01*
X90705Y-35475D01*
X90818Y-35475D01*
X90874Y-35503D01*
X90621Y-35840D02*
X90677Y-35868D01*
X90818Y-35868D01*
X90874Y-35840D01*
X90902Y-35784D01*
X90902Y-35728D01*
X90874Y-35672D01*
X90818Y-35643D01*
X90677Y-35643D01*
X90621Y-35615D01*
X90424Y-35475D02*
X90199Y-35475D01*
X90340Y-35278D02*
X90340Y-35784D01*
X90312Y-35840D01*
X90255Y-35868D01*
X90199Y-35868D01*
X89777Y-35840D02*
X89834Y-35868D01*
X89946Y-35868D01*
X90002Y-35840D01*
X90030Y-35784D01*
X90030Y-35559D01*
X90002Y-35503D01*
X89946Y-35475D01*
X89834Y-35475D01*
X89777Y-35503D01*
X89749Y-35559D01*
X89749Y-35615D01*
X90030Y-35672D01*
X89046Y-35475D02*
X89046Y-35868D01*
X89046Y-35531D02*
X89018Y-35503D01*
X88962Y-35475D01*
X88877Y-35475D01*
X88821Y-35503D01*
X88793Y-35559D01*
X88793Y-35868D01*
X88428Y-35868D02*
X88484Y-35840D01*
X88512Y-35812D01*
X88540Y-35756D01*
X88540Y-35587D01*
X88512Y-35531D01*
X88484Y-35503D01*
X88428Y-35475D01*
X88343Y-35475D01*
X88287Y-35503D01*
X88259Y-35531D01*
X88231Y-35587D01*
X88231Y-35756D01*
X88259Y-35812D01*
X88287Y-35840D01*
X88343Y-35868D01*
X88428Y-35868D01*
X87978Y-35868D02*
X87978Y-35475D01*
X87978Y-35587D02*
X87949Y-35531D01*
X87921Y-35503D01*
X87865Y-35475D01*
X87809Y-35475D01*
X87612Y-35868D02*
X87612Y-35475D01*
X87612Y-35531D02*
X87584Y-35503D01*
X87528Y-35475D01*
X87443Y-35475D01*
X87387Y-35503D01*
X87359Y-35559D01*
X87359Y-35868D01*
X87359Y-35559D02*
X87331Y-35503D01*
X87275Y-35475D01*
X87190Y-35475D01*
X87134Y-35503D01*
X87106Y-35559D01*
X87106Y-35868D01*
X86571Y-35868D02*
X86571Y-35559D01*
X86600Y-35503D01*
X86656Y-35475D01*
X86768Y-35475D01*
X86825Y-35503D01*
X86571Y-35840D02*
X86628Y-35868D01*
X86768Y-35868D01*
X86825Y-35840D01*
X86853Y-35784D01*
X86853Y-35728D01*
X86825Y-35672D01*
X86768Y-35643D01*
X86628Y-35643D01*
X86571Y-35615D01*
X86206Y-35868D02*
X86262Y-35840D01*
X86290Y-35784D01*
X86290Y-35278D01*
X85897Y-35868D02*
X85953Y-35840D01*
X85981Y-35784D01*
X85981Y-35278D01*
X85728Y-35475D02*
X85587Y-35868D01*
X85447Y-35475D02*
X85587Y-35868D01*
X85643Y-36009D01*
X85672Y-36037D01*
X85728Y-36065D01*
X85194Y-35840D02*
X85194Y-35868D01*
X85222Y-35925D01*
X85250Y-35953D01*
X84237Y-35840D02*
X84294Y-35868D01*
X84406Y-35868D01*
X84462Y-35840D01*
X84491Y-35812D01*
X84519Y-35756D01*
X84519Y-35587D01*
X84491Y-35531D01*
X84462Y-35503D01*
X84406Y-35475D01*
X84294Y-35475D01*
X84237Y-35503D01*
X83900Y-35868D02*
X83956Y-35840D01*
X83984Y-35812D01*
X84012Y-35756D01*
X84012Y-35587D01*
X83984Y-35531D01*
X83956Y-35503D01*
X83900Y-35475D01*
X83816Y-35475D01*
X83759Y-35503D01*
X83731Y-35531D01*
X83703Y-35587D01*
X83703Y-35756D01*
X83731Y-35812D01*
X83759Y-35840D01*
X83816Y-35868D01*
X83900Y-35868D01*
X83450Y-35475D02*
X83450Y-35868D01*
X83450Y-35531D02*
X83422Y-35503D01*
X83366Y-35475D01*
X83281Y-35475D01*
X83225Y-35503D01*
X83197Y-35559D01*
X83197Y-35868D01*
X82916Y-35475D02*
X82916Y-35868D01*
X82916Y-35531D02*
X82888Y-35503D01*
X82831Y-35475D01*
X82747Y-35475D01*
X82691Y-35503D01*
X82663Y-35559D01*
X82663Y-35868D01*
X82156Y-35840D02*
X82213Y-35868D01*
X82325Y-35868D01*
X82381Y-35840D01*
X82410Y-35784D01*
X82410Y-35559D01*
X82381Y-35503D01*
X82325Y-35475D01*
X82213Y-35475D01*
X82156Y-35503D01*
X82128Y-35559D01*
X82128Y-35615D01*
X82410Y-35672D01*
X81622Y-35840D02*
X81678Y-35868D01*
X81791Y-35868D01*
X81847Y-35840D01*
X81875Y-35812D01*
X81903Y-35756D01*
X81903Y-35587D01*
X81875Y-35531D01*
X81847Y-35503D01*
X81791Y-35475D01*
X81678Y-35475D01*
X81622Y-35503D01*
X81453Y-35475D02*
X81228Y-35475D01*
X81369Y-35278D02*
X81369Y-35784D01*
X81341Y-35840D01*
X81285Y-35868D01*
X81228Y-35868D01*
X80582Y-35475D02*
X80582Y-35981D01*
X80610Y-36037D01*
X80666Y-36065D01*
X80694Y-36065D01*
X80582Y-35278D02*
X80610Y-35306D01*
X80582Y-35334D01*
X80553Y-35306D01*
X80582Y-35278D01*
X80582Y-35334D01*
X80047Y-35475D02*
X80047Y-35868D01*
X80300Y-35475D02*
X80300Y-35784D01*
X80272Y-35840D01*
X80216Y-35868D01*
X80132Y-35868D01*
X80075Y-35840D01*
X80047Y-35812D01*
X79766Y-35868D02*
X79766Y-35475D01*
X79766Y-35531D02*
X79738Y-35503D01*
X79682Y-35475D01*
X79597Y-35475D01*
X79541Y-35503D01*
X79513Y-35559D01*
X79513Y-35868D01*
X79513Y-35559D02*
X79485Y-35503D01*
X79429Y-35475D01*
X79344Y-35475D01*
X79288Y-35503D01*
X79260Y-35559D01*
X79260Y-35868D01*
X78979Y-35475D02*
X78979Y-36065D01*
X78979Y-35503D02*
X78922Y-35475D01*
X78810Y-35475D01*
X78754Y-35503D01*
X78726Y-35531D01*
X78697Y-35587D01*
X78697Y-35756D01*
X78726Y-35812D01*
X78754Y-35840D01*
X78810Y-35868D01*
X78922Y-35868D01*
X78979Y-35840D01*
X78219Y-35840D02*
X78276Y-35868D01*
X78388Y-35868D01*
X78444Y-35840D01*
X78473Y-35784D01*
X78473Y-35559D01*
X78444Y-35503D01*
X78388Y-35475D01*
X78276Y-35475D01*
X78219Y-35503D01*
X78191Y-35559D01*
X78191Y-35615D01*
X78473Y-35672D01*
X77938Y-35868D02*
X77938Y-35475D01*
X77938Y-35587D02*
X77910Y-35531D01*
X77882Y-35503D01*
X77826Y-35475D01*
X77769Y-35475D01*
X94249Y-36361D02*
X94249Y-36951D01*
X94249Y-36389D02*
X94192Y-36361D01*
X94080Y-36361D01*
X94024Y-36389D01*
X93996Y-36417D01*
X93967Y-36473D01*
X93967Y-36642D01*
X93996Y-36698D01*
X94024Y-36726D01*
X94080Y-36754D01*
X94192Y-36754D01*
X94249Y-36726D01*
X93714Y-36754D02*
X93714Y-36361D01*
X93714Y-36164D02*
X93742Y-36192D01*
X93714Y-36220D01*
X93686Y-36192D01*
X93714Y-36164D01*
X93714Y-36220D01*
X93433Y-36361D02*
X93433Y-36754D01*
X93433Y-36417D02*
X93405Y-36389D01*
X93349Y-36361D01*
X93264Y-36361D01*
X93208Y-36389D01*
X93180Y-36445D01*
X93180Y-36754D01*
X92927Y-36726D02*
X92871Y-36754D01*
X92758Y-36754D01*
X92702Y-36726D01*
X92674Y-36670D01*
X92674Y-36642D01*
X92702Y-36586D01*
X92758Y-36557D01*
X92843Y-36557D01*
X92899Y-36529D01*
X92927Y-36473D01*
X92927Y-36445D01*
X92899Y-36389D01*
X92843Y-36361D01*
X92758Y-36361D01*
X92702Y-36389D01*
X91971Y-36754D02*
X91971Y-36164D01*
X91971Y-36389D02*
X91915Y-36361D01*
X91802Y-36361D01*
X91746Y-36389D01*
X91718Y-36417D01*
X91690Y-36473D01*
X91690Y-36642D01*
X91718Y-36698D01*
X91746Y-36726D01*
X91802Y-36754D01*
X91915Y-36754D01*
X91971Y-36726D01*
X91212Y-36726D02*
X91268Y-36754D01*
X91380Y-36754D01*
X91437Y-36726D01*
X91465Y-36670D01*
X91465Y-36445D01*
X91437Y-36389D01*
X91380Y-36361D01*
X91268Y-36361D01*
X91212Y-36389D01*
X91183Y-36445D01*
X91183Y-36501D01*
X91465Y-36557D01*
X91015Y-36361D02*
X90790Y-36361D01*
X90930Y-36164D02*
X90930Y-36670D01*
X90902Y-36726D01*
X90846Y-36754D01*
X90790Y-36754D01*
X90649Y-36361D02*
X90537Y-36754D01*
X90424Y-36473D01*
X90312Y-36754D01*
X90199Y-36361D01*
X89749Y-36726D02*
X89805Y-36754D01*
X89918Y-36754D01*
X89974Y-36726D01*
X90002Y-36670D01*
X90002Y-36445D01*
X89974Y-36389D01*
X89918Y-36361D01*
X89805Y-36361D01*
X89749Y-36389D01*
X89721Y-36445D01*
X89721Y-36501D01*
X90002Y-36557D01*
X89243Y-36726D02*
X89299Y-36754D01*
X89412Y-36754D01*
X89468Y-36726D01*
X89496Y-36670D01*
X89496Y-36445D01*
X89468Y-36389D01*
X89412Y-36361D01*
X89299Y-36361D01*
X89243Y-36389D01*
X89215Y-36445D01*
X89215Y-36501D01*
X89496Y-36557D01*
X88962Y-36361D02*
X88962Y-36754D01*
X88962Y-36417D02*
X88934Y-36389D01*
X88877Y-36361D01*
X88793Y-36361D01*
X88737Y-36389D01*
X88709Y-36445D01*
X88709Y-36754D01*
X88006Y-36220D02*
X87978Y-36192D01*
X87921Y-36164D01*
X87781Y-36164D01*
X87724Y-36192D01*
X87696Y-36220D01*
X87668Y-36276D01*
X87668Y-36332D01*
X87696Y-36417D01*
X88034Y-36754D01*
X87668Y-36754D01*
X86965Y-36361D02*
X86965Y-36951D01*
X86965Y-36389D02*
X86909Y-36361D01*
X86796Y-36361D01*
X86740Y-36389D01*
X86712Y-36417D01*
X86684Y-36473D01*
X86684Y-36642D01*
X86712Y-36698D01*
X86740Y-36726D01*
X86796Y-36754D01*
X86909Y-36754D01*
X86965Y-36726D01*
X86431Y-36754D02*
X86431Y-36361D01*
X86431Y-36164D02*
X86459Y-36192D01*
X86431Y-36220D01*
X86403Y-36192D01*
X86431Y-36164D01*
X86431Y-36220D01*
X86150Y-36361D02*
X86150Y-36754D01*
X86150Y-36417D02*
X86122Y-36389D01*
X86065Y-36361D01*
X85981Y-36361D01*
X85925Y-36389D01*
X85897Y-36445D01*
X85897Y-36754D01*
X85643Y-36726D02*
X85587Y-36754D01*
X85475Y-36754D01*
X85419Y-36726D01*
X85390Y-36670D01*
X85390Y-36642D01*
X85419Y-36586D01*
X85475Y-36557D01*
X85559Y-36557D01*
X85615Y-36529D01*
X85643Y-36473D01*
X85643Y-36445D01*
X85615Y-36389D01*
X85559Y-36361D01*
X85475Y-36361D01*
X85419Y-36389D01*
X84434Y-36726D02*
X84491Y-36754D01*
X84603Y-36754D01*
X84659Y-36726D01*
X84687Y-36698D01*
X84715Y-36642D01*
X84715Y-36473D01*
X84687Y-36417D01*
X84659Y-36389D01*
X84603Y-36361D01*
X84491Y-36361D01*
X84434Y-36389D01*
X84097Y-36754D02*
X84153Y-36726D01*
X84181Y-36670D01*
X84181Y-36164D01*
X83787Y-36754D02*
X83844Y-36726D01*
X83872Y-36698D01*
X83900Y-36642D01*
X83900Y-36473D01*
X83872Y-36417D01*
X83844Y-36389D01*
X83787Y-36361D01*
X83703Y-36361D01*
X83647Y-36389D01*
X83619Y-36417D01*
X83591Y-36473D01*
X83591Y-36642D01*
X83619Y-36698D01*
X83647Y-36726D01*
X83703Y-36754D01*
X83787Y-36754D01*
X83366Y-36726D02*
X83309Y-36754D01*
X83197Y-36754D01*
X83141Y-36726D01*
X83113Y-36670D01*
X83113Y-36642D01*
X83141Y-36586D01*
X83197Y-36557D01*
X83281Y-36557D01*
X83338Y-36529D01*
X83366Y-36473D01*
X83366Y-36445D01*
X83338Y-36389D01*
X83281Y-36361D01*
X83197Y-36361D01*
X83141Y-36389D01*
X82634Y-36726D02*
X82691Y-36754D01*
X82803Y-36754D01*
X82859Y-36726D01*
X82888Y-36670D01*
X82888Y-36445D01*
X82859Y-36389D01*
X82803Y-36361D01*
X82691Y-36361D01*
X82634Y-36389D01*
X82606Y-36445D01*
X82606Y-36501D01*
X82888Y-36557D01*
X82381Y-36726D02*
X82325Y-36754D01*
X82213Y-36754D01*
X82156Y-36726D01*
X82128Y-36670D01*
X82128Y-36642D01*
X82156Y-36586D01*
X82213Y-36557D01*
X82297Y-36557D01*
X82353Y-36529D01*
X82381Y-36473D01*
X82381Y-36445D01*
X82353Y-36389D01*
X82297Y-36361D01*
X82213Y-36361D01*
X82156Y-36389D01*
X81960Y-36361D02*
X81735Y-36361D01*
X81875Y-36164D02*
X81875Y-36670D01*
X81847Y-36726D01*
X81791Y-36754D01*
X81735Y-36754D01*
X81172Y-36361D02*
X80947Y-36361D01*
X81088Y-36164D02*
X81088Y-36670D01*
X81060Y-36726D01*
X81003Y-36754D01*
X80947Y-36754D01*
X80666Y-36754D02*
X80722Y-36726D01*
X80750Y-36698D01*
X80778Y-36642D01*
X80778Y-36473D01*
X80750Y-36417D01*
X80722Y-36389D01*
X80666Y-36361D01*
X80582Y-36361D01*
X80525Y-36389D01*
X80497Y-36417D01*
X80469Y-36473D01*
X80469Y-36642D01*
X80497Y-36698D01*
X80525Y-36726D01*
X80582Y-36754D01*
X80666Y-36754D01*
X79794Y-36164D02*
X79794Y-36276D01*
X79569Y-36164D02*
X79569Y-36276D01*
X79316Y-36754D02*
X79316Y-36164D01*
X78979Y-36754D01*
X78979Y-36164D01*
X78360Y-36754D02*
X78557Y-36473D01*
X78697Y-36754D02*
X78697Y-36164D01*
X78473Y-36164D01*
X78416Y-36192D01*
X78388Y-36220D01*
X78360Y-36276D01*
X78360Y-36361D01*
X78388Y-36417D01*
X78416Y-36445D01*
X78473Y-36473D01*
X78697Y-36473D01*
X78107Y-36754D02*
X78107Y-36164D01*
X77910Y-36586D01*
X77713Y-36164D01*
X77713Y-36754D01*
X77460Y-36164D02*
X77460Y-36276D01*
X77235Y-36164D02*
X77235Y-36276D01*
X94333Y-37246D02*
X94108Y-37246D01*
X94249Y-37640D02*
X94249Y-37134D01*
X94221Y-37078D01*
X94164Y-37050D01*
X94108Y-37050D01*
X93827Y-37640D02*
X93883Y-37612D01*
X93911Y-37584D01*
X93939Y-37528D01*
X93939Y-37359D01*
X93911Y-37303D01*
X93883Y-37275D01*
X93827Y-37246D01*
X93742Y-37246D01*
X93686Y-37275D01*
X93658Y-37303D01*
X93630Y-37359D01*
X93630Y-37528D01*
X93658Y-37584D01*
X93686Y-37612D01*
X93742Y-37640D01*
X93827Y-37640D01*
X93377Y-37640D02*
X93377Y-37246D01*
X93377Y-37359D02*
X93349Y-37303D01*
X93321Y-37275D01*
X93264Y-37246D01*
X93208Y-37246D01*
X92308Y-37640D02*
X92308Y-37331D01*
X92336Y-37275D01*
X92393Y-37246D01*
X92505Y-37246D01*
X92561Y-37275D01*
X92308Y-37612D02*
X92365Y-37640D01*
X92505Y-37640D01*
X92561Y-37612D01*
X92589Y-37556D01*
X92589Y-37500D01*
X92561Y-37443D01*
X92505Y-37415D01*
X92365Y-37415D01*
X92308Y-37387D01*
X91943Y-37640D02*
X91999Y-37612D01*
X92027Y-37556D01*
X92027Y-37050D01*
X91633Y-37640D02*
X91690Y-37612D01*
X91718Y-37556D01*
X91718Y-37050D01*
X90958Y-37246D02*
X90958Y-37837D01*
X90958Y-37275D02*
X90902Y-37246D01*
X90790Y-37246D01*
X90733Y-37275D01*
X90705Y-37303D01*
X90677Y-37359D01*
X90677Y-37528D01*
X90705Y-37584D01*
X90733Y-37612D01*
X90790Y-37640D01*
X90902Y-37640D01*
X90958Y-37612D01*
X90424Y-37640D02*
X90424Y-37246D01*
X90424Y-37050D02*
X90452Y-37078D01*
X90424Y-37106D01*
X90396Y-37078D01*
X90424Y-37050D01*
X90424Y-37106D01*
X90143Y-37246D02*
X90143Y-37640D01*
X90143Y-37303D02*
X90115Y-37275D01*
X90059Y-37246D01*
X89974Y-37246D01*
X89918Y-37275D01*
X89890Y-37331D01*
X89890Y-37640D01*
X89637Y-37612D02*
X89580Y-37640D01*
X89468Y-37640D01*
X89412Y-37612D01*
X89384Y-37556D01*
X89384Y-37528D01*
X89412Y-37471D01*
X89468Y-37443D01*
X89552Y-37443D01*
X89609Y-37415D01*
X89637Y-37359D01*
X89637Y-37331D01*
X89609Y-37275D01*
X89552Y-37246D01*
X89468Y-37246D01*
X89412Y-37275D01*
X89131Y-37584D02*
X89102Y-37612D01*
X89131Y-37640D01*
X89159Y-37612D01*
X89131Y-37584D01*
X89131Y-37640D01*
X88484Y-37050D02*
X88146Y-37050D01*
X88315Y-37640D02*
X88315Y-37050D01*
X87865Y-37640D02*
X87921Y-37612D01*
X87949Y-37584D01*
X87978Y-37528D01*
X87978Y-37359D01*
X87949Y-37303D01*
X87921Y-37275D01*
X87865Y-37246D01*
X87781Y-37246D01*
X87724Y-37275D01*
X87696Y-37303D01*
X87668Y-37359D01*
X87668Y-37528D01*
X87696Y-37584D01*
X87724Y-37612D01*
X87781Y-37640D01*
X87865Y-37640D01*
X86965Y-37246D02*
X86965Y-37837D01*
X86965Y-37275D02*
X86909Y-37246D01*
X86796Y-37246D01*
X86740Y-37275D01*
X86712Y-37303D01*
X86684Y-37359D01*
X86684Y-37528D01*
X86712Y-37584D01*
X86740Y-37612D01*
X86796Y-37640D01*
X86909Y-37640D01*
X86965Y-37612D01*
X86178Y-37246D02*
X86178Y-37640D01*
X86431Y-37246D02*
X86431Y-37556D01*
X86403Y-37612D01*
X86347Y-37640D01*
X86262Y-37640D01*
X86206Y-37612D01*
X86178Y-37584D01*
X85981Y-37246D02*
X85756Y-37246D01*
X85897Y-37050D02*
X85897Y-37556D01*
X85868Y-37612D01*
X85812Y-37640D01*
X85756Y-37640D01*
X85109Y-37640D02*
X85109Y-37246D01*
X85109Y-37050D02*
X85137Y-37078D01*
X85109Y-37106D01*
X85081Y-37078D01*
X85109Y-37050D01*
X85109Y-37106D01*
X84828Y-37246D02*
X84828Y-37640D01*
X84828Y-37303D02*
X84800Y-37275D01*
X84744Y-37246D01*
X84659Y-37246D01*
X84603Y-37275D01*
X84575Y-37331D01*
X84575Y-37640D01*
X83844Y-37640D02*
X83844Y-37050D01*
X83844Y-37275D02*
X83787Y-37246D01*
X83675Y-37246D01*
X83619Y-37275D01*
X83591Y-37303D01*
X83562Y-37359D01*
X83562Y-37528D01*
X83591Y-37584D01*
X83619Y-37612D01*
X83675Y-37640D01*
X83787Y-37640D01*
X83844Y-37612D01*
X83225Y-37640D02*
X83281Y-37612D01*
X83309Y-37584D01*
X83338Y-37528D01*
X83338Y-37359D01*
X83309Y-37303D01*
X83281Y-37275D01*
X83225Y-37246D01*
X83141Y-37246D01*
X83084Y-37275D01*
X83056Y-37303D01*
X83028Y-37359D01*
X83028Y-37528D01*
X83056Y-37584D01*
X83084Y-37612D01*
X83141Y-37640D01*
X83225Y-37640D01*
X82691Y-37640D02*
X82747Y-37612D01*
X82775Y-37584D01*
X82803Y-37528D01*
X82803Y-37359D01*
X82775Y-37303D01*
X82747Y-37275D01*
X82691Y-37246D01*
X82606Y-37246D01*
X82550Y-37275D01*
X82522Y-37303D01*
X82494Y-37359D01*
X82494Y-37528D01*
X82522Y-37584D01*
X82550Y-37612D01*
X82606Y-37640D01*
X82691Y-37640D01*
X82325Y-37246D02*
X82100Y-37246D01*
X82241Y-37050D02*
X82241Y-37556D01*
X82213Y-37612D01*
X82156Y-37640D01*
X82100Y-37640D01*
X81819Y-37640D02*
X81875Y-37612D01*
X81903Y-37556D01*
X81903Y-37050D01*
X81510Y-37640D02*
X81566Y-37612D01*
X81594Y-37584D01*
X81622Y-37528D01*
X81622Y-37359D01*
X81594Y-37303D01*
X81566Y-37275D01*
X81510Y-37246D01*
X81425Y-37246D01*
X81369Y-37275D01*
X81341Y-37303D01*
X81313Y-37359D01*
X81313Y-37528D01*
X81341Y-37584D01*
X81369Y-37612D01*
X81425Y-37640D01*
X81510Y-37640D01*
X80807Y-37640D02*
X80807Y-37331D01*
X80835Y-37275D01*
X80891Y-37246D01*
X81003Y-37246D01*
X81060Y-37275D01*
X80807Y-37612D02*
X80863Y-37640D01*
X81003Y-37640D01*
X81060Y-37612D01*
X81088Y-37556D01*
X81088Y-37500D01*
X81060Y-37443D01*
X81003Y-37415D01*
X80863Y-37415D01*
X80807Y-37387D01*
X80272Y-37640D02*
X80272Y-37050D01*
X80272Y-37612D02*
X80329Y-37640D01*
X80441Y-37640D01*
X80497Y-37612D01*
X80525Y-37584D01*
X80553Y-37528D01*
X80553Y-37359D01*
X80525Y-37303D01*
X80497Y-37275D01*
X80441Y-37246D01*
X80329Y-37246D01*
X80272Y-37275D01*
X79766Y-37612D02*
X79822Y-37640D01*
X79935Y-37640D01*
X79991Y-37612D01*
X80019Y-37556D01*
X80019Y-37331D01*
X79991Y-37275D01*
X79935Y-37246D01*
X79822Y-37246D01*
X79766Y-37275D01*
X79738Y-37331D01*
X79738Y-37387D01*
X80019Y-37443D01*
X79485Y-37640D02*
X79485Y-37246D01*
X79485Y-37359D02*
X79457Y-37303D01*
X79429Y-37275D01*
X79372Y-37246D01*
X79316Y-37246D01*
X78669Y-37640D02*
X78669Y-37246D01*
X78669Y-37303D02*
X78641Y-37275D01*
X78585Y-37246D01*
X78501Y-37246D01*
X78444Y-37275D01*
X78416Y-37331D01*
X78416Y-37640D01*
X78416Y-37331D02*
X78388Y-37275D01*
X78332Y-37246D01*
X78248Y-37246D01*
X78191Y-37275D01*
X78163Y-37331D01*
X78163Y-37640D01*
X77798Y-37640D02*
X77854Y-37612D01*
X77882Y-37584D01*
X77910Y-37528D01*
X77910Y-37359D01*
X77882Y-37303D01*
X77854Y-37275D01*
X77798Y-37246D01*
X77713Y-37246D01*
X77657Y-37275D01*
X77629Y-37303D01*
X77601Y-37359D01*
X77601Y-37528D01*
X77629Y-37584D01*
X77657Y-37612D01*
X77713Y-37640D01*
X77798Y-37640D01*
X77095Y-37640D02*
X77095Y-37050D01*
X77095Y-37612D02*
X77151Y-37640D01*
X77263Y-37640D01*
X77320Y-37612D01*
X77348Y-37584D01*
X77376Y-37528D01*
X77376Y-37359D01*
X77348Y-37303D01*
X77320Y-37275D01*
X77263Y-37246D01*
X77151Y-37246D01*
X77095Y-37275D01*
X76588Y-37612D02*
X76645Y-37640D01*
X76757Y-37640D01*
X76813Y-37612D01*
X76841Y-37556D01*
X76841Y-37331D01*
X76813Y-37275D01*
X76757Y-37246D01*
X76645Y-37246D01*
X76588Y-37275D01*
X76560Y-37331D01*
X76560Y-37387D01*
X76841Y-37443D01*
X76279Y-37612D02*
X76279Y-37640D01*
X76307Y-37696D01*
X76335Y-37724D01*
X93996Y-38498D02*
X94052Y-38526D01*
X94164Y-38526D01*
X94221Y-38498D01*
X94249Y-38470D01*
X94277Y-38413D01*
X94277Y-38245D01*
X94249Y-38188D01*
X94221Y-38160D01*
X94164Y-38132D01*
X94052Y-38132D01*
X93996Y-38160D01*
X93658Y-38526D02*
X93714Y-38498D01*
X93742Y-38470D01*
X93771Y-38413D01*
X93771Y-38245D01*
X93742Y-38188D01*
X93714Y-38160D01*
X93658Y-38132D01*
X93574Y-38132D01*
X93517Y-38160D01*
X93489Y-38188D01*
X93461Y-38245D01*
X93461Y-38413D01*
X93489Y-38470D01*
X93517Y-38498D01*
X93574Y-38526D01*
X93658Y-38526D01*
X93208Y-38132D02*
X93208Y-38526D01*
X93208Y-38188D02*
X93180Y-38160D01*
X93124Y-38132D01*
X93039Y-38132D01*
X92983Y-38160D01*
X92955Y-38217D01*
X92955Y-38526D01*
X92674Y-38132D02*
X92674Y-38526D01*
X92674Y-38188D02*
X92646Y-38160D01*
X92589Y-38132D01*
X92505Y-38132D01*
X92449Y-38160D01*
X92421Y-38217D01*
X92421Y-38526D01*
X91915Y-38498D02*
X91971Y-38526D01*
X92083Y-38526D01*
X92140Y-38498D01*
X92168Y-38442D01*
X92168Y-38217D01*
X92140Y-38160D01*
X92083Y-38132D01*
X91971Y-38132D01*
X91915Y-38160D01*
X91886Y-38217D01*
X91886Y-38273D01*
X92168Y-38329D01*
X91380Y-38498D02*
X91437Y-38526D01*
X91549Y-38526D01*
X91605Y-38498D01*
X91633Y-38470D01*
X91661Y-38413D01*
X91661Y-38245D01*
X91633Y-38188D01*
X91605Y-38160D01*
X91549Y-38132D01*
X91437Y-38132D01*
X91380Y-38160D01*
X91212Y-38132D02*
X90987Y-38132D01*
X91127Y-37935D02*
X91127Y-38442D01*
X91099Y-38498D01*
X91043Y-38526D01*
X90987Y-38526D01*
X90340Y-38132D02*
X90340Y-38638D01*
X90368Y-38695D01*
X90424Y-38723D01*
X90452Y-38723D01*
X90340Y-37935D02*
X90368Y-37964D01*
X90340Y-37992D01*
X90312Y-37964D01*
X90340Y-37935D01*
X90340Y-37992D01*
X89805Y-38132D02*
X89805Y-38526D01*
X90059Y-38132D02*
X90059Y-38442D01*
X90030Y-38498D01*
X89974Y-38526D01*
X89890Y-38526D01*
X89834Y-38498D01*
X89805Y-38470D01*
X89524Y-38526D02*
X89524Y-38132D01*
X89524Y-38188D02*
X89496Y-38160D01*
X89440Y-38132D01*
X89356Y-38132D01*
X89299Y-38160D01*
X89271Y-38217D01*
X89271Y-38526D01*
X89271Y-38217D02*
X89243Y-38160D01*
X89187Y-38132D01*
X89102Y-38132D01*
X89046Y-38160D01*
X89018Y-38217D01*
X89018Y-38526D01*
X88737Y-38132D02*
X88737Y-38723D01*
X88737Y-38160D02*
X88681Y-38132D01*
X88568Y-38132D01*
X88512Y-38160D01*
X88484Y-38188D01*
X88456Y-38245D01*
X88456Y-38413D01*
X88484Y-38470D01*
X88512Y-38498D01*
X88568Y-38526D01*
X88681Y-38526D01*
X88737Y-38498D01*
X87978Y-38498D02*
X88034Y-38526D01*
X88146Y-38526D01*
X88203Y-38498D01*
X88231Y-38442D01*
X88231Y-38217D01*
X88203Y-38160D01*
X88146Y-38132D01*
X88034Y-38132D01*
X87978Y-38160D01*
X87949Y-38217D01*
X87949Y-38273D01*
X88231Y-38329D01*
X87696Y-38526D02*
X87696Y-38132D01*
X87696Y-38245D02*
X87668Y-38188D01*
X87640Y-38160D01*
X87584Y-38132D01*
X87528Y-38132D01*
X86881Y-38132D02*
X86881Y-38723D01*
X86881Y-38160D02*
X86825Y-38132D01*
X86712Y-38132D01*
X86656Y-38160D01*
X86628Y-38188D01*
X86600Y-38245D01*
X86600Y-38413D01*
X86628Y-38470D01*
X86656Y-38498D01*
X86712Y-38526D01*
X86825Y-38526D01*
X86881Y-38498D01*
X86347Y-38526D02*
X86347Y-38132D01*
X86347Y-37935D02*
X86375Y-37964D01*
X86347Y-37992D01*
X86318Y-37964D01*
X86347Y-37935D01*
X86347Y-37992D01*
X86065Y-38132D02*
X86065Y-38526D01*
X86065Y-38188D02*
X86037Y-38160D01*
X85981Y-38132D01*
X85897Y-38132D01*
X85840Y-38160D01*
X85812Y-38217D01*
X85812Y-38526D01*
X85559Y-38498D02*
X85503Y-38526D01*
X85390Y-38526D01*
X85334Y-38498D01*
X85306Y-38442D01*
X85306Y-38413D01*
X85334Y-38357D01*
X85390Y-38329D01*
X85475Y-38329D01*
X85531Y-38301D01*
X85559Y-38245D01*
X85559Y-38217D01*
X85531Y-38160D01*
X85475Y-38132D01*
X85390Y-38132D01*
X85334Y-38160D01*
X84350Y-38498D02*
X84406Y-38526D01*
X84519Y-38526D01*
X84575Y-38498D01*
X84603Y-38470D01*
X84631Y-38413D01*
X84631Y-38245D01*
X84603Y-38188D01*
X84575Y-38160D01*
X84519Y-38132D01*
X84406Y-38132D01*
X84350Y-38160D01*
X84012Y-38526D02*
X84069Y-38498D01*
X84097Y-38442D01*
X84097Y-37935D01*
X83703Y-38526D02*
X83759Y-38498D01*
X83787Y-38470D01*
X83816Y-38413D01*
X83816Y-38245D01*
X83787Y-38188D01*
X83759Y-38160D01*
X83703Y-38132D01*
X83619Y-38132D01*
X83562Y-38160D01*
X83534Y-38188D01*
X83506Y-38245D01*
X83506Y-38413D01*
X83534Y-38470D01*
X83562Y-38498D01*
X83619Y-38526D01*
X83703Y-38526D01*
X83281Y-38498D02*
X83225Y-38526D01*
X83113Y-38526D01*
X83056Y-38498D01*
X83028Y-38442D01*
X83028Y-38413D01*
X83056Y-38357D01*
X83113Y-38329D01*
X83197Y-38329D01*
X83253Y-38301D01*
X83281Y-38245D01*
X83281Y-38217D01*
X83253Y-38160D01*
X83197Y-38132D01*
X83113Y-38132D01*
X83056Y-38160D01*
X82550Y-38498D02*
X82606Y-38526D01*
X82719Y-38526D01*
X82775Y-38498D01*
X82803Y-38442D01*
X82803Y-38217D01*
X82775Y-38160D01*
X82719Y-38132D01*
X82606Y-38132D01*
X82550Y-38160D01*
X82522Y-38217D01*
X82522Y-38273D01*
X82803Y-38329D01*
X82353Y-38132D02*
X82128Y-38132D01*
X82269Y-37935D02*
X82269Y-38442D01*
X82241Y-38498D01*
X82185Y-38526D01*
X82128Y-38526D01*
X81566Y-38132D02*
X81341Y-38132D01*
X81482Y-37935D02*
X81482Y-38442D01*
X81453Y-38498D01*
X81397Y-38526D01*
X81341Y-38526D01*
X81060Y-38526D02*
X81116Y-38498D01*
X81144Y-38470D01*
X81172Y-38413D01*
X81172Y-38245D01*
X81144Y-38188D01*
X81116Y-38160D01*
X81060Y-38132D01*
X80975Y-38132D01*
X80919Y-38160D01*
X80891Y-38188D01*
X80863Y-38245D01*
X80863Y-38413D01*
X80891Y-38470D01*
X80919Y-38498D01*
X80975Y-38526D01*
X81060Y-38526D01*
X80188Y-37935D02*
X80188Y-38048D01*
X79963Y-37935D02*
X79963Y-38048D01*
X79513Y-38217D02*
X79429Y-38245D01*
X79401Y-38273D01*
X79372Y-38329D01*
X79372Y-38413D01*
X79401Y-38470D01*
X79429Y-38498D01*
X79485Y-38526D01*
X79710Y-38526D01*
X79710Y-37935D01*
X79513Y-37935D01*
X79457Y-37964D01*
X79429Y-37992D01*
X79401Y-38048D01*
X79401Y-38104D01*
X79429Y-38160D01*
X79457Y-38188D01*
X79513Y-38217D01*
X79710Y-38217D01*
X78838Y-38526D02*
X79119Y-38526D01*
X79119Y-37935D01*
X78669Y-37935D02*
X78669Y-38048D01*
X78444Y-37935D02*
X78444Y-38048D01*
X77826Y-38132D02*
X77601Y-38132D01*
X77741Y-38526D02*
X77741Y-38020D01*
X77713Y-37964D01*
X77657Y-37935D01*
X77601Y-37935D01*
X77320Y-38526D02*
X77376Y-38498D01*
X77404Y-38470D01*
X77432Y-38413D01*
X77432Y-38245D01*
X77404Y-38188D01*
X77376Y-38160D01*
X77320Y-38132D01*
X77235Y-38132D01*
X77179Y-38160D01*
X77151Y-38188D01*
X77123Y-38245D01*
X77123Y-38413D01*
X77151Y-38470D01*
X77179Y-38498D01*
X77235Y-38526D01*
X77320Y-38526D01*
X76870Y-38526D02*
X76870Y-38132D01*
X76870Y-38245D02*
X76841Y-38188D01*
X76813Y-38160D01*
X76757Y-38132D01*
X76701Y-38132D01*
X75801Y-38526D02*
X75801Y-38217D01*
X75829Y-38160D01*
X75885Y-38132D01*
X75998Y-38132D01*
X76054Y-38160D01*
X75801Y-38498D02*
X75857Y-38526D01*
X75998Y-38526D01*
X76054Y-38498D01*
X76082Y-38442D01*
X76082Y-38385D01*
X76054Y-38329D01*
X75998Y-38301D01*
X75857Y-38301D01*
X75801Y-38273D01*
X75435Y-38526D02*
X75492Y-38498D01*
X75520Y-38442D01*
X75520Y-37935D01*
X75126Y-38526D02*
X75182Y-38498D01*
X75210Y-38442D01*
X75210Y-37935D01*
X74451Y-38132D02*
X74451Y-38723D01*
X74451Y-38160D02*
X74395Y-38132D01*
X74282Y-38132D01*
X74226Y-38160D01*
X74198Y-38188D01*
X74170Y-38245D01*
X74170Y-38413D01*
X74198Y-38470D01*
X74226Y-38498D01*
X74282Y-38526D01*
X74395Y-38526D01*
X74451Y-38498D01*
X73917Y-38526D02*
X73917Y-38132D01*
X73917Y-37935D02*
X73945Y-37964D01*
X73917Y-37992D01*
X73889Y-37964D01*
X73917Y-37935D01*
X73917Y-37992D01*
X73636Y-38132D02*
X73636Y-38526D01*
X73636Y-38188D02*
X73607Y-38160D01*
X73551Y-38132D01*
X73467Y-38132D01*
X73411Y-38160D01*
X73383Y-38217D01*
X73383Y-38526D01*
X73129Y-38498D02*
X73073Y-38526D01*
X72961Y-38526D01*
X72904Y-38498D01*
X72876Y-38442D01*
X72876Y-38413D01*
X72904Y-38357D01*
X72961Y-38329D01*
X73045Y-38329D01*
X73101Y-38301D01*
X73129Y-38245D01*
X73129Y-38217D01*
X73101Y-38160D01*
X73045Y-38132D01*
X72961Y-38132D01*
X72904Y-38160D01*
X72623Y-38470D02*
X72595Y-38498D01*
X72623Y-38526D01*
X72651Y-38498D01*
X72623Y-38470D01*
X72623Y-38526D01*
X93967Y-39412D02*
X94249Y-39412D01*
X94249Y-38821D01*
X93546Y-39384D02*
X93602Y-39412D01*
X93714Y-39412D01*
X93771Y-39384D01*
X93799Y-39327D01*
X93799Y-39102D01*
X93771Y-39046D01*
X93714Y-39018D01*
X93602Y-39018D01*
X93546Y-39046D01*
X93517Y-39102D01*
X93517Y-39159D01*
X93799Y-39215D01*
X93011Y-39412D02*
X93011Y-39102D01*
X93039Y-39046D01*
X93096Y-39018D01*
X93208Y-39018D01*
X93264Y-39046D01*
X93011Y-39384D02*
X93068Y-39412D01*
X93208Y-39412D01*
X93264Y-39384D01*
X93293Y-39327D01*
X93293Y-39271D01*
X93264Y-39215D01*
X93208Y-39187D01*
X93068Y-39187D01*
X93011Y-39159D01*
X92786Y-39018D02*
X92646Y-39412D01*
X92505Y-39018D01*
X92055Y-39384D02*
X92111Y-39412D01*
X92224Y-39412D01*
X92280Y-39384D01*
X92308Y-39327D01*
X92308Y-39102D01*
X92280Y-39046D01*
X92224Y-39018D01*
X92111Y-39018D01*
X92055Y-39046D01*
X92027Y-39102D01*
X92027Y-39159D01*
X92308Y-39215D01*
X91324Y-39412D02*
X91324Y-39018D01*
X91324Y-38821D02*
X91352Y-38849D01*
X91324Y-38877D01*
X91296Y-38849D01*
X91324Y-38821D01*
X91324Y-38877D01*
X91043Y-39018D02*
X91043Y-39412D01*
X91043Y-39074D02*
X91015Y-39046D01*
X90958Y-39018D01*
X90874Y-39018D01*
X90818Y-39046D01*
X90790Y-39102D01*
X90790Y-39412D01*
X90059Y-39412D02*
X90059Y-38821D01*
X89721Y-39412D01*
X89721Y-38821D01*
X89102Y-39412D02*
X89299Y-39131D01*
X89440Y-39412D02*
X89440Y-38821D01*
X89215Y-38821D01*
X89159Y-38849D01*
X89131Y-38877D01*
X89102Y-38934D01*
X89102Y-39018D01*
X89131Y-39074D01*
X89159Y-39102D01*
X89215Y-39131D01*
X89440Y-39131D01*
X88849Y-39412D02*
X88849Y-38821D01*
X88652Y-39243D01*
X88456Y-38821D01*
X88456Y-39412D01*
X87809Y-39018D02*
X87584Y-39018D01*
X87724Y-39412D02*
X87724Y-38906D01*
X87696Y-38849D01*
X87640Y-38821D01*
X87584Y-38821D01*
X87303Y-39412D02*
X87359Y-39384D01*
X87387Y-39356D01*
X87415Y-39299D01*
X87415Y-39131D01*
X87387Y-39074D01*
X87359Y-39046D01*
X87303Y-39018D01*
X87218Y-39018D01*
X87162Y-39046D01*
X87134Y-39074D01*
X87106Y-39131D01*
X87106Y-39299D01*
X87134Y-39356D01*
X87162Y-39384D01*
X87218Y-39412D01*
X87303Y-39412D01*
X86853Y-39412D02*
X86853Y-39018D01*
X86853Y-39131D02*
X86825Y-39074D01*
X86796Y-39046D01*
X86740Y-39018D01*
X86684Y-39018D01*
X86037Y-39018D02*
X86037Y-39609D01*
X86037Y-39046D02*
X85981Y-39018D01*
X85868Y-39018D01*
X85812Y-39046D01*
X85784Y-39074D01*
X85756Y-39131D01*
X85756Y-39299D01*
X85784Y-39356D01*
X85812Y-39384D01*
X85868Y-39412D01*
X85981Y-39412D01*
X86037Y-39384D01*
X85503Y-39412D02*
X85503Y-39018D01*
X85503Y-39131D02*
X85475Y-39074D01*
X85447Y-39046D01*
X85390Y-39018D01*
X85334Y-39018D01*
X85053Y-39412D02*
X85109Y-39384D01*
X85137Y-39356D01*
X85165Y-39299D01*
X85165Y-39131D01*
X85137Y-39074D01*
X85109Y-39046D01*
X85053Y-39018D01*
X84969Y-39018D01*
X84912Y-39046D01*
X84884Y-39074D01*
X84856Y-39131D01*
X84856Y-39299D01*
X84884Y-39356D01*
X84912Y-39384D01*
X84969Y-39412D01*
X85053Y-39412D01*
X84350Y-39018D02*
X84350Y-39496D01*
X84378Y-39552D01*
X84406Y-39580D01*
X84462Y-39609D01*
X84547Y-39609D01*
X84603Y-39580D01*
X84350Y-39384D02*
X84406Y-39412D01*
X84519Y-39412D01*
X84575Y-39384D01*
X84603Y-39356D01*
X84631Y-39299D01*
X84631Y-39131D01*
X84603Y-39074D01*
X84575Y-39046D01*
X84519Y-39018D01*
X84406Y-39018D01*
X84350Y-39046D01*
X84069Y-39412D02*
X84069Y-39018D01*
X84069Y-39131D02*
X84041Y-39074D01*
X84012Y-39046D01*
X83956Y-39018D01*
X83900Y-39018D01*
X83450Y-39412D02*
X83450Y-39102D01*
X83478Y-39046D01*
X83534Y-39018D01*
X83647Y-39018D01*
X83703Y-39046D01*
X83450Y-39384D02*
X83506Y-39412D01*
X83647Y-39412D01*
X83703Y-39384D01*
X83731Y-39327D01*
X83731Y-39271D01*
X83703Y-39215D01*
X83647Y-39187D01*
X83506Y-39187D01*
X83450Y-39159D01*
X83169Y-39412D02*
X83169Y-39018D01*
X83169Y-39074D02*
X83141Y-39046D01*
X83084Y-39018D01*
X83000Y-39018D01*
X82944Y-39046D01*
X82916Y-39102D01*
X82916Y-39412D01*
X82916Y-39102D02*
X82888Y-39046D01*
X82831Y-39018D01*
X82747Y-39018D01*
X82691Y-39046D01*
X82663Y-39102D01*
X82663Y-39412D01*
X82381Y-39412D02*
X82381Y-39018D01*
X82381Y-39074D02*
X82353Y-39046D01*
X82297Y-39018D01*
X82213Y-39018D01*
X82156Y-39046D01*
X82128Y-39102D01*
X82128Y-39412D01*
X82128Y-39102D02*
X82100Y-39046D01*
X82044Y-39018D01*
X81960Y-39018D01*
X81903Y-39046D01*
X81875Y-39102D01*
X81875Y-39412D01*
X81594Y-39412D02*
X81594Y-39018D01*
X81594Y-38821D02*
X81622Y-38849D01*
X81594Y-38877D01*
X81566Y-38849D01*
X81594Y-38821D01*
X81594Y-38877D01*
X81313Y-39018D02*
X81313Y-39412D01*
X81313Y-39074D02*
X81285Y-39046D01*
X81228Y-39018D01*
X81144Y-39018D01*
X81088Y-39046D01*
X81060Y-39102D01*
X81060Y-39412D01*
X80525Y-39018D02*
X80525Y-39496D01*
X80553Y-39552D01*
X80582Y-39580D01*
X80638Y-39609D01*
X80722Y-39609D01*
X80778Y-39580D01*
X80525Y-39384D02*
X80582Y-39412D01*
X80694Y-39412D01*
X80750Y-39384D01*
X80778Y-39356D01*
X80807Y-39299D01*
X80807Y-39131D01*
X80778Y-39074D01*
X80750Y-39046D01*
X80694Y-39018D01*
X80582Y-39018D01*
X80525Y-39046D01*
X79850Y-39018D02*
X79710Y-39412D01*
X79569Y-39018D01*
X79344Y-39412D02*
X79344Y-39018D01*
X79344Y-38821D02*
X79372Y-38849D01*
X79344Y-38877D01*
X79316Y-38849D01*
X79344Y-38821D01*
X79344Y-38877D01*
X78810Y-39412D02*
X78810Y-39102D01*
X78838Y-39046D01*
X78894Y-39018D01*
X79007Y-39018D01*
X79063Y-39046D01*
X78810Y-39384D02*
X78866Y-39412D01*
X79007Y-39412D01*
X79063Y-39384D01*
X79091Y-39327D01*
X79091Y-39271D01*
X79063Y-39215D01*
X79007Y-39187D01*
X78866Y-39187D01*
X78810Y-39159D01*
X78079Y-39412D02*
X78079Y-38821D01*
X77460Y-39356D02*
X77488Y-39384D01*
X77573Y-39412D01*
X77629Y-39412D01*
X77713Y-39384D01*
X77769Y-39327D01*
X77798Y-39271D01*
X77826Y-39159D01*
X77826Y-39074D01*
X77798Y-38962D01*
X77769Y-38906D01*
X77713Y-38849D01*
X77629Y-38821D01*
X77573Y-38821D01*
X77488Y-38849D01*
X77460Y-38877D01*
X77235Y-39384D02*
X77151Y-39412D01*
X77010Y-39412D01*
X76954Y-39384D01*
X76926Y-39356D01*
X76898Y-39299D01*
X76898Y-39243D01*
X76926Y-39187D01*
X76954Y-39159D01*
X77010Y-39131D01*
X77123Y-39102D01*
X77179Y-39074D01*
X77207Y-39046D01*
X77235Y-38990D01*
X77235Y-38934D01*
X77207Y-38877D01*
X77179Y-38849D01*
X77123Y-38821D01*
X76982Y-38821D01*
X76898Y-38849D01*
X76645Y-39412D02*
X76645Y-38821D01*
X76420Y-38821D01*
X76363Y-38849D01*
X76335Y-38877D01*
X76307Y-38934D01*
X76307Y-39018D01*
X76335Y-39074D01*
X76363Y-39102D01*
X76420Y-39131D01*
X76645Y-39131D01*
X76054Y-39356D02*
X76026Y-39384D01*
X76054Y-39412D01*
X76082Y-39384D01*
X76054Y-39356D01*
X76054Y-39412D01*
X75323Y-39412D02*
X75323Y-38821D01*
X74985Y-39412D01*
X74985Y-38821D01*
X74620Y-39412D02*
X74676Y-39384D01*
X74704Y-39356D01*
X74732Y-39299D01*
X74732Y-39131D01*
X74704Y-39074D01*
X74676Y-39046D01*
X74620Y-39018D01*
X74535Y-39018D01*
X74479Y-39046D01*
X74451Y-39074D01*
X74423Y-39131D01*
X74423Y-39299D01*
X74451Y-39356D01*
X74479Y-39384D01*
X74535Y-39412D01*
X74620Y-39412D01*
X74254Y-39018D02*
X74029Y-39018D01*
X74170Y-38821D02*
X74170Y-39327D01*
X74142Y-39384D01*
X74086Y-39412D01*
X74029Y-39412D01*
X73607Y-39384D02*
X73664Y-39412D01*
X73776Y-39412D01*
X73832Y-39384D01*
X73861Y-39327D01*
X73861Y-39102D01*
X73832Y-39046D01*
X73776Y-39018D01*
X73664Y-39018D01*
X73607Y-39046D01*
X73579Y-39102D01*
X73579Y-39159D01*
X73861Y-39215D01*
X94333Y-39904D02*
X94108Y-39904D01*
X94249Y-39707D02*
X94249Y-40213D01*
X94221Y-40269D01*
X94164Y-40298D01*
X94108Y-40298D01*
X93911Y-40298D02*
X93911Y-39707D01*
X93658Y-40298D02*
X93658Y-39988D01*
X93686Y-39932D01*
X93742Y-39904D01*
X93827Y-39904D01*
X93883Y-39932D01*
X93911Y-39960D01*
X93124Y-40298D02*
X93124Y-39988D01*
X93152Y-39932D01*
X93208Y-39904D01*
X93321Y-39904D01*
X93377Y-39932D01*
X93124Y-40269D02*
X93180Y-40298D01*
X93321Y-40298D01*
X93377Y-40269D01*
X93405Y-40213D01*
X93405Y-40157D01*
X93377Y-40101D01*
X93321Y-40073D01*
X93180Y-40073D01*
X93124Y-40044D01*
X92927Y-39904D02*
X92702Y-39904D01*
X92843Y-39707D02*
X92843Y-40213D01*
X92814Y-40269D01*
X92758Y-40298D01*
X92702Y-40298D01*
X92055Y-39904D02*
X92055Y-40494D01*
X92055Y-39932D02*
X91999Y-39904D01*
X91886Y-39904D01*
X91830Y-39932D01*
X91802Y-39960D01*
X91774Y-40016D01*
X91774Y-40185D01*
X91802Y-40241D01*
X91830Y-40269D01*
X91886Y-40298D01*
X91999Y-40298D01*
X92055Y-40269D01*
X91521Y-40298D02*
X91521Y-39904D01*
X91521Y-40016D02*
X91493Y-39960D01*
X91465Y-39932D01*
X91408Y-39904D01*
X91352Y-39904D01*
X91071Y-40298D02*
X91127Y-40269D01*
X91155Y-40241D01*
X91183Y-40185D01*
X91183Y-40016D01*
X91155Y-39960D01*
X91127Y-39932D01*
X91071Y-39904D01*
X90987Y-39904D01*
X90930Y-39932D01*
X90902Y-39960D01*
X90874Y-40016D01*
X90874Y-40185D01*
X90902Y-40241D01*
X90930Y-40269D01*
X90987Y-40298D01*
X91071Y-40298D01*
X90368Y-39904D02*
X90368Y-40382D01*
X90396Y-40438D01*
X90424Y-40466D01*
X90480Y-40494D01*
X90565Y-40494D01*
X90621Y-40466D01*
X90368Y-40269D02*
X90424Y-40298D01*
X90537Y-40298D01*
X90593Y-40269D01*
X90621Y-40241D01*
X90649Y-40185D01*
X90649Y-40016D01*
X90621Y-39960D01*
X90593Y-39932D01*
X90537Y-39904D01*
X90424Y-39904D01*
X90368Y-39932D01*
X90087Y-40298D02*
X90087Y-39904D01*
X90087Y-40016D02*
X90059Y-39960D01*
X90030Y-39932D01*
X89974Y-39904D01*
X89918Y-39904D01*
X89468Y-40298D02*
X89468Y-39988D01*
X89496Y-39932D01*
X89552Y-39904D01*
X89665Y-39904D01*
X89721Y-39932D01*
X89468Y-40269D02*
X89524Y-40298D01*
X89665Y-40298D01*
X89721Y-40269D01*
X89749Y-40213D01*
X89749Y-40157D01*
X89721Y-40101D01*
X89665Y-40073D01*
X89524Y-40073D01*
X89468Y-40044D01*
X89187Y-40298D02*
X89187Y-39904D01*
X89187Y-39960D02*
X89159Y-39932D01*
X89102Y-39904D01*
X89018Y-39904D01*
X88962Y-39932D01*
X88934Y-39988D01*
X88934Y-40298D01*
X88934Y-39988D02*
X88906Y-39932D01*
X88849Y-39904D01*
X88765Y-39904D01*
X88709Y-39932D01*
X88681Y-39988D01*
X88681Y-40298D01*
X88399Y-40298D02*
X88399Y-39904D01*
X88399Y-39960D02*
X88371Y-39932D01*
X88315Y-39904D01*
X88231Y-39904D01*
X88174Y-39932D01*
X88146Y-39988D01*
X88146Y-40298D01*
X88146Y-39988D02*
X88118Y-39932D01*
X88062Y-39904D01*
X87978Y-39904D01*
X87921Y-39932D01*
X87893Y-39988D01*
X87893Y-40298D01*
X87612Y-40298D02*
X87612Y-39904D01*
X87612Y-39707D02*
X87640Y-39735D01*
X87612Y-39763D01*
X87584Y-39735D01*
X87612Y-39707D01*
X87612Y-39763D01*
X87331Y-39904D02*
X87331Y-40298D01*
X87331Y-39960D02*
X87303Y-39932D01*
X87246Y-39904D01*
X87162Y-39904D01*
X87106Y-39932D01*
X87078Y-39988D01*
X87078Y-40298D01*
X86543Y-39904D02*
X86543Y-40382D01*
X86571Y-40438D01*
X86600Y-40466D01*
X86656Y-40494D01*
X86740Y-40494D01*
X86796Y-40466D01*
X86543Y-40269D02*
X86600Y-40298D01*
X86712Y-40298D01*
X86768Y-40269D01*
X86796Y-40241D01*
X86825Y-40185D01*
X86825Y-40016D01*
X86796Y-39960D01*
X86768Y-39932D01*
X86712Y-39904D01*
X86600Y-39904D01*
X86543Y-39932D01*
X85812Y-40298D02*
X85812Y-39904D01*
X85812Y-39707D02*
X85840Y-39735D01*
X85812Y-39763D01*
X85784Y-39735D01*
X85812Y-39707D01*
X85812Y-39763D01*
X85531Y-39904D02*
X85531Y-40298D01*
X85531Y-39960D02*
X85503Y-39932D01*
X85447Y-39904D01*
X85362Y-39904D01*
X85306Y-39932D01*
X85278Y-39988D01*
X85278Y-40298D01*
X84547Y-40298D02*
X84547Y-39707D01*
X83928Y-40241D02*
X83956Y-40269D01*
X84041Y-40298D01*
X84097Y-40298D01*
X84181Y-40269D01*
X84237Y-40213D01*
X84266Y-40157D01*
X84294Y-40044D01*
X84294Y-39960D01*
X84266Y-39848D01*
X84237Y-39791D01*
X84181Y-39735D01*
X84097Y-39707D01*
X84041Y-39707D01*
X83956Y-39735D01*
X83928Y-39763D01*
X83703Y-40269D02*
X83619Y-40298D01*
X83478Y-40298D01*
X83422Y-40269D01*
X83394Y-40241D01*
X83366Y-40185D01*
X83366Y-40129D01*
X83394Y-40073D01*
X83422Y-40044D01*
X83478Y-40016D01*
X83591Y-39988D01*
X83647Y-39960D01*
X83675Y-39932D01*
X83703Y-39876D01*
X83703Y-39820D01*
X83675Y-39763D01*
X83647Y-39735D01*
X83591Y-39707D01*
X83450Y-39707D01*
X83366Y-39735D01*
X83113Y-40298D02*
X83113Y-39707D01*
X82888Y-39707D01*
X82831Y-39735D01*
X82803Y-39763D01*
X82775Y-39820D01*
X82775Y-39904D01*
X82803Y-39960D01*
X82831Y-39988D01*
X82888Y-40016D01*
X83113Y-40016D01*
X82128Y-39904D02*
X82016Y-40298D01*
X81903Y-40016D01*
X81791Y-40298D01*
X81678Y-39904D01*
X81453Y-40298D02*
X81453Y-39904D01*
X81453Y-39707D02*
X81482Y-39735D01*
X81453Y-39763D01*
X81425Y-39735D01*
X81453Y-39707D01*
X81453Y-39763D01*
X81088Y-40298D02*
X81144Y-40269D01*
X81172Y-40213D01*
X81172Y-39707D01*
X80778Y-40298D02*
X80835Y-40269D01*
X80863Y-40213D01*
X80863Y-39707D01*
X80019Y-40298D02*
X80075Y-40269D01*
X80104Y-40241D01*
X80132Y-40185D01*
X80132Y-40016D01*
X80104Y-39960D01*
X80075Y-39932D01*
X80019Y-39904D01*
X79935Y-39904D01*
X79879Y-39932D01*
X79850Y-39960D01*
X79822Y-40016D01*
X79822Y-40185D01*
X79850Y-40241D01*
X79879Y-40269D01*
X79935Y-40298D01*
X80019Y-40298D01*
X79625Y-39904D02*
X79485Y-40298D01*
X79344Y-39904D01*
X78894Y-40269D02*
X78951Y-40298D01*
X79063Y-40298D01*
X79119Y-40269D01*
X79147Y-40213D01*
X79147Y-39988D01*
X79119Y-39932D01*
X79063Y-39904D01*
X78951Y-39904D01*
X78894Y-39932D01*
X78866Y-39988D01*
X78866Y-40044D01*
X79147Y-40101D01*
X78613Y-40298D02*
X78613Y-39904D01*
X78613Y-40016D02*
X78585Y-39960D01*
X78557Y-39932D01*
X78501Y-39904D01*
X78444Y-39904D01*
X78304Y-39904D02*
X78191Y-40298D01*
X78079Y-40016D01*
X77966Y-40298D01*
X77854Y-39904D01*
X77629Y-40298D02*
X77629Y-39904D01*
X77629Y-40016D02*
X77601Y-39960D01*
X77573Y-39932D01*
X77516Y-39904D01*
X77460Y-39904D01*
X77263Y-40298D02*
X77263Y-39904D01*
X77263Y-39707D02*
X77291Y-39735D01*
X77263Y-39763D01*
X77235Y-39735D01*
X77263Y-39707D01*
X77263Y-39763D01*
X77066Y-39904D02*
X76841Y-39904D01*
X76982Y-39707D02*
X76982Y-40213D01*
X76954Y-40269D01*
X76898Y-40298D01*
X76841Y-40298D01*
X76420Y-40269D02*
X76476Y-40298D01*
X76588Y-40298D01*
X76645Y-40269D01*
X76673Y-40213D01*
X76673Y-39988D01*
X76645Y-39932D01*
X76588Y-39904D01*
X76476Y-39904D01*
X76420Y-39932D01*
X76392Y-39988D01*
X76392Y-40044D01*
X76673Y-40101D01*
X75435Y-40298D02*
X75435Y-39988D01*
X75464Y-39932D01*
X75520Y-39904D01*
X75632Y-39904D01*
X75688Y-39932D01*
X75435Y-40269D02*
X75492Y-40298D01*
X75632Y-40298D01*
X75688Y-40269D01*
X75717Y-40213D01*
X75717Y-40157D01*
X75688Y-40101D01*
X75632Y-40073D01*
X75492Y-40073D01*
X75435Y-40044D01*
X75154Y-39904D02*
X75154Y-40298D01*
X75154Y-39960D02*
X75126Y-39932D01*
X75070Y-39904D01*
X74985Y-39904D01*
X74929Y-39932D01*
X74901Y-39988D01*
X74901Y-40298D01*
X74676Y-39904D02*
X74535Y-40298D01*
X74395Y-39904D02*
X74535Y-40298D01*
X74592Y-40438D01*
X74620Y-40466D01*
X74676Y-40494D01*
X94249Y-41183D02*
X94249Y-40593D01*
X94249Y-40818D02*
X94192Y-40790D01*
X94080Y-40790D01*
X94024Y-40818D01*
X93996Y-40846D01*
X93967Y-40902D01*
X93967Y-41071D01*
X93996Y-41127D01*
X94024Y-41155D01*
X94080Y-41183D01*
X94192Y-41183D01*
X94249Y-41155D01*
X93630Y-41183D02*
X93686Y-41155D01*
X93714Y-41127D01*
X93742Y-41071D01*
X93742Y-40902D01*
X93714Y-40846D01*
X93686Y-40818D01*
X93630Y-40790D01*
X93546Y-40790D01*
X93489Y-40818D01*
X93461Y-40846D01*
X93433Y-40902D01*
X93433Y-41071D01*
X93461Y-41127D01*
X93489Y-41155D01*
X93546Y-41183D01*
X93630Y-41183D01*
X93096Y-41183D02*
X93152Y-41155D01*
X93180Y-41127D01*
X93208Y-41071D01*
X93208Y-40902D01*
X93180Y-40846D01*
X93152Y-40818D01*
X93096Y-40790D01*
X93011Y-40790D01*
X92955Y-40818D01*
X92927Y-40846D01*
X92899Y-40902D01*
X92899Y-41071D01*
X92927Y-41127D01*
X92955Y-41155D01*
X93011Y-41183D01*
X93096Y-41183D01*
X92730Y-40790D02*
X92505Y-40790D01*
X92646Y-40593D02*
X92646Y-41099D01*
X92618Y-41155D01*
X92561Y-41183D01*
X92505Y-41183D01*
X92224Y-41183D02*
X92280Y-41155D01*
X92308Y-41099D01*
X92308Y-40593D01*
X91915Y-41183D02*
X91971Y-41155D01*
X91999Y-41127D01*
X92027Y-41071D01*
X92027Y-40902D01*
X91999Y-40846D01*
X91971Y-40818D01*
X91915Y-40790D01*
X91830Y-40790D01*
X91774Y-40818D01*
X91746Y-40846D01*
X91718Y-40902D01*
X91718Y-41071D01*
X91746Y-41127D01*
X91774Y-41155D01*
X91830Y-41183D01*
X91915Y-41183D01*
X91212Y-41183D02*
X91212Y-40874D01*
X91240Y-40818D01*
X91296Y-40790D01*
X91408Y-40790D01*
X91465Y-40818D01*
X91212Y-41155D02*
X91268Y-41183D01*
X91408Y-41183D01*
X91465Y-41155D01*
X91493Y-41099D01*
X91493Y-41043D01*
X91465Y-40987D01*
X91408Y-40958D01*
X91268Y-40958D01*
X91212Y-40930D01*
X90677Y-41183D02*
X90677Y-40593D01*
X90677Y-41155D02*
X90733Y-41183D01*
X90846Y-41183D01*
X90902Y-41155D01*
X90930Y-41127D01*
X90958Y-41071D01*
X90958Y-40902D01*
X90930Y-40846D01*
X90902Y-40818D01*
X90846Y-40790D01*
X90733Y-40790D01*
X90677Y-40818D01*
X90171Y-41155D02*
X90227Y-41183D01*
X90340Y-41183D01*
X90396Y-41155D01*
X90424Y-41099D01*
X90424Y-40874D01*
X90396Y-40818D01*
X90340Y-40790D01*
X90227Y-40790D01*
X90171Y-40818D01*
X90143Y-40874D01*
X90143Y-40930D01*
X90424Y-40987D01*
X89890Y-41183D02*
X89890Y-40790D01*
X89890Y-40902D02*
X89862Y-40846D01*
X89834Y-40818D01*
X89777Y-40790D01*
X89721Y-40790D01*
X89524Y-41127D02*
X89496Y-41155D01*
X89524Y-41183D01*
X89552Y-41155D01*
X89524Y-41127D01*
X89524Y-41183D01*
X73556Y-36173D02*
X73500Y-36192D01*
X73481Y-36211D01*
X73462Y-36248D01*
X73462Y-36304D01*
X73481Y-36342D01*
X73500Y-36361D01*
X73537Y-36379D01*
X73687Y-36379D01*
X73687Y-35986D01*
X73556Y-35986D01*
X73518Y-36004D01*
X73500Y-36023D01*
X73481Y-36061D01*
X73481Y-36098D01*
X73500Y-36136D01*
X73518Y-36154D01*
X73556Y-36173D01*
X73687Y-36173D01*
X73106Y-36379D02*
X73293Y-36379D01*
X73293Y-35986D01*
X72483Y-36379D02*
X72483Y-35986D01*
X72258Y-36379D01*
X72258Y-35986D01*
X71845Y-36379D02*
X71976Y-36192D01*
X72070Y-36379D02*
X72070Y-35986D01*
X71920Y-35986D01*
X71883Y-36004D01*
X71864Y-36023D01*
X71845Y-36061D01*
X71845Y-36117D01*
X71864Y-36154D01*
X71883Y-36173D01*
X71920Y-36192D01*
X72070Y-36192D01*
X71676Y-36379D02*
X71676Y-35986D01*
X71545Y-36267D01*
X71414Y-35986D01*
X71414Y-36379D01*
X68072Y-37556D02*
X67679Y-37556D01*
X68072Y-37781D01*
X67679Y-37781D01*
X68072Y-38193D02*
X67885Y-38062D01*
X68072Y-37968D02*
X67679Y-37968D01*
X67679Y-38118D01*
X67697Y-38156D01*
X67716Y-38174D01*
X67754Y-38193D01*
X67810Y-38193D01*
X67847Y-38174D01*
X67866Y-38156D01*
X67885Y-38118D01*
X67885Y-37968D01*
X68072Y-38362D02*
X67679Y-38362D01*
X67960Y-38493D01*
X67679Y-38624D01*
X68072Y-38624D01*
X67964Y-39632D02*
X67983Y-39688D01*
X68002Y-39707D01*
X68039Y-39726D01*
X68096Y-39726D01*
X68133Y-39707D01*
X68152Y-39688D01*
X68171Y-39651D01*
X68171Y-39501D01*
X67777Y-39501D01*
X67777Y-39632D01*
X67796Y-39670D01*
X67814Y-39688D01*
X67852Y-39707D01*
X67889Y-39707D01*
X67927Y-39688D01*
X67946Y-39670D01*
X67964Y-39632D01*
X67964Y-39501D01*
X68171Y-40082D02*
X68171Y-39895D01*
X67777Y-39895D01*
X71784Y-41685D02*
X71728Y-41704D01*
X71709Y-41722D01*
X71691Y-41760D01*
X71691Y-41816D01*
X71709Y-41854D01*
X71728Y-41872D01*
X71766Y-41891D01*
X71916Y-41891D01*
X71916Y-41497D01*
X71784Y-41497D01*
X71747Y-41516D01*
X71728Y-41535D01*
X71709Y-41572D01*
X71709Y-41610D01*
X71728Y-41647D01*
X71747Y-41666D01*
X71784Y-41685D01*
X71916Y-41685D01*
X71334Y-41891D02*
X71522Y-41891D01*
X71522Y-41497D01*
X73664Y-41891D02*
X73664Y-41497D01*
X73439Y-41891D01*
X73439Y-41497D01*
X73026Y-41891D02*
X73158Y-41704D01*
X73251Y-41891D02*
X73251Y-41497D01*
X73101Y-41497D01*
X73064Y-41516D01*
X73045Y-41535D01*
X73026Y-41572D01*
X73026Y-41629D01*
X73045Y-41666D01*
X73064Y-41685D01*
X73101Y-41704D01*
X73251Y-41704D01*
X72858Y-41891D02*
X72858Y-41497D01*
X72726Y-41779D01*
X72595Y-41497D01*
X72595Y-41891D01*
G54D12*
X87514Y-50379D02*
X86839Y-50379D01*
X87176Y-51560D02*
X87176Y-50379D01*
X86220Y-50379D02*
X85995Y-50379D01*
X85883Y-50435D01*
X85770Y-50548D01*
X85714Y-50773D01*
X85714Y-51167D01*
X85770Y-51392D01*
X85883Y-51504D01*
X85995Y-51560D01*
X86220Y-51560D01*
X86332Y-51504D01*
X86445Y-51392D01*
X86501Y-51167D01*
X86501Y-50773D01*
X86445Y-50548D01*
X86332Y-50435D01*
X86220Y-50379D01*
X84983Y-50379D02*
X84758Y-50379D01*
X84645Y-50435D01*
X84533Y-50548D01*
X84476Y-50773D01*
X84476Y-51167D01*
X84533Y-51392D01*
X84645Y-51504D01*
X84758Y-51560D01*
X84983Y-51560D01*
X85095Y-51504D01*
X85208Y-51392D01*
X85264Y-51167D01*
X85264Y-50773D01*
X85208Y-50548D01*
X85095Y-50435D01*
X84983Y-50379D01*
X84139Y-50379D02*
X83464Y-50379D01*
X83802Y-51560D02*
X83802Y-50379D01*
X83070Y-51560D02*
X83070Y-50379D01*
X83070Y-50942D02*
X82395Y-50942D01*
X82395Y-51560D02*
X82395Y-50379D01*
X81608Y-50998D02*
X81608Y-51560D01*
X82002Y-50379D02*
X81608Y-50998D01*
X81214Y-50379D01*
X80089Y-50379D02*
X79415Y-50379D01*
X79752Y-51560D02*
X79752Y-50379D01*
X79021Y-51560D02*
X79021Y-50379D01*
X79021Y-50942D02*
X78346Y-50942D01*
X78346Y-51560D02*
X78346Y-50379D01*
X77784Y-50942D02*
X77390Y-50942D01*
X77221Y-51560D02*
X77784Y-51560D01*
X77784Y-50379D01*
X77221Y-50379D01*
X75984Y-50379D02*
X75309Y-50379D01*
X75646Y-51560D02*
X75646Y-50379D01*
X74915Y-51560D02*
X74915Y-50379D01*
X74353Y-51560D02*
X74353Y-50379D01*
X73959Y-51223D01*
X73565Y-50379D01*
X73565Y-51560D01*
X73003Y-50942D02*
X72609Y-50942D01*
X72440Y-51560D02*
X73003Y-51560D01*
X73003Y-50379D01*
X72440Y-50379D01*
X71259Y-51560D02*
X71653Y-50998D01*
X71934Y-51560D02*
X71934Y-50379D01*
X71484Y-50379D01*
X71372Y-50435D01*
X71316Y-50492D01*
X71259Y-50604D01*
X71259Y-50773D01*
X71316Y-50885D01*
X71372Y-50942D01*
X71484Y-50998D01*
X71934Y-50998D01*
X81130Y-52151D02*
X80736Y-53332D01*
X80343Y-52151D01*
X80005Y-52263D02*
X79949Y-52207D01*
X79836Y-52151D01*
X79555Y-52151D01*
X79443Y-52207D01*
X79386Y-52263D01*
X79330Y-52376D01*
X79330Y-52488D01*
X79386Y-52657D01*
X80061Y-53332D01*
X79330Y-53332D01*
X78824Y-53219D02*
X78768Y-53276D01*
X78824Y-53332D01*
X78880Y-53276D01*
X78824Y-53219D01*
X78824Y-53332D01*
X78037Y-52151D02*
X77924Y-52151D01*
X77812Y-52207D01*
X77755Y-52263D01*
X77699Y-52376D01*
X77643Y-52601D01*
X77643Y-52882D01*
X77699Y-53107D01*
X77755Y-53219D01*
X77812Y-53276D01*
X77924Y-53332D01*
X78037Y-53332D01*
X78149Y-53276D01*
X78205Y-53219D01*
X78262Y-53107D01*
X78318Y-52882D01*
X78318Y-52601D01*
X78262Y-52376D01*
X78205Y-52263D01*
X78149Y-52207D01*
X78037Y-52151D01*
X88273Y-54991D02*
X88329Y-55047D01*
X88498Y-55104D01*
X88610Y-55104D01*
X88779Y-55047D01*
X88892Y-54935D01*
X88948Y-54822D01*
X89004Y-54597D01*
X89004Y-54429D01*
X88948Y-54204D01*
X88892Y-54091D01*
X88779Y-53979D01*
X88610Y-53922D01*
X88498Y-53922D01*
X88329Y-53979D01*
X88273Y-54035D01*
X87767Y-55104D02*
X87767Y-53922D01*
X87767Y-54485D02*
X87092Y-54485D01*
X87092Y-55104D02*
X87092Y-53922D01*
X85854Y-55104D02*
X86248Y-54541D01*
X86529Y-55104D02*
X86529Y-53922D01*
X86079Y-53922D01*
X85967Y-53979D01*
X85911Y-54035D01*
X85854Y-54147D01*
X85854Y-54316D01*
X85911Y-54429D01*
X85967Y-54485D01*
X86079Y-54541D01*
X86529Y-54541D01*
X85348Y-55104D02*
X85348Y-53922D01*
X84842Y-55047D02*
X84673Y-55104D01*
X84392Y-55104D01*
X84280Y-55047D01*
X84223Y-54991D01*
X84167Y-54879D01*
X84167Y-54766D01*
X84223Y-54654D01*
X84280Y-54597D01*
X84392Y-54541D01*
X84617Y-54485D01*
X84730Y-54429D01*
X84786Y-54372D01*
X84842Y-54260D01*
X84842Y-54147D01*
X84786Y-54035D01*
X84730Y-53979D01*
X84617Y-53922D01*
X84336Y-53922D01*
X84167Y-53979D01*
X83830Y-53922D02*
X83155Y-53922D01*
X83492Y-55104D02*
X83492Y-53922D01*
X82761Y-55104D02*
X82761Y-53922D01*
X82255Y-54766D02*
X81692Y-54766D01*
X82367Y-55104D02*
X81974Y-53922D01*
X81580Y-55104D01*
X81186Y-55104D02*
X81186Y-53922D01*
X80511Y-55104D01*
X80511Y-53922D01*
X79049Y-55104D02*
X79049Y-53922D01*
X78655Y-54766D01*
X78262Y-53922D01*
X78262Y-55104D01*
X77699Y-54991D02*
X77643Y-55047D01*
X77699Y-55104D01*
X77755Y-55047D01*
X77699Y-54991D01*
X77699Y-55104D01*
X75562Y-55104D02*
X75956Y-54541D01*
X76237Y-55104D02*
X76237Y-53922D01*
X75787Y-53922D01*
X75674Y-53979D01*
X75618Y-54035D01*
X75562Y-54147D01*
X75562Y-54316D01*
X75618Y-54429D01*
X75674Y-54485D01*
X75787Y-54541D01*
X76237Y-54541D01*
X75056Y-54485D02*
X74662Y-54485D01*
X74493Y-55104D02*
X75056Y-55104D01*
X75056Y-53922D01*
X74493Y-53922D01*
X74043Y-55047D02*
X73875Y-55104D01*
X73593Y-55104D01*
X73481Y-55047D01*
X73425Y-54991D01*
X73368Y-54879D01*
X73368Y-54766D01*
X73425Y-54654D01*
X73481Y-54597D01*
X73593Y-54541D01*
X73818Y-54485D01*
X73931Y-54429D01*
X73987Y-54372D01*
X74043Y-54260D01*
X74043Y-54147D01*
X73987Y-54035D01*
X73931Y-53979D01*
X73818Y-53922D01*
X73537Y-53922D01*
X73368Y-53979D01*
X73031Y-53922D02*
X72356Y-53922D01*
X72694Y-55104D02*
X72694Y-53922D01*
X71962Y-55104D02*
X71962Y-53922D01*
X71006Y-54485D02*
X71400Y-54485D01*
X71400Y-55104D02*
X71400Y-53922D01*
X70838Y-53922D01*
X70163Y-53922D02*
X69938Y-53922D01*
X69825Y-53979D01*
X69713Y-54091D01*
X69656Y-54316D01*
X69656Y-54710D01*
X69713Y-54935D01*
X69825Y-55047D01*
X69938Y-55104D01*
X70163Y-55104D01*
X70275Y-55047D01*
X70388Y-54935D01*
X70444Y-54710D01*
X70444Y-54316D01*
X70388Y-54091D01*
X70275Y-53979D01*
X70163Y-53922D01*
X82592Y-56088D02*
X82592Y-56875D01*
X82874Y-55638D02*
X83155Y-56482D01*
X82424Y-56482D01*
X81130Y-55638D02*
X82142Y-57156D01*
X80793Y-55807D02*
X80736Y-55750D01*
X80624Y-55694D01*
X80343Y-55694D01*
X80230Y-55750D01*
X80174Y-55807D01*
X80118Y-55919D01*
X80118Y-56032D01*
X80174Y-56200D01*
X80849Y-56875D01*
X80118Y-56875D01*
X79724Y-55694D02*
X78937Y-55694D01*
X79443Y-56875D01*
X77643Y-55638D02*
X78655Y-57156D01*
X76631Y-56875D02*
X77305Y-56875D01*
X76968Y-56875D02*
X76968Y-55694D01*
X77080Y-55863D01*
X77193Y-55975D01*
X77305Y-56032D01*
X75562Y-55694D02*
X76124Y-55694D01*
X76181Y-56257D01*
X76124Y-56200D01*
X76012Y-56144D01*
X75731Y-56144D01*
X75618Y-56200D01*
X75562Y-56257D01*
X75506Y-56369D01*
X75506Y-56650D01*
X75562Y-56763D01*
X75618Y-56819D01*
X75731Y-56875D01*
X76012Y-56875D01*
X76124Y-56819D01*
X76181Y-56763D01*
M02*
