M48
;DRILL file {Pcbnew (2013-07-07 BZR 4022)-stable} date 1/29/2015 7:46:58 PM
;FORMAT={2:4/ absolute / inch / keep zeros}
FMAT,2
INCH,TZ
T1C0.025
T2C0.040
%
G90
G05
M72
T1
X068799Y-054547
X071240Y-041181
X071299Y-042697
X071909Y-055453
X073248Y-039941
X073543Y-042323
X074803Y-035709
X075059Y-056142
X075217Y-044764
X075335Y-043583
X075354Y-046850
X075374Y-044134
X075453Y-045177
X075748Y-041122
X076161Y-035256
X076161Y-036614
X076181Y-042244
X076417Y-045177
X077559Y-044764
X078228Y-057047
X078406Y-044449
X078583Y-046831
X078681Y-042657
X078819Y-044232
X079154Y-036634
X079488Y-045098
X079705Y-043898
X079764Y-046594
X080177Y-047736
X080492Y-044390
X080531Y-047402
X080591Y-043071
X080610Y-042579
X080846Y-047047
X081063Y-031043
X081181Y-033150
X081201Y-047579
X081516Y-047185
X081654Y-044390
X081752Y-042559
X082047Y-047185
X082244Y-055886
X082598Y-031043
X082717Y-047264
X082795Y-046575
X083169Y-032854
X083327Y-042579
X083465Y-046654
X083839Y-047047
X083937Y-033780
X083996Y-041732
X084024Y-031031
X084134Y-047421
X084508Y-056654
X084528Y-047776
X085059Y-045079
X085276Y-042539
X086654Y-031083
X087697Y-055689
X088917Y-042638
X088996Y-036496
X089665Y-035197
X090059Y-034724
X090531Y-032697
X090728Y-030039
X090846Y-054547
X090925Y-032441
X091378Y-034075
X091890Y-033819
X092283Y-033465
X092323Y-040354
X092323Y-044606
X092677Y-040866
T2
X078134Y-024579
X078134Y-025579
X079134Y-024579
X079134Y-025579
X080134Y-024579
X080134Y-025579
X094291Y-048909
X094291Y-049909
T0
M30
